<svg version="1.1" xmlns="http://www.w3.org/2000/svg" xmlns:xlink="http://www.w3.org/1999/xlink" x="0px" y="0px" width="100px" height="100px" viewBox="0 0 100 100" enable-background="new 0 0 100 100" xml:space="preserve"><circle fill="#1c437a" cx="51" cy="52" r="41.5"/><linearGradient id="SVGID_1_" gradientUnits="userSpaceOnUse" x1="49.9995" y1="8.5" x2="49.9995" y2="91.5005"><stop  offset="0" style="stop-color:#1b6bd9"/><stop  offset="1" style="stop-color:#2257a5"/></linearGradient><circle fill="url(#SVGID_1_)" cx="50" cy="50" r="41.5"/><g><path fill="#FFFFFF" d="M66.275,47.256h-1.791V42.94c2.286-0.819,3.929-3.002,3.929-5.568c0-3.19-2.538-5.799-5.7-5.913c-0.808-3.052-3.558-5.207-6.763-5.207c-0.727,0-1.446,0.118-2.146,0.353c-1.902-2.134-4.595-3.347-7.47-3.347c-4.87,0-8.991,3.483-9.845,8.206c-3.137,0.142-5.645,2.739-5.645,5.911c0,2.564,1.643,4.747,3.929,5.566v26.202c0,4.191,3.41,7.602,7.601,7.602h14.512c4.189,0,7.599-3.409,7.599-7.601v-4.098h1.791c2.865,0,5.196-2.331,5.196-5.197v-7.393C71.472,49.588,69.141,47.256,66.275,47.256z M66.275,61.969h-1.791V50.331h1.791c1.17,0,2.121,0.953,2.121,2.124v7.393C68.396,61.018,67.445,61.969,66.275,61.969z M56.886,73.669H42.374c-2.495,0-4.525-2.03-4.525-4.526V43.291h23.564v25.852C61.412,71.639,59.382,73.669,56.886,73.669z M36.761,34.53h1.109c0.833,0,1.508-0.652,1.537-1.486c0.124-3.764,3.166-6.712,6.927-6.712c2.289,0,4.43,1.13,5.727,3.022c0.432,0.631,1.348,0.844,2.008,0.479c0.611-0.335,1.244-0.506,1.8810.506c2.089,0,3.811,1.645,3.921,3.743c0.042,0.818,0.716,1.459,1.533,1.459h1.093c1.567,0,2.842,1.275,2.842,2.842c0,1.567-1.274,2.842-2.842,2.842H36.761c-1.567,0-2.842-1.275-2.842-2.842C33.919,35.805,35.194,34.53,36.761,34.53z"/><path fill="#FFFFFF" d="M43.085,47.188c-0.848,0-1.537,0.69-1.537,1.538v19.179c0,0.848,0.689,1.537,1.537,1.537c0.848,0,1.538-0.689,1.538-1.537V48.726C44.624,47.878,43.934,47.188,43.085,47.188z"/><path fill="#FFFFFF" d="M56.172,47.188c-0.848,0-1.538,0.69-1.538,1.538v19.179c0,0.848,0.69,1.537,1.538,1.537s1.538-0.689,1.538-1.537V48.726C57.71,47.878,57.02,47.188,56.172,47.188z"/><path fill="#FFFFFF" d="M49.628,47.188c-0.848,0-1.538,0.69-1.538,1.538v19.179c0,0.848,0.69,1.537,1.538,1.537s1.538-0.689,1.538-1.537V48.726C51.166,47.878,50.476,47.188,49.628,47.188z"/></g></svg>