<svg version="1.1" xmlns="http://www.w3.org/2000/svg" xmlns:xlink="http://www.w3.org/1999/xlink" x="0px" y="0px" width="100px" height="100px" viewBox="0 0 100 100" enable-background="new 0 0 100 100" xml:space="preserve"><circle fill="#1c437a" cx="51" cy="52" r="41.5"/><linearGradient id="SVGID_1_" gradientUnits="userSpaceOnUse" x1="49.9995" y1="8.5" x2="49.9995" y2="91.5005"><stop  offset="0" style="stop-color:#1b6bd9"/><stop  offset="1" style="stop-color:#2257a5"/></linearGradient><circle fill="url(#SVGID_1_)" cx="50" cy="50" r="41.5"/><g> <path fill="#FFFFFF" d="M41.557,48.791l-0.216-0.092c-0.088-0.038-0.18-0.068-0.271-0.098l-0.146-0.048 c-0.616-0.225-1.18-0.372-1.725-0.447l-0.354-0.05l-0.028,0.357c-0.029,0.363-0.05,0.729-0.05,1.098c0,2.948,0.955,5.81,2.69,8.056 c1.325,1.716,3.042,3.006,4.966,3.728l0.348,0.132l0.097-0.359c0.202-0.751,0.325-1.552,0.364-2.382l0.01-0.236l-0.217-0.093 c-0.594-0.25-1.165-0.575-1.695-0.968c-2.382-1.762-3.803-4.706-3.803-7.877c0-0.101,0.006-0.203,0.011-0.304L41.557,48.791z"/> <path fill="#FFFFFF" d="M42.646,40.516c0.438,0.655,0.932,1.241,1.467,1.741l0.23,0.215l0.23-0.215 c1.531-1.427,3.473-2.213,5.467-2.213c1.997,0,3.937,0.786,5.466,2.213l0.23,0.215l0.229-0.215 c0.533-0.498,1.028-1.083,1.467-1.741l0.16-0.237l-0.206-0.196c-2.051-1.95-4.66-3.023-7.347-3.023 c-2.685,0-5.294,1.074-7.347,3.023l-0.207,0.196L42.646,40.516z"/> <path fill="#FFFFFF" d="M62.021,43.407c-0.459,0-0.925,0.026-1.387,0.081c1.724-2.506,2.665-5.658,2.665-8.973 c0-5.855-4.15-10.473-5.934-12.187l-0.571-0.549v3.854l0.088,0.098c2.325,2.544,3.657,5.746,3.657,8.784 c0,2.721-0.776,5.247-2.246,7.307c-0.47,0.657-0.912,1.176-1.39,1.632c-1.921,1.829-4.363,2.836-6.875,2.836 c-2.516,0-4.959-1.007-6.879-2.836c-0.511-0.486-0.986-1.035-1.413-1.632C40.579,40.2,39.2,37.615,39.2,34.515 c0-3.274,1.209-6.476,3.318-8.784l0.088-0.098v-3.854l-0.572,0.549c-1.312,1.26-5.592,5.863-5.592,12.187 c0,3.163,1.017,6.317,2.879,8.97c-0.444-0.053-0.875-0.078-1.319-0.078c-7.349,0-13.328,6.621-13.328,14.758 c0,0.937,0.095,1.925,0.28,2.935l0.103,0.557l2.486-2.001l-0.019-0.182c-0.044-0.436-0.066-0.875-0.066-1.309 c0-6.494,4.756-11.777,10.602-11.777c0.434,0,0.886,0.038,1.426,0.121c0.665,0.098,1.323,0.268,1.956,0.504 c4.318,1.617,7.22,6.098,7.22,11.152c0,0.353-0.021,0.7-0.048,1.045c-0.058,0.736-0.183,1.48-0.371,2.211 c-1.297,5.017-5.484,8.521-10.181,8.521c-0.292,0-0.598-0.019-0.959-0.055l-0.138-0.015l-2.942,2.377l0.619,0.182 c1.117,0.327,2.268,0.493,3.42,0.493c5.11,0,9.733-3.203,11.979-8.23c2.246,5.027,6.869,8.23,11.978,8.23 c1.386,0,2.755-0.236,4.072-0.703l0.569-0.202l-2.807-2.267L63.7,69.779c-0.631,0.11-1.164,0.162-1.682,0.162 c-4.694,0-8.88-3.504-10.179-8.521c-0.189-0.729-0.313-1.474-0.371-2.21c-0.028-0.346-0.048-0.693-0.048-1.046 c0-5.055,2.899-9.536,7.217-11.152c0.634-0.235,1.292-0.406,1.96-0.504c0.542-0.082,0.994-0.12,1.423-0.12 c5.845,0,10.6,5.283,10.6,11.777c0,0.147-0.009,0.292-0.018,0.438l-0.021,0.377l2.553,2.063l0.083-0.59 c0.105-0.755,0.16-1.524,0.16-2.288C75.378,50.028,69.386,43.407,62.021,43.407z"/> <path fill="#FFFFFF" d="M53.058,58.355l-0.206,0.087v0.086l-0.008,0.007l0.007,0.149c0.04,0.829,0.162,1.63,0.363,2.381l0.097,0.36 l0.349-0.132c3.225-1.211,5.838-4.049,6.991-7.593c0.078-0.24,0.149-0.484,0.214-0.731c0.216-0.825,0.356-1.647,0.416-2.445 c0.022-0.334,0.036-0.672,0.036-1.014c0-0.37-0.021-0.735-0.051-1.098l-0.027-0.357l-0.355,0.05 c-0.328,0.046-0.645,0.121-0.912,0.188c-0.465,0.119-0.866,0.251-1.23,0.406l-0.215,0.091l0.019,0.409 c0.008,0.104,0.013,0.208,0.013,0.311c0,2.681-1.033,5.247-2.832,7.039C54.938,57.335,54.04,57.943,53.058,58.355z"/> </g></svg>