<svg version="1.1" xmlns="http://www.w3.org/2000/svg" xmlns:xlink="http://www.w3.org/1999/xlink" x="0px" y="0px" width="100px" height="100px" viewBox="0 0 100 100" enable-background="new 0 0 100 100" xml:space="preserve"><circle fill="#1c437a" cx="51" cy="52" r="41.5"/><linearGradient id="SVGID_1_" gradientUnits="userSpaceOnUse" x1="49.9995" y1="8.5" x2="49.9995" y2="91.5005"><stop  offset="0" style="stop-color:#1b6bd9"/><stop  offset="1" style="stop-color:#2257a5"/></linearGradient><circle fill="url(#SVGID_1_)" cx="50" cy="50" r="41.5"/><g> <path fill="#FFFFFF" d="M73.716,49.418c-0.204-1.99-0.204-1.703-0.954-3.857c-0.765-2.183-2.379-6.455-3.533-8.981 c-1.183-2.555-2.435-4.737-3.348-6.083c-0.906-1.344-1.147-1.459-2.003-1.831c-0.886-0.38-2.019-0.315-3.151-0.387 c-1.124-0.101-2.301-0.15-3.554-0.15h-14.27c-1.281,0-2.485,0.049-3.611,0.15c-1.139,0.071-2.3,0.007-3.157,0.386 c-0.87,0.371-1.118,0.487-2.003,1.832c-0.935,1.346-2.166,3.528-3.342,6.083c-1.168,2.527-2.782,6.799-3.532,8.981 c-0.757,2.155-0.785,1.869-0.962,3.858c-0.191,2.003-0.553,5.804-0.185,7.922c0.348,2.047,1.211,3.436,2.287,4.437 c1.068,0.995,2.428,1.511,4.105,1.547c-0.092,2.111-0.092,3.742,0,4.922c0.049,1.168-0.036,1.684,0.481,2.126 c0.523,0.424,1.862,0.444,2.676,0.479c0.8,0.051,1.664,0.028,2.102-0.286c0.411-0.357,0.291-0.63,0.375-1.84 c0.071-1.245,0.113-3.048,0.099-5.495h23.395c0.058,2.447,0.129,4.25,0.242,5.495c0.092,1.21-0.036,1.482,0.381,1.84 c0.433,0.314,1.27,0.337,2.096,0.286c0.793-0.035,2.131-0.056,2.676-0.479c0.496-0.442,0.411-0.958,0.481-2.126 c0.078-1.18,0.078-2.813,0-4.922c1.671-0.036,3.03-0.552,4.106-1.547c1.068-1.001,1.926-2.39,2.294-4.437 C74.234,55.222,73.915,51.421,73.716,49.418z M33.042,58.107c-2.478,0-4.488-2.032-4.488-4.536c0-2.506,2.01-4.538,4.488-4.538 c2.477,0,4.488,2.032,4.488,4.538C37.53,56.075,35.519,58.107,33.042,58.107z M56.384,57.238H43.635 c-1.332,0-2.411-0.735-2.411-1.642s1.08-1.642,2.411-1.642h12.749c1.332,0,2.411,0.735,2.411,1.642S57.716,57.238,56.384,57.238z M56.384,52.795H43.635c-1.332,0-2.411-0.734-2.411-1.639c0-0.905,1.08-1.638,2.411-1.638h12.749c1.332,0,2.411,0.733,2.411,1.638 C58.795,52.061,57.716,52.795,56.384,52.795z M58.426,44.208c-3.717,0.014-13.322,0.014-16.996,0 c-3.646-0.029-3.327,0.029-4.778-0.1c-1.466-0.13-3.178-0.251-3.915-0.673c-0.736-0.458-0.652-0.974-0.481-1.933 c0.177-0.981,0.792-2.433,1.437-3.864c0.623-1.46,1.536-3.607,2.195-4.731c0.623-1.13,0.927-1.517,1.62-1.932 c0.687-0.421,1.544-0.485,2.486-0.58c0.92-0.121,1.939-0.143,3.058-0.094h13.911c1.111-0.049,2.131-0.027,3.058,0.094 c0.92,0.093,1.776,0.157,2.484,0.58c0.688,0.416,0.963,0.802,1.622,1.932c0.658,1.124,1.557,3.271,2.2,4.731 c0.603,1.432,1.261,2.883,1.43,3.864c0.156,0.958,0.241,1.474-0.48,1.933c-0.757,0.422-2.436,0.544-3.914,0.673 C61.874,44.237,62.086,44.179,58.426,44.208z M66.973,58.107c-2.477,0-4.488-2.032-4.488-4.536c0-2.506,2.012-4.538,4.488-4.538 s4.488,2.032,4.488,4.538C71.461,56.075,69.45,58.107,66.973,58.107z"/> </g></svg>