<svg version="1.1" xmlns="http://www.w3.org/2000/svg" xmlns:xlink="http://www.w3.org/1999/xlink" x="0px" y="0px" width="100px" height="100px" viewBox="0 0 100 100" enable-background="new 0 0 100 100" xml:space="preserve"><circle fill="#1c437a" cx="51" cy="52" r="41.5"/><linearGradient id="SVGID_1_" gradientUnits="userSpaceOnUse" x1="49.9995" y1="8.5" x2="49.9995" y2="91.5005"><stop  offset="0" style="stop-color:#1b6bd9"/><stop  offset="1" style="stop-color:#2257a5"/></linearGradient><circle fill="url(#SVGID_1_)" cx="50" cy="50" r="41.5"/><g><path fill="#FFFFFF" d="M73.827,29.59c-0.582-0.263-1.268-0.156-1.745,0.273l-8.645,7.784c-0.475-0.052-0.966-0.048-1.439,0.004l-8.597-7.784c-0.475-0.434-1.159-0.539-1.745-0.278c-0.585,0.261-0.96,0.8440.955,1.485l0.07,10.154H31.468c-0.921,0-2.009,0.231-3.017,0.744v-7.282c0-0.51,0.146-3.045,3.017-3.045H43.05c0.893,0,1.616-0.724,1.616-1.616c0-0.893-0.724-1.616-1.616-1.616H31.468c-4.583,0-6.249,3.754-6.249,6.277v12.813c0,24.066,2.627,26.081,5.09,26.081c4.126,0,5.54-6.485,6.015-11.648h12.529c0.781,9.568,2.421,11.648,4.622,11.648c2.072,0,3.453-1.65,4.383-3.938c0.87,3.084,2.045,3.938,3.445,3.938c5.555,0,6.201-11.742,6.247-16.193c3.842-1.708,6.659-5.389,7.124-9.974l0.106-16.342C74.786,30.436,74.41,29.854,73.827,29.59z M71.449,47.244c-0.462,4.541-4.208,7.965-8.708,7.965c-4.498,0-8.242-3.42-8.701-7.801l-0.082-12.677l6.425,5.817c0.349,0.317,0.824,0.467,1.284,0.406l0.318-0.042c0.473-0.063,0.961-0.073,1.437-0.006l0.354,0.046c0.457,0.048,0.925-0.095,1.271-0.404l6.479-5.833L71.449,47.244z"/><ellipse fill="#FFFFFF" cx="60.276" cy="47.19" rx="1.66" ry="1.655"/><ellipse fill="#FFFFFF" cx="66.657" cy="47.19" rx="1.66" ry="1.655"/></g></svg>