<svg version="1.1" xmlns="http://www.w3.org/2000/svg" xmlns:xlink="http://www.w3.org/1999/xlink" x="0px" y="0px" width="100px" height="100px" viewBox="0 0 100 100" enable-background="new 0 0 100 100" xml:space="preserve"><circle fill="#1c437a" cx="51" cy="52" r="41.5"/><linearGradient id="SVGID_1_" gradientUnits="userSpaceOnUse" x1="49.9995" y1="8.5" x2="49.9995" y2="91.5005"><stop  offset="0" style="stop-color:#1b6bd9"/><stop  offset="1" style="stop-color:#2257a5"/></linearGradient><circle fill="url(#SVGID_1_)" cx="50" cy="50" r="41.5"/><g> <path fill="#FFFFFF" d="M34.822,24.58l-4.044,1.931L48.753,44.6L35.1,51.991l-7.81-4.254L24.5,49.092l6.529,7.142l1.596,9.601 l2.79-1.355l1.491-8.767l14.33-5.996l3.013,25.158l4.044-1.931l4.783-28.523c2.699-1.248,6.598-3.173,9.271-4.472 c3.34-1.62,4.177-3.635,3.367-5.304c-0.811-1.669-2.962-2.362-6.301-0.741c-2.673,1.297-6.549,3.272-9.198,4.621L35.429,24.253"/> </g></svg>