<svg version="1.1" xmlns="http://www.w3.org/2000/svg" xmlns:xlink="http://www.w3.org/1999/xlink" x="0px" y="0px" width="100px" height="100px" viewBox="0 0 100 100" enable-background="new 0 0 100 100" xml:space="preserve"><circle fill="#1c437a" cx="51" cy="52" r="41.5"/><linearGradient id="SVGID_1_" gradientUnits="userSpaceOnUse" x1="49.9995" y1="8.5" x2="49.9995" y2="91.5005"><stop  offset="0" style="stop-color:#1b6bd9"/><stop  offset="1" style="stop-color:#2257a5"/></linearGradient><circle fill="url(#SVGID_1_)" cx="50" cy="50" r="41.5"/><g><path fill="#FFFFFF" d="M68.126,50.225c-0.437-5.476-3.354-10.398-7.897-13.384l3.139-2.511c0.904-0.723,1.422-1.803,1.422-2.961c0-1.519-0.902-2.887-2.299-3.486l-4.943-2.118l0.154-0.384c0.177-0.44,0.267-0.904,0.267-1.379c0-2.043-1.662-3.705-3.705-3.705h-7.558C44.662,20.295,43,21.957,43,24c0,0.477,0.089,0.94,0.264,1.375l0.155,0.388l-4.943,2.119c-1.396,0.598-2.298,1.966-2.298,3.486c0,1.158,0.519,2.237,1.422,2.962l3.139,2.511c-4.543,2.986-7.46,7.909-7.897,13.384c-2.942,2.705-4.624,6.526-4.624,10.53c0,7.888,6.417,14.306,14.306,14.306h15.92c7.889,0,14.307-6.418,14.307-14.306C72.75,56.751,71.068,52.93,68.126,50.225z M58.443,71.465h-15.92c-5.905,0-10.709-4.805-10.709-10.71c0-3.218,1.429-6.237,3.919-8.281l0.628-0.514l0.029-0.813c0.272-7.632,6.463-13.611,14.09313.611s13.82,5.979,14.094,13.612l0.029,0.812l0.627,0.513c2.491,2.045,3.92,5.064,3.92,8.282C69.153,66.66,64.349,71.465,58.443,71.465z M44.263,35.054l-4.417-3.534c-0.047-0.038-0.073-0.092-0.073-0.153c0-0.079,0.047-0.15,0.12-0.181l4.863-2.083l2.084,5.21C45.961,34.496,45.099,34.743,44.263,35.054z M61.121,31.522l-4.416,3.532c-0.838-0.312-1.701-0.56-2.579-0.742l0.735-1.841l0.004,0.001l1.347-3.369l4.861,2.083c0.073,0.031,0.12,0.102,0.12,0.181C61.193,31.43,61.167,31.485,61.121,31.522zM51.525,31.136l0.185,0.074l-0.179-0.067l-1.048,2.595L46.596,24c0-0.06,0.048-0.108,0.108-0.108h7.558c0.059,0,0.108,0.05,0.102,0.149L51.525,31.136z"/><path fill="#FFFFFF" d="M53.326,46.449h-1.045v-2.274h-3.596v2.274h-1.045c-2.559,0-4.64,1.955-4.64,4.357v1.705c0,2.402,2.082,4.356,4.64,4.356h5.686c0.566,0,1.045,0.349,1.045,0.761v1.705c0,0.412-0.479,0.761-1.045,0.761h-5.686c-0.566,0-1.044-0.349-1.044-0.761v-0.661H43v0.661c0,2.402,2.082,4.357,4.64,4.357h1.045v2.273h3.596V63.69h1.045c2.56,0,4.642-1.955,4.642-4.357v-1.705c0-2.402-2.082-4.357-4.642-4.357h-5.686c-0.566,0-1.044-0.348-1.044-0.76v-1.705c0-0.413,0.479-0.761,1.044-0.761h5.686c0.566,0,1.045,0.348,1.045,0.761v1.513h3.597v-1.513C57.968,48.403,55.886,46.449,53.326,46.449z"/></g></svg>