<svg version="1.1" xmlns="http://www.w3.org/2000/svg" xmlns:xlink="http://www.w3.org/1999/xlink" x="0px" y="0px" width="100px" height="100px" viewBox="0 0 100 100" enable-background="new 0 0 100 100" xml:space="preserve"><circle fill="#1c437a" cx="51" cy="52" r="41.5"/><linearGradient id="SVGID_1_" gradientUnits="userSpaceOnUse" x1="49.9995" y1="8.5" x2="49.9995" y2="91.5005"><stop  offset="0" style="stop-color:#1b6bd9"/><stop  offset="1" style="stop-color:#2257a5"/></linearGradient><circle fill="url(#SVGID_1_)" cx="50" cy="50" r="41.5"/><path fill="#FFFFFF" d="M80.23,38.165l-2.11-1.853c-0.581-1.281-1.39-2.286-2.536-3.159l-0.692-0.524c-0.399-0.656-0.601-1.504-0.612-2.587c-0.006-0.546-0.308-1.055-0.784-1.326c-0.467-0.267-1.066-0.271-1.545,0c-1.609,0.922-2.897,2.123-3.881,3.602c-0.377,0.37-3.521,1.161-7.586,1.562c-2.758,0.269-5.288,0.4-7.73,0.4c-3.289,0-6.114-0.232-9.119-0.479c-3.486-0.286-7.092-0.581-12.017-0.583c-2.238,0-4.422,0.922-5.994,2.532c-1.521,1.563-2.341,3.6-2.304,5.679c-0.066,0.619-0.127,1.452-0.194,2.363l-0.013,0.177c-0.136,1.796-0.363,4.801-0.698,5.638l-1.961,4.89c-0.155,0.387-0.15,0.809,0.014,1.19c0.163,0.382,0.465,0.677,0.843,0.827c0.771,0.32,1.714-0.079,2.029-0.861l1.958-4.89c0.111-0.275,0.21-0.618,0.301-1.042c0.136,0.793,0.071,1.816-0.395,3.308c-0.07,0.227-0.088,0.459-0.054,0.688l2.088,14.234c0.114,0.756,0.775,1.326,1.539,1.326h4.687c0.459,0,0.892-0.201,1.189-0.552c0.295-0.351,0.421-0.809,0.345-1.255l-1.439-8.614c0.956,0.535,2.046,0.823,3.165,0.823c3.072,0,5.68-2.183,6.252-5.152c3.885,0.398,7.005,0.287,12.027-0.428l1.564,2.52l0.001,11.105c0,0.857,0.698,1.556,1.557,1.556h4.683c0.858,0,1.557-0.698,1.557-1.556V56.753c2.995-3.423,3.953-5.906,4.727-7.909c0.56-1.451,1.003-2.602,2.113-3.859c0.05,0.012,0.121,0.035,0.203,0.063c1.168,0.38,2.202,0.484,3.385,0.352l3.049-0.327c1.099-0.116,2.032-0.736,2.56-1.698l0.588-1.054C81.771,40.898,81.457,39.187,80.23,38.165z M39.957,53.01l0.028,0.301c0,1.799-1.463,3.262-3.261,3.262c-1.218,0-2.363-0.681-2.919-1.734c-0.27-0.507-0.799-0.823-1.473-0.823c-0.002,0-0.006,0-0.008,0c-0.615,0.045-1.146,0.444-1.352,1.016l-0.689,1.869c-0.09,0.248-0.116,0.52-0.074,0.79l1.417,8.479h-1.51l-1.841-12.565c1.194-4.138-0.062-6.17-0.985-7.664c-0.457-0.742-0.787-1.278-0.804-2l-0.046-1.819c-0.014-0.51-0.028-1.089,0.046-1.548c0.163-0.99,0.634-1.907,1.361-2.652c0.992-1.014,2.366-1.595,3.77-1.595c4.741,0,8.285,0.29,11.763,0.573c3.055,0.25,5.941,0.486,9.4,0.486c2.569,0,5.189-0.136,8.009-0.414c5.6-0.551,8.89-1.502,9.78-2.824c0.317-0.47,0.658-0.892,1.034-1.275c0.211,0.636,0.502,1.21,0.876,1.737c0.096,0.132,0.201,0.242,0.326,0.338l0.899,0.68c0.792,0.602,1.313,1.282,1.687,2.204c0.09,0.223,0.232,0.426,0.414,0.585l2.404,2.109c0.094,0.079,0.114,0.186,0.058,0.29l-0.586,1.051c-0.044,0.081-0.083,0.106-0.175,0.116l-3.049,0.328c-0.731,0.08-1.365,0.019-2.097-0.217l-0.277-0.09c-1.109-0.355-2.362-0.018-3.138,0.844c-1.529,1.701-2.124,3.239-2.759,4.884c-0.754,1.95-1.608,4.161-4.531,7.389c-0.26,0.287-0.402,0.657-0.402,1.042v10.01h-1.577l-0.002-9.998c0-0.286-0.08-0.568-0.233-0.82l-2.339-3.756c-0.319-0.515-0.901-0.81-1.552-0.718c-3.495,0.531-6.104,0.767-8.454,0.767c-1.732,0-3.443-0.128-5.382-0.403c-0.475-0.068-0.937,0.1-1.306,0.459C40.07,52.035,39.898,52.544,39.957,53.01z"/></svg>