<svg version="1.1" xmlns="http://www.w3.org/2000/svg" xmlns:xlink="http://www.w3.org/1999/xlink" x="0px" y="0px" width="100px" height="100px" viewBox="0 0 100 100" enable-background="new 0 0 100 100" xml:space="preserve"><circle fill="#1c437a" cx="51" cy="52" r="41.5"/><linearGradient id="SVGID_1_" gradientUnits="userSpaceOnUse" x1="49.9995" y1="8.5" x2="49.9995" y2="91.5005"><stop  offset="0" style="stop-color:#1b6bd9"/><stop  offset="1" style="stop-color:#2257a5"/></linearGradient><circle fill="url(#SVGID_1_)" cx="50" cy="50" r="41.5"/><g> <path fill="#FFFFFF" d="M80.688,46.631h-6.215V31.634h2.485c0.684,0,1.243-0.557,1.243-1.243c0-0.686-0.56-1.243-1.243-1.243h-2.415 L39.667,20.86v-1.658c0-0.686-0.557-1.243-1.243-1.243c-0.687,0-1.244,0.557-1.244,1.243v2.112l-7.974,7.833h-1.97 c-0.687,0-1.243,0.557-1.243,1.243c0,0.686,0.557,1.243,1.243,1.243h9.944v56.325c0,0.684,0.557,1.244,1.244,1.244 c0.686,0,1.243-0.561,1.243-1.244V31.634h32.321v14.998h-6.217c-0.683,0-1.242,0.56-1.242,1.243v7.459 c0,0.684,0.56,1.242,1.242,1.242h14.918c0.684,0,1.243-0.559,1.243-1.242v-7.459C81.932,47.191,81.372,46.631,80.688,46.631z M32.759,29.148l4.421-4.343v4.343H32.759z M39.667,23.416l24.126,5.732H39.667V23.416z M79.445,54.09H67.014v-4.972h12.432V54.09z" /> </g></svg>