<svg version="1.1" xmlns="http://www.w3.org/2000/svg" xmlns:xlink="http://www.w3.org/1999/xlink" x="0px" y="0px" width="100px" height="100px" viewBox="0 0 100 100" enable-background="new 0 0 100 100" xml:space="preserve"><circle fill="#1c437a" cx="51" cy="52" r="41.5"/><linearGradient id="SVGID_1_" gradientUnits="userSpaceOnUse" x1="49.9995" y1="8.5" x2="49.9995" y2="91.5005"><stop  offset="0" style="stop-color:#1b6bd9"/><stop  offset="1" style="stop-color:#2257a5"/></linearGradient><circle fill="url(#SVGID_1_)" cx="50" cy="50" r="41.5"/><g> <path fill="#FFFFFF" d="M41.02,45.771c0.363,0.364,0.819,0.546,1.273,0.546c0.455,0,0.91-0.183,1.273-0.546 c0.728-0.727,0.728-1.818,0-2.546l-4.456-4.456l4.456-4.457c0.728-0.727,0.728-1.818,0-2.545c-0.728-0.728-1.818-0.728-2.546,0 l-4.456,4.455l-4.457-4.455c-0.727-0.728-1.818-0.728-2.545,0s-0.727,1.819,0,2.545l4.456,4.457l-4.456,4.456 c-0.727,0.728-0.727,1.819,0,2.546c0.363,0.364,0.818,0.546,1.273,0.546c0.455,0,0.909-0.183,1.272-0.546l4.457-4.455L41.02,45.771 z"/> <path fill="#FFFFFF" d="M65.938,38.769l4.456-4.457c0.727-0.727,0.727-1.909,0-2.545c-0.729-0.728-1.82-0.728-2.548,0l-4.454,4.455 l-4.457-4.455c-0.728-0.728-1.818-0.728-2.546,0c-0.729,0.728-0.729,1.819,0,2.545l4.457,4.457l-4.457,4.456 c-0.729,0.728-0.729,1.819,0,2.546c0.364,0.364,0.818,0.546,1.272,0.546c0.455,0,0.91-0.183,1.273-0.546l4.457-4.455l4.454,4.455 c0.364,0.364,0.818,0.546,1.274,0.546c0.454,0,0.908-0.183,1.273-0.546c0.727-0.727,0.727-1.818,0-2.546L65.938,38.769z"/> <path fill="#FFFFFF" d="M49.932,54.501c-8.002,0-14.459,6.456-14.459,14.459c0,1.001,0.818,1.819,1.818,1.819 c1.001,0,1.819-0.818,1.819-1.819c0-6.002,4.911-10.912,10.912-10.912c6.002,0,10.913,4.91,10.913,10.912 c0,1.001,0.818,1.819,1.819,1.819c0.998,0,1.818-0.818,1.818-1.819C64.391,61.049,57.935,54.501,49.932,54.501z"/> </g></svg>