<svg version="1.1" xmlns="http://www.w3.org/2000/svg" xmlns:xlink="http://www.w3.org/1999/xlink" x="0px" y="0px" width="100px" height="100px" viewBox="0 0 100 100" enable-background="new 0 0 100 100" xml:space="preserve"><circle fill="#1c437a" cx="51" cy="52" r="41.5"/><linearGradient id="SVGID_1_" gradientUnits="userSpaceOnUse" x1="49.9995" y1="8.5" x2="49.9995" y2="91.5005"><stop  offset="0" style="stop-color:#1b6bd9"/><stop  offset="1" style="stop-color:#2257a5"/></linearGradient><circle fill="url(#SVGID_1_)" cx="50" cy="50" r="41.5"/><g><path fill="#FFFFFF" d="M65.408,52.361l-1.029,4.571v12.361c0,1.996-1.868,3.541-3.929,3.026c-1.416-0.321-2.381-1.674-2.381-3.155v-5.149c0-0.451-0.322-0.838-0.773-0.902l-11.009-1.353c-0.193,0-0.516-0.064-0.709-0.129l-8.37-2.317c-0.451-0.128-0.901,0.193-0.901,0.708v9.4c0,1.996-1.867,3.541-3.928,3.026c-1.416-0.321-2.382-1.674-2.382-3.155v-14.68V52.49v-8.242c0-0.322-0.129-0.644-0.387-0.837l-3.863-3.799c-0.837-0.837-0.901-2.189-0.129-2.961c0.837-0.837,2.189-0.837,2.962,0l3.798,3.798c0.193,0.193,0.515,0.322,0.837,0.322h20.924c0.451,0,0.902,0.193,1.288,0.515l9.337,9.336C65.216,51.01,65.602,51.717,65.408,52.361z M69.529,45.085l5.279,3.219c0.644,0.386,1.481,0.258,1.996-0.258l3.541-3.863c0.516-0.58,0.516-1.416,0.064-1.996l-9.142-10.816v-4.958c0-0.773-0.902-1.095-1.417-0.58L57.103,38.518c-0.386,0.386-0.386,0.966,0,1.288l8.757,8.756c0.322,0.321,0.901,0.192,1.029-0.193l1.16-2.769C68.241,45.021,69.014,44.764,69.529,45.085z"/></g></svg>