<svg version="1.1" xmlns="http://www.w3.org/2000/svg" xmlns:xlink="http://www.w3.org/1999/xlink" x="0px" y="0px" width="100px" height="100px" viewBox="0 0 100 100" enable-background="new 0 0 100 100" xml:space="preserve"><circle fill="#1c437a" cx="51" cy="52" r="41.5"/><linearGradient id="SVGID_1_" gradientUnits="userSpaceOnUse" x1="49.9995" y1="8.5" x2="49.9995" y2="91.5005"><stop  offset="0" style="stop-color:#1b6bd9"/><stop  offset="1" style="stop-color:#2257a5"/></linearGradient><circle fill="url(#SVGID_1_)" cx="50" cy="50" r="41.5"/><g> <path fill="#FFFFFF" d="M54.012,56.106c6.18-0.113,17.331-1.334,26.034-7.524c-8.492-2.285-20.08,1.496-26.15,4.38 c-0.017-0.035-0.047-0.059-0.062-0.089c6.08-4.239,16.998-12.948,20.362-26.479C61.842,31.873,55.011,44,51.949,50.959 c-0.061-0.037-0.106-0.082-0.163-0.111c2.138-8.721,4.542-25.446-1.78-38.38c-6.335,12.934-3.927,29.66-1.782,38.38 c-0.068,0.027-0.112,0.072-0.168,0.111c-3.066-6.958-9.897-19.086-22.24-24.564c3.359,13.532,14.271,22.24,20.357,26.479 c-0.018,0.03-0.046,0.054-0.068,0.089c-6.069-2.885-17.652-6.663-26.151-4.38c8.702,6.188,19.851,7.411,26.038,7.524 c0.022,0.059,0.012,0.135,0.033,0.195c-5.229,0.636-13.672,2.354-17.82,7.086c7.011,1.253,14.44-2.669,18.526-5.261 c-2.291,2.104-5.406,8.926-5.406,13.052c4.002-1.42,6.256-9.146,7.467-12.411c0.036,0.013,0.075,0.013,0.108,0.028l-0.542,23.708 h3.287l-0.541-23.708c0.032-0.017,0.073-0.017,0.106-0.028c1.206,3.265,3.465,10.989,7.461,12.411 c0-4.126-3.108-10.947-5.398-13.052c4.082,2.59,11.519,6.514,18.522,5.261c-4.142-4.732-12.591-6.45-17.819-7.086 C53.992,56.241,53.992,56.163,54.012,56.106z"/> </g></svg>