<svg version="1.1" xmlns="http://www.w3.org/2000/svg" xmlns:xlink="http://www.w3.org/1999/xlink" x="0px" y="0px" width="100px" height="100px" viewBox="0 0 100 100" enable-background="new 0 0 100 100" xml:space="preserve"><circle fill="#1c437a" cx="51" cy="52" r="41.5"/><linearGradient id="SVGID_1_" gradientUnits="userSpaceOnUse" x1="49.9995" y1="8.5" x2="49.9995" y2="91.5005"><stop  offset="0" style="stop-color:#1b6bd9"/><stop  offset="1" style="stop-color:#2257a5"/></linearGradient><circle fill="url(#SVGID_1_)" cx="50" cy="50" r="41.5"/><g> <polygon fill="#010101" points="50.201,44.588 50.193,44.595 50.193,44.588 "/> <polygon fill="#010101" points="50.201,44.588 50.193,44.595 50.193,44.588 "/> <path fill="#FFFFFF" d="M47.504,70.496l-10.995,2.391l-3.251-3.729c-0.479-0.573-1.338-0.669-2.008-0.191l-7.936,5.642 c-0.669,0.574-0.86,1.529-0.382,2.199c0.286,0.479,0.765,0.67,1.243,0.67c0.287,0,0.669-0.096,0.765-0.384l6.884-4.875l2.964,3.347 c0.382,0.383,0.956,0.572,1.53,0.478l11.855-2.581c0.765-0.189,1.338-0.956,1.147-1.816C49.13,70.878,48.365,70.305,47.504,70.496z "/> <path fill="#FFFFFF" d="M76.953,74.605l-10.614-5.832c-0.573-0.287-1.146-0.19-1.624,0.097l-5.738,3.92l-4.875-2.199 c-0.765-0.382-1.625,0-2.008,0.765c-0.383,0.766,0,1.627,0.766,2.009l5.641,2.581c0.479,0.285,1.053,0.191,1.531-0.096l5.639-3.824 l9.753,5.26c0.287,0.096,0.479,0.191,0.767,0.191c0.574,0,1.053-0.287,1.434-0.768C78.004,75.945,77.717,74.989,76.953,74.605z"/> <path fill="#FFFFFF" d="M49.894,50.131c-0.668-0.479-1.625-0.289-2.103,0.477l-3.06,5.068c-0.382,0.574-0.287,1.338,0.191,1.816 l2.199,2.39l-0.686,3.739l-8.684,1.52L35.266,50.8l26.198-4.589l2.485,14.247l-8.986,1.528c-0.861,0.189-1.438,0.957-1.245,1.816 c0.192,0.86,0.958,1.436,1.819,1.243l10.516-1.817c0.383-0.095,0.766-0.285,0.956-0.668c0.288-0.287,0.384-0.767,0.288-1.147 l-3.061-17.305c-0.084-0.375-0.279-0.691-0.543-0.917c-0.143-0.25-0.33-0.475-0.605-0.612l-16.54-8.893 c-0.669-0.382-1.434-0.287-1.912,0.287L32.207,47.835c-0.402,0.469-0.503,1.074-0.31,1.594c-0.012,0.142-0.01,0.283,0.023,0.413 l3.059,17.307c0.191,0.766,0.765,1.242,1.53,1.242c0.096,0,0.191,0,0.286,0.096L47.6,66.574c0.222-0.051,0.423-0.139,0.6-0.254 c0.577-0.141,1.026-0.557,1.026-1.18l0.956-5.451c0.096-0.478-0.096-0.953-0.383-1.336l-1.912-2.104l2.486-4.019 C50.852,51.564,50.659,50.607,49.894,50.131z M46.166,37.031l12.193,6.549l-21.548,3.802L46.166,37.031z"/> </g></svg>