<svg version="1.1" xmlns="http://www.w3.org/2000/svg" xmlns:xlink="http://www.w3.org/1999/xlink" x="0px" y="0px" width="100px" height="100px" viewBox="0 0 100 100" enable-background="new 0 0 100 100" xml:space="preserve"><circle fill="#1c437a" cx="51" cy="52" r="41.5"/><linearGradient id="SVGID_1_" gradientUnits="userSpaceOnUse" x1="49.9995" y1="8.5" x2="49.9995" y2="91.5005"><stop  offset="0" style="stop-color:#1b6bd9"/><stop  offset="1" style="stop-color:#2257a5"/></linearGradient><circle fill="url(#SVGID_1_)" cx="50" cy="50" r="41.5"/><g> <rect x="-59.3" y="49.005" fill="#010101" width="0.244" height="0.221"/> <polygon fill="#010101" points="-53.738,52.108 -53.746,52.115 -53.746,52.108 "/> <polygon fill="#010101" points="-53.738,52.108 -53.746,52.115 -53.746,52.108 "/> <path fill="#FFFFFF" d="M74.582,56.065c0.087-0.462-0.161-2.708-3.452-13.234c-3.377-10.796-12.037-11.437-12.037-11.437 s-2.749-0.73-5.543,3.001c-4.023,5.153-2.964,11.648,2.172,15.85c5.136,4.2,11.066,1.375,13.502,0 c1.836,1.093-5.931,4.129-4.519,4.587c1.412,0.46,1.659,2.754,1.659,2.754s0.175,2.321-0.165,3.971 c-1.015,4.916-3.508,2.698-3.508,2.698s-7.815-2.988-0.147,2.515c7.667,5.502,12.052-10.706,12.052-10.706L74.582,56.065z M60.032,44.548c-0.895,0-1.621-0.726-1.621-1.622c0-0.896,0.727-1.621,1.621-1.621c0.897,0,1.623,0.726,1.623,1.621 C61.655,43.822,60.93,44.548,60.032,44.548z"/> <path fill="#FFFFFF" d="M61.452,55.444c-0.032-0.008-0.059-0.016-0.091-0.026c-0.66-0.226-1.66-0.298-2.328-0.477 c-0.022-0.007-0.042-0.012-0.065-0.016c-2.649-0.558-5.017-1.88-6.861-3.725c-2.483-2.483-4.019-5.912-4.019-9.7 c0-3.314,1.177-6.355,3.134-8.728c0.313-0.382,0.376-0.879,0.163-1.326c-0.212-0.446-0.639-0.711-1.133-0.708 c-25.858,0.243-28.62,27.335-21.387,38.935c0.234,0.374,0.613,0.586,1.055,0.586h5.291c0.684,0,1.241-0.56,1.241-1.243 c0-1.966-0.617-6.535,2.25-6.535h5.519c2.906,0,2.203,4.482,2.203,6.535c0,0.684,0.559,1.243,1.241,1.243h4.407 c0.387,0,0.721-0.159,0.965-0.46c1.664-2.055,1.377-4.983,1.916-7.401c0.781-3.508,4.047-6.248,6.813-6.718 C61.69,55.564,61.592,55.48,61.452,55.444z"/> </g></svg>