<svg version="1.1" xmlns="http://www.w3.org/2000/svg" xmlns:xlink="http://www.w3.org/1999/xlink" x="0px" y="0px" width="100px" height="100px" viewBox="0 0 100 100" enable-background="new 0 0 100 100" xml:space="preserve"><circle fill="#1c437a" cx="51" cy="52" r="41.5"/><linearGradient id="SVGID_1_" gradientUnits="userSpaceOnUse" x1="49.9995" y1="8.5" x2="49.9995" y2="91.5005"><stop  offset="0" style="stop-color:#1b6bd9"/><stop  offset="1" style="stop-color:#2257a5"/></linearGradient><circle fill="url(#SVGID_1_)" cx="50" cy="50" r="41.5"/><g> <path fill-rule="evenodd" clip-rule="evenodd" fill="#FFFFFF" d="M45.556,70.551V48.307h-7.317V41.06h7.317c0,0,0-5.302,0-6.385 c0-1.085-0.226-8.341,9.389-8.341c1.288,0,3.735,0,6.309,0c0,3.153,0,6.559,0,7.546c-1.928,0-4.723,0-5.707,0 c-0.986,0-1.985,0.997-1.985,1.738c0,0.739,0,5.416,0,5.416s7.355,0,8.156,0c-0.279,3.799-0.853,7.273-0.853,7.273h-7.338V70.66 L45.556,70.551z"/> </g></svg>