<svg version="1.1" xmlns="http://www.w3.org/2000/svg" xmlns:xlink="http://www.w3.org/1999/xlink" x="0px" y="0px" width="100px" height="100px" viewBox="0 0 100 100" enable-background="new 0 0 100 100" xml:space="preserve"><circle fill="#1c437a" cx="51" cy="52" r="41.5"/><linearGradient id="SVGID_1_" gradientUnits="userSpaceOnUse" x1="49.9995" y1="8.5" x2="49.9995" y2="91.5005"><stop  offset="0" style="stop-color:#1b6bd9"/><stop  offset="1" style="stop-color:#2257a5"/></linearGradient><circle fill="url(#SVGID_1_)" cx="50" cy="50" r="41.5"/><g> <polygon fill="#010101" points="50.201,44.588 50.193,44.595 50.193,44.588 "/> <polygon fill="#010101" points="50.201,44.588 50.193,44.595 50.193,44.588 "/> <path fill="#FFFFFF" d="M69.789,64.084c-0.467,0.31-1.076,0.465-1.688,0.465c-0.612,0-1.224-0.155-1.688-0.465l-2.709-1.806 c-0.466-0.311-1.075-0.465-1.688-0.465c-0.611,0-1.224,0.154-1.688,0.465l-2.709,1.806c-0.466,0.31-1.074,0.465-1.688,0.465 c-0.609,0-1.222-0.155-1.688-0.465l-2.709-1.806c-0.465-0.311-1.075-0.465-1.687-0.465c-0.61,0-1.222,0.154-1.687,0.465 l-2.709,1.806c-0.465,0.31-1.076,0.465-1.687,0.465c-0.611,0-1.223-0.155-1.688-0.465l-2.709-1.806 c-0.465-0.311-1.075-0.465-1.687-0.465c-0.61,0-1.222,0.154-1.687,0.465l-2.709,1.806c-0.465,0.31-1.076,0.465-1.687,0.465 c-0.611,0-1.223-0.155-1.688-0.465l-2.709-1.806c-0.465-0.311-1.075-0.465-1.687-0.465c-0.001,0-0.004,0-0.007,0v2.028 c0.003,0,0.006,0,0.007,0c0.298,0,0.498,0.08,0.563,0.124l2.709,1.806c0.778,0.518,1.776,0.803,2.811,0.803 s2.033-0.285,2.812-0.803l2.709-1.806c0.065-0.044,0.264-0.124,0.563-0.124c0.298,0,0.497,0.08,0.563,0.124l2.709,1.806 c0.778,0.518,1.776,0.803,2.811,0.803s2.033-0.285,2.812-0.803l2.709-1.806c0.065-0.044,0.264-0.124,0.563-0.124 c0.298,0,0.497,0.08,0.563,0.124l2.709,1.806c0.778,0.518,1.776,0.803,2.812,0.803c1.033,0,2.032-0.285,2.81-0.803l2.709-1.806 c0.066-0.044,0.264-0.124,0.564-0.124c0.298,0,0.495,0.08,0.562,0.124l2.708,1.806c0.779,0.518,1.777,0.803,2.813,0.803 c1.034,0,2.032-0.285,2.811-0.803l2.709-1.806c0.065-0.044,0.261-0.123,0.555-0.124v-2.028c-0.608,0.002-1.218,0.157-1.677,0.465 L69.789,64.084z"/> <path fill="#FFFFFF" d="M72.498,54.521l-2.709,1.807c-0.467,0.309-1.076,0.463-1.688,0.463c-0.612,0-1.224-0.154-1.688-0.463 l-2.709-1.807c-0.208-0.14-0.448-0.247-0.701-0.323l0.035-12.886l1.86,1.859l0,0l0,0c0.396,0.396,1.036,0.396,1.432,0 c0.397-0.396,0.397-1.038,0-1.434l0,0l0,0L50.559,25.964l0,0c-0.396-0.396-1.037-0.396-1.433,0l0,0l0,0L33.355,41.736l0,0h-0.002 c-0.396,0.396-0.396,1.038,0,1.434c0.397,0.396,1.039,0.396,1.434,0c0,0,0,0,0.001,0l1.867-1.869l-0.036,12.92 c-0.224,0.074-0.435,0.175-0.622,0.299l-2.709,1.807c-0.465,0.309-1.076,0.463-1.687,0.463c-0.611,0-1.223-0.154-1.688-0.463 l-2.709-1.807c-0.465-0.311-1.075-0.465-1.687-0.465c-0.001,0-0.004,0-0.007,0v2.027c0.003,0,0.006,0,0.007,0 c0.298,0,0.498,0.08,0.563,0.125l2.709,1.806c0.778,0.519,1.776,0.804,2.812,0.804c1.035,0,2.033-0.285,2.812-0.804l2.709-1.806 c0.065-0.045,0.264-0.125,0.563-0.125c0.298,0,0.497,0.08,0.563,0.125l2.709,1.806c0.778,0.519,1.776,0.804,2.811,0.804 s2.033-0.285,2.812-0.804l2.709-1.806c0.065-0.045,0.264-0.125,0.563-0.125c0.298,0,0.497,0.08,0.563,0.125l2.71,1.806 c0.777,0.519,1.775,0.804,2.812,0.804c1.033,0,2.03-0.285,2.81-0.804l2.709-1.806c0.065-0.045,0.264-0.125,0.563-0.125 c0.298,0,0.496,0.08,0.563,0.125l2.708,1.806c0.779,0.519,1.777,0.804,2.813,0.804c1.034,0,2.032-0.285,2.811-0.804l2.709-1.806 c0.065-0.044,0.261-0.122,0.555-0.125v-2.027C73.566,54.058,72.958,54.212,72.498,54.521z M49.851,54.056 c-0.61,0-1.222,0.154-1.687,0.465l-0.349,0.232v-6.78h4.056v6.768l-0.333-0.22C51.072,54.21,50.462,54.056,49.851,54.056z M57.621,56.327c-0.466,0.309-1.074,0.463-1.688,0.463c-0.609,0-1.222-0.154-1.688-0.463l-0.348-0.233v-9.135 c0-0.56-0.455-1.014-1.013-1.014h-6.084c-0.562,0-1.015,0.455-1.015,1.014c0,0.024,0.001,0.049,0.004,0.073h-0.004v9.071 l-0.333,0.224c-0.465,0.309-1.076,0.463-1.687,0.463c-0.611,0-1.223-0.154-1.688-0.463l-2.709-1.807 c-0.215-0.144-0.46-0.252-0.723-0.33l0.042-14.922l11.153-11.153l11.174,11.173l-0.042,14.925 c-0.234,0.075-0.452,0.177-0.646,0.307L57.621,56.327z"/> <path fill="#FFFFFF" d="M69.789,71.841c-0.467,0.311-1.076,0.465-1.688,0.465c-0.612,0-1.224-0.154-1.688-0.465l-2.709-1.806 c-0.466-0.31-1.075-0.463-1.688-0.463c-0.611,0-1.224,0.153-1.688,0.463l-2.709,1.806c-0.466,0.311-1.074,0.465-1.688,0.465 c-0.612,0-1.222-0.154-1.688-0.465l-2.709-1.806c-0.465-0.31-1.075-0.463-1.687-0.463s-1.222,0.153-1.687,0.463l-2.709,1.806 c-0.465,0.311-1.076,0.465-1.687,0.465c-0.611,0-1.223-0.154-1.688-0.465l-2.709-1.806c-0.465-0.31-1.075-0.463-1.687-0.463 c-0.61,0-1.222,0.153-1.687,0.463l-2.709,1.806c-0.465,0.311-1.076,0.465-1.687,0.465c-0.611,0-1.223-0.154-1.688-0.465 l-2.709-1.806c-0.465-0.31-1.075-0.463-1.687-0.463c-0.001,0-0.004,0-0.007,0V71.6c0.003,0,0.004,0,0.007,0 c0.298,0,0.498,0.081,0.563,0.122l2.709,1.807c0.778,0.52,1.776,0.805,2.811,0.805s2.033-0.285,2.812-0.805l2.709-1.807 c0.065-0.041,0.264-0.122,0.563-0.122c0.298,0,0.497,0.081,0.563,0.122l2.709,1.807c0.778,0.52,1.776,0.805,2.811,0.805 s2.033-0.285,2.812-0.805l2.709-1.807c0.065-0.041,0.264-0.122,0.563-0.122c0.298,0,0.497,0.081,0.563,0.122l2.709,1.807 c0.778,0.52,1.776,0.805,2.812,0.805c1.033,0,2.032-0.285,2.81-0.805l2.709-1.807c0.066-0.041,0.264-0.122,0.564-0.122 c0.298,0,0.495,0.081,0.562,0.122l2.708,1.807c0.779,0.52,1.777,0.805,2.813,0.805c1.034,0,2.032-0.285,2.811-0.805l2.709-1.807 c0.065-0.041,0.261-0.122,0.555-0.122v-2.027c-0.608,0.001-1.218,0.155-1.677,0.463L69.789,71.841z"/> </g></svg>