<svg version="1.1" xmlns="http://www.w3.org/2000/svg" xmlns:xlink="http://www.w3.org/1999/xlink" x="0px" y="0px" width="100px" height="100px" viewBox="0 0 100 100" enable-background="new 0 0 100 100" xml:space="preserve"><circle fill="#1c437a" cx="51" cy="52" r="41.5"/><linearGradient id="SVGID_1_" gradientUnits="userSpaceOnUse" x1="49.9995" y1="8.5" x2="49.9995" y2="91.5005"><stop  offset="0" style="stop-color:#1b6bd9"/><stop  offset="1" style="stop-color:#2257a5"/></linearGradient><circle fill="url(#SVGID_1_)" cx="50" cy="50" r="41.5"/><g> <path fill="#FFFFFF" d="M65.521,57.593V45.179c0-2.691-1.035-5.227-2.95-7.142c-1.449-1.449-2.225-3.364-2.225-5.382v-0.362 c0.775-0.258,1.293-0.983,1.293-1.812v-1.293c0-1.191-0.672-2.226-1.656-2.795c-0.206-0.259-0.568-0.414-0.931-0.414h-0.673h-9.004 h-0.673c-0.362,0-0.724,0.155-0.931,0.414c-0.984,0.569-1.656,1.604-1.656,2.846v1.293c0,0.828,0.518,1.553,1.294,1.811v0.363 c0,2.018-0.776,3.933-2.225,5.33c-1.915,1.915-2.95,4.451-2.95,7.142v12.396h-4.628c2.604,2.817,4.355,5.488,4.628,6.978v0.672 c-0.034,0.129-0.084,0.244-0.169,0.329c-0.985,0.985-5.113-1.543-9.219-5.649c-0.623-0.624-1.209-1.247-1.753-1.861 c-4.086,1.017-6.988,3.578-6.988,6.58v0.881c0,3.894,4.877,7.05,10.894,7.05h11.117h15.524h3.319c6.016,0,10.895-3.156,10.895-7.05 v-0.881C75.853,60.854,71.274,57.783,65.521,57.593z M47.408,29.241c0-1.087,0.88-1.966,1.966-1.966h9.056 c1.087,0,1.966,0.879,1.966,1.966v1.293c0,0.362-0.31,0.673-0.673,0.673H48.081c-0.362,0-0.672-0.311-0.672-0.673V29.241z M47.046,39.797c1.915-1.863,2.95-4.398,2.95-7.142v-0.207h7.762v0.207c0,2.691,1.035,5.227,2.95,7.142 c0.621,0.621,1.138,1.345,1.5,2.122c-0.673-0.104-1.139-0.259-1.656-0.414c-0.828-0.258-1.707-0.569-3.415-0.569 s-2.588,0.259-3.415,0.569c-0.776,0.259-1.501,0.466-3.053,0.466c-1.501,0-2.278-0.259-3.054-0.466 c-0.465-0.155-0.983-0.311-1.604-0.414C46.321,40.625,46.632,40.211,47.046,39.797z M45.39,42.385 c0.776,0.104,1.293,0.259,1.863,0.414c0.828,0.259,1.708,0.569,3.416,0.569c1.706,0,2.586-0.259,3.414-0.569 c0.776-0.258,1.501-0.465,3.054-0.465s2.277,0.259,3.053,0.465c0.674,0.208,1.397,0.414,2.535,0.518 c0.156,0.621,0.26,1.242,0.26,1.863v12.396h-0.13c0.048,0.05,0.084,0.092,0.13,0.141v4.718c-0.874,0.416-2.203,0.155-4.889-2.531 c-0.785-0.781-1.51-1.565-2.165-2.327h-5.702c3.389,3.665,5.345,7.092,4.46,7.977c-0.985,0.986-5.113-1.541-9.219-5.649 c-0.225-0.225-0.434-0.449-0.649-0.673v-14.05C44.821,44.196,45.027,43.265,45.39,42.385z"/> </g></svg>