<svg version="1.1" xmlns="http://www.w3.org/2000/svg" xmlns:xlink="http://www.w3.org/1999/xlink" x="0px" y="0px" width="100px" height="100px" viewBox="0 0 100 100" enable-background="new 0 0 100 100" xml:space="preserve"><circle fill="#1c437a" cx="51" cy="52" r="41.5"/><linearGradient id="SVGID_1_" gradientUnits="userSpaceOnUse" x1="49.9995" y1="8.5" x2="49.9995" y2="91.5005"><stop  offset="0" style="stop-color:#1b6bd9"/><stop  offset="1" style="stop-color:#2257a5"/></linearGradient><circle fill="url(#SVGID_1_)" cx="50" cy="50" r="41.5"/><g> <rect x="22.912" y="51.733" transform="matrix(-0.8953 0.4454 -0.4454 -0.8953 78.6335 102.1719)" fill="#FFFFFF" width="8.798" height="17.185"/> <path fill="#FFFFFF" d="M59.53,26.858c-0.02,0-1.98-0.014-3.13,0l0,0c-6.377,0.823-12.67,4.337-15.21,10.278 c-0.421,0.983-3.649,9.197-4.964,12.544l-6.093,3.082l5.344,10.566l5.572-1.82c2.05,1.825,5.469,3.054,7.744,3.054h0.964v6.337 h19.237V57.673c3.516-2.895,5.442-7.616,5.442-13.39C74.437,35.659,68.152,26.858,59.53,26.858z M47.833,49.484 c-3.367,0-6.095-2.729-6.095-6.097c0-3.367,2.729-6.096,6.095-6.096c3.366,0,6.096,2.729,6.096,6.096 C53.929,46.755,51.199,49.484,47.833,49.484z"/> </g></svg>