<svg version="1.1" xmlns="http://www.w3.org/2000/svg" xmlns:xlink="http://www.w3.org/1999/xlink" x="0px" y="0px" width="100px" height="100px" viewBox="0 0 100 100" enable-background="new 0 0 100 100" xml:space="preserve"><circle fill="#1c437a" cx="51" cy="52" r="41.5"/><linearGradient id="SVGID_1_" gradientUnits="userSpaceOnUse" x1="49.9995" y1="8.5" x2="49.9995" y2="91.5005"><stop  offset="0" style="stop-color:#1b6bd9"/><stop  offset="1" style="stop-color:#2257a5"/></linearGradient><circle fill="url(#SVGID_1_)" cx="50" cy="50" r="41.5"/><g> <path fill="#FFFFFF" d="M49.979,25.333c-13.624,0-24.667,11.044-24.667,24.667s11.043,24.667,24.667,24.667 c13.623,0,24.667-11.044,24.667-24.667S63.602,25.333,49.979,25.333z M49.979,72.2c-12.242,0-22.2-9.958-22.2-22.2 s9.958-22.2,22.2-22.2c12.242,0,22.2,9.958,22.2,22.2S62.221,72.2,49.979,72.2z"/> <path fill="#FFFFFF" d="M49.979,43.833c-3.406,0-6.167,2.761-6.167,6.167c0,3.405,2.761,6.167,6.167,6.167 c3.405,0,6.167-2.762,6.167-6.167C56.146,46.594,53.384,43.833,49.979,43.833z M49.979,53.7c-2.041,0-3.7-1.66-3.7-3.7 c0-2.041,1.66-3.7,3.7-3.7c2.04,0,3.7,1.66,3.7,3.7C53.679,52.04,52.019,53.7,49.979,53.7z"/> <path fill="#FFFFFF" d="M63.934,36.045l-7.85,7.85c1.56,1.567,2.528,3.726,2.528,6.105h11.1 C69.712,44.549,67.504,39.615,63.934,36.045z"/> <path fill="#FFFFFF" d="M61.819,34.213c-0.944-0.715-1.956-1.338-3.016-1.869l-4.965,9.935c0.462,0.234,0.907,0.505,1.32,0.814 L61.819,34.213z"/> </g></svg>