<svg version="1.1" xmlns="http://www.w3.org/2000/svg" xmlns:xlink="http://www.w3.org/1999/xlink" x="0px" y="0px" width="100px" height="100px" viewBox="0 0 100 100" enable-background="new 0 0 100 100" xml:space="preserve"><circle fill="#1c437a" cx="51" cy="52" r="41.5"/><linearGradient id="SVGID_1_" gradientUnits="userSpaceOnUse" x1="49.9995" y1="8.5" x2="49.9995" y2="91.5005"><stop  offset="0" style="stop-color:#1b6bd9"/><stop  offset="1" style="stop-color:#2257a5"/></linearGradient><circle fill="url(#SVGID_1_)" cx="50" cy="50" r="41.5"/><path fill="#FFFFFF" d="M75.487,32.653l-5.935-5.934v-2.694c0-0.695-0.267-1.262-0.731-1.628c-0.384-0.385-0.922-0.605-1.477-0.605c-0.116,0-0.232,0.009-0.321,0.025c-9.663,1.244-17.553,9.651-18.615,19.702h-8.252c-7.928,0-14.377,6.45-14.377,14.377l0.001,11.458c-0.012,0.195-0.012,0.195,0.137,2.409c0.01,0.141,0.059,0.276,0.143,0.391c2.318,3.183,5.857,5.103,11.137,6.043c0.044,0.008,0.088,0.012,0.131,0.012c0.008,0,0.014,0,0.02,0c0.414,0,0.75-0.336,0.75-0.75c0-0.179-0.063-0.342-0.167-0.471c-0.478-0.988-0.754-2.051-0.822-3.161c-0.002-0.034-0.006-0.067-0.013-0.101l-0.014-0.42c0-4.67,3.799-8.469,8.469-8.469c4.669,0,8.468,3.799,8.468,8.469c0,1.238-0.27,2.442-0.803,3.581c-0.122,0.261-0.083,0.569,0.099,0.792c0.183,0.224,0.478,0.325,0.758,0.254c2.374-0.575,5.805-1.727,8.704-3.944c0.087-0.033,0.169-0.084,0.24-0.152c1.795-1.688,1.938-1.944,1.923-3.422l-0.003-17.94c0-3.107,0.696-6.02,2.071-8.672c1.123,0.965,2.55,1.491,4.065,1.491c1.677,0,3.244-0.644,4.413-1.813c1.181-1.181,1.831-2.748,1.831-4.413S76.668,33.834,75.487,32.653z M60.506,50.475V69.13c-0.697,0.333-1.441,0.651-2.226,0.953c-0.654-6.564-6.081-11.565-12.776-11.565c-6.604,0-12.017,4.858-12.759,11.242c-0.742-0.314-1.529-0.68-2.463-1.141V55.896c0-5.484,4.462-9.947,9.947-9.947h10.331c0.578,0,1.131-0.234,1.556-0.659c0.425-0.425,0.659-0.978,0.659-1.557c0-7.868,5.139-14.854,12.348-16.978v0.859c0,0.578,0.234,1.131,0.659,1.556l6.594,6.595c0.359,0.358,0.513,0.748,0.513,1.301c0,0.445-0.201,0.935-0.513,1.301c-0.711,0.71-1.895,0.708-2.604,0l-1.685-1.683c-0.419-0.419-1.039-0.66-1.701-0.66c-0.041,0-0.082,0.003-0.123,0.01c-0.565,0.094-1.073,0.361-1.507,0.795c-0.035,0.035-0.066,0.073-0.094,0.114C61.943,41.022,60.506,45.701,60.506,50.475z"/></svg>