<svg version="1.1" xmlns="http://www.w3.org/2000/svg" xmlns:xlink="http://www.w3.org/1999/xlink" x="0px" y="0px" width="100px" height="100px" viewBox="0 0 100 100" enable-background="new 0 0 100 100" xml:space="preserve"><circle fill="#1c437a" cx="51" cy="52" r="41.5"/><linearGradient id="SVGID_1_" gradientUnits="userSpaceOnUse" x1="49.9995" y1="8.5" x2="49.9995" y2="91.5005"><stop  offset="0" style="stop-color:#1b6bd9"/><stop  offset="1" style="stop-color:#2257a5"/></linearGradient><circle fill="url(#SVGID_1_)" cx="50" cy="50" r="41.5"/><g> <polygon fill="#FFFFFF" points="30.208,63.573 47.037,63.573 47.037,56.922 30.208,56.922 "/> <path fill="#FFFFFF" d="M52.096,22.496c-9.129,0-17.549,6.857-19.298,14.407c-0.389,1.679-0.828,6.064-0.828,6.064l-5.168,9.149 c-0.084,0.188-0.124,0.407-0.124,0.629c0,0.894,0.721,1.62,1.619,1.62h0.44h3.233h17.08v11.763H32.235 c0.696,4.012,2.882,4.358,7.666,4.358h1.397v6.16h23.226v-17.08c4.684-3.682,7.696-10.527,7.696-16.945 C72.219,31.504,63.213,22.496,52.096,22.496z M37.418,46.973c-1.544,0-2.796-1.251-2.796-2.796s1.251-2.797,2.796-2.797 c1.544,0,2.797,1.252,2.797,2.797S38.963,46.973,37.418,46.973z M61.629,50.281c-0.438,1.528-1.356,2.825-2.585,3.653 c-0.883,0.596-1.853,0.898-2.816,0.898c-0.423,0-0.846-0.058-1.26-0.177c-0.391-0.111-0.617-0.521-0.504-0.909 c0.11-0.393,0.521-0.615,0.908-0.505c0.935,0.265,1.946,0.078,2.851-0.528c0.943-0.636,1.65-1.644,1.993-2.839 c0.319-1.112,0.557-2.689-0.118-3.886c-0.418-0.738-1.155-1.254-2.194-1.534c-1.359-0.364-2.839,0.661-3.307,2.29 c-0.11,0.391-0.518,0.618-0.909,0.505c-0.391-0.112-0.616-0.519-0.504-0.909c0.696-2.439,2.942-3.891,5.103-3.307 c1.435,0.387,2.473,1.139,3.093,2.233C62.111,46.565,62.197,48.298,61.629,50.281z"/> </g></svg>