<svg version="1.1" xmlns="http://www.w3.org/2000/svg" xmlns:xlink="http://www.w3.org/1999/xlink" x="0px" y="0px" width="100px" height="100px" viewBox="0 0 100 100" enable-background="new 0 0 100 100" xml:space="preserve"><circle fill="#1c437a" cx="51" cy="52" r="41.5"/><linearGradient id="SVGID_1_" gradientUnits="userSpaceOnUse" x1="49.9995" y1="8.5" x2="49.9995" y2="91.5005"><stop  offset="0" style="stop-color:#1b6bd9"/><stop  offset="1" style="stop-color:#2257a5"/></linearGradient><circle fill="url(#SVGID_1_)" cx="50" cy="50" r="41.5"/><g> <path fill="#FFFFFF" d="M35.368,61.516c1.044,0,1.892-0.847,1.892-1.892V55.31c0-1.044-0.848-1.893-1.892-1.893 s-1.892,0.849-1.892,1.893v4.314C33.476,60.668,34.323,61.516,35.368,61.516z"/> <path fill="#FFFFFF" d="M43.559,44.566c1.045,0,1.892-0.847,1.892-1.892v-4.312c0-1.045-0.848-1.892-1.892-1.892 s-1.892,0.847-1.892,1.892v4.312C41.667,43.718,42.514,44.566,43.559,44.566z"/> <path fill="#FFFFFF" d="M35.368,44.566c1.045,0,1.892-0.847,1.892-1.892v-4.312c0-1.045-0.848-1.892-1.892-1.892 s-1.892,0.847-1.892,1.892v4.312C33.476,43.718,34.323,44.566,35.368,44.566z"/> <path fill="#FFFFFF" d="M54.48,44.566c1.045,0,1.892-0.847,1.892-1.892v-4.312c0-1.045-0.847-1.892-1.892-1.892 s-1.892,0.847-1.892,1.892v4.312C52.589,43.718,53.436,44.566,54.48,44.566z"/> <path fill="#FFFFFF" d="M63.224,61.516c1.045,0,1.893-0.847,1.893-1.892V55.31c0-1.044-0.848-1.893-1.893-1.893 s-1.892,0.849-1.892,1.893v4.314C61.332,60.668,62.179,61.516,63.224,61.516z"/> <path fill="#FFFFFF" d="M63.224,44.566c1.045,0,1.893-0.847,1.893-1.892v-4.312c0-1.045-0.848-1.892-1.893-1.892 s-1.892,0.847-1.892,1.892v4.312C61.332,43.718,62.179,44.566,63.224,44.566z"/> <path fill="#FFFFFF" d="M71.554,27.419H27.447c-1.045,0-1.892,0.847-1.892,1.892v40.798c0,1.045,0.847,1.893,1.892,1.893h44.107 c1.045,0,1.892-0.848,1.892-1.893V29.312C73.445,28.267,72.599,27.419,71.554,27.419z M54.738,67.787H44.015V54.763h10.724V67.787z M69.661,68.218H58.522V52.87c0-1.044-0.848-1.892-1.893-1.892H42.123c-1.044,0-1.892,0.848-1.892,1.892v15.348H29.339V31.203 h40.322V68.218z"/> </g></svg>