<svg version="1.1" xmlns="http://www.w3.org/2000/svg" xmlns:xlink="http://www.w3.org/1999/xlink" x="0px" y="0px" width="100px" height="100px" viewBox="0 0 100 100" enable-background="new 0 0 100 100" xml:space="preserve"><circle fill="#1c437a" cx="51" cy="52" r="41.5"/><linearGradient id="SVGID_1_" gradientUnits="userSpaceOnUse" x1="49.9995" y1="8.5" x2="49.9995" y2="91.5005"><stop  offset="0" style="stop-color:#1b6bd9"/><stop  offset="1" style="stop-color:#2257a5"/></linearGradient><circle fill="url(#SVGID_1_)" cx="50" cy="50" r="41.5"/><g><path fill="#FFFFFF" d="M58.257,36.788c-1.692-0.647-4.362-1.019-7.324-1.019c-2.984,0-5.894,0.378-7.982,1.038c-1.988,0.63-3.714,4.509-4.477,7.846c-0.294,1.274,0.083,2.583,1.009,3.502l1.699,1.695c0.83-1.105,1.742-2.15,2.72-3.117c0.237-0.239,0.293-0.613,0.132-0.922c-0.618-1.154-1.206-1.566-2.242-1.566l-0.208-0.005c-0.663-0.075-1.18-0.591-1.257-1.255c-0.091-0.782,0.472-1.492,1.254-1.583l0.106-0.007c0,0,0.001,0,0.001,0c2.901,0,4.167,1.755,4.874,3.076c0.744,1.423,0.489,3.137-0.631,4.273c-2.577,2.602-5.111,6.131-4.502,8.232c0.325,1.189,1.808,1.877,3.156,2.264c1.389-1.031,2.986-1.713,4.683-2.006v-0.668l-1.883-1.52c-0.339-0.277-0.559-0.662-0.626-1.09c-0.073-0.461,0.038-0.924,0.314-1.305c0.276-0.379,0.683-0.627,1.146-0.701c1.779-0.234,3.531-0.23,5.261-0.002c0.481,0.068,0.909,0.328,1.186,0.715c0.561,0.789,0.376,1.883-0.408,2.441l-2.117,1.539v0.578c1.67,0.273,3.255,0.98,4.575,2.043c1.797-0.514,2.85-1.271,3.134-2.254c0.604-2.111-1.929-5.637-4.499-8.232c-1.122-1.139-1.378-2.853-0.64-4.267c0.711-1.331,1.983-3.089,4.871-3.089l0.115,0.007c0.66,0.076,1.177,0.591,1.255,1.253c0.044,0.381-0.063,0.755-0.301,1.055c-0.236,0.298-0.575,0.486-0.954,0.53l-0.115,0.007c-1.17,0-1.726,0.382-2.357,1.571c-0.157,0.302-0.101,0.676,0.145,0.924c0.974,0.96,1.886,2.004,2.717,3.109l1.72-1.721c0.925-0.921,1.303-2.229,1.012-3.499C62.056,41.315,60.351,37.585,58.257,36.788z"/><path fill="#FFFFFF" d="M46.376,61.486v0.561c0,0.043,0.004,0.088,0.009,0.133c0.063,0.533,0.569,0.938,1.128,0.873l2.375-0.299l1.541,0.008l2.372,0.299c0.027,0.002,0.068,0.006,0.108,0.006c0.563,0,1.02-0.455,1.021-1.016l0.009-0.574c-1.341-1.023-2.747-1.543-4.188-1.543C48.744,59.934,47.106,60.947,46.376,61.486z"/><path fill="#FFFFFF" d="M63.628,28.798c1.426-0.41,2.893-0.659,4.373-0.744l1.009-0.073l-0.755-0.671c-6.694-5.967-16.798-2.406-18.252-1.848c-1.449-0.563-11.552-4.119-18.252,1.854l-0.755,0.67l1.009,0.068c1.48,0.084,2.947,0.333,4.373,0.744c-2.874,1.087-11.485,5.573-10.758,20.151l0.04,0.873l0.676-0.563c0.428-0.383,1.64-1.245,2.632-1.245c-0.344,2.439-1.562,14.5,6.429,20.744l1.048,0.787l-0.361-1.256c0,0-0.637-2.287,0.377-3.512c1.325,1.906,6.988,9.451,13.542,9.84c6.525-0.389,12.189-7.928,13.524-9.834c1.008,1.225,0.383,3.49,0.378,3.512l-0.339,1.25l1.025-0.799c7.997-6.238,6.763-18.303,6.43-20.744c0.958,0,2.227,0.862,2.648,1.257l0.665,0.563l0.045-0.885C75.113,34.377,66.502,29.886,63.628,28.798z M63.797,50.178l-2.156,2.156c1.085,2.064,1.388,3.854,0.926,5.447c-0.555,1.912-2.169,3.295-4.802,4.113v0.156c-0.012,2.115-1.737,3.84-3.847,3.852c-0.033,0.008-0.27,0.01-0.438-0.004l-2.311-0.289h-1.102l-2.19,0.283c-0.165,0.025-0.342,0.035-0.52,0.035h-0.002c-1.034-0.002-2.004-0.408-2.733-1.141s-1.128-1.705-1.125-2.738v-0.154c-3.256-1.021-4.413-2.775-4.801-4.113c-0.454-1.563-0.143-3.391,0.927-5.445l-2.161-2.161c-1.623-1.62-2.284-3.921-1.766-6.156c0.452-1.994,2.254-8.613,6.398-9.924c2.412-0.767,5.557-1.189,8.856-1.189c3.32,0,6.277,0.429,8.323,1.208c3.303,1.256,5.424,5.942,6.307,9.908C66.094,46.255,65.429,48.559,63.797,50.178z"/></g></svg>