<svg version="1.1" xmlns="http://www.w3.org/2000/svg" xmlns:xlink="http://www.w3.org/1999/xlink" x="0px" y="0px" width="100px" height="100px" viewBox="0 0 100 100" enable-background="new 0 0 100 100" xml:space="preserve"><circle fill="#1c437a" cx="51" cy="52" r="41.5"/><linearGradient id="SVGID_1_" gradientUnits="userSpaceOnUse" x1="49.9995" y1="8.5" x2="49.9995" y2="91.5005"><stop  offset="0" style="stop-color:#1b6bd9"/><stop  offset="1" style="stop-color:#2257a5"/></linearGradient><circle fill="url(#SVGID_1_)" cx="50" cy="50" r="41.5"/><g> <polygon fill="#010101" points="50.201,44.588 50.193,44.595 50.193,44.588 "/> <polygon fill="#010101" points="50.201,44.588 50.193,44.595 50.193,44.588 "/> <path fill="#FFFFFF" d="M72.808,44.799v21.649l-9.79,4.4V51.538c0-1.137-1.729-1.137-1.729,0v19.311l-9.791-4.401V36.128 l0.954,0.429c1.046,0.469,1.75-1.107,0.708-1.576l-2.172-0.976c-0.229-0.105-0.474-0.103-0.708,0l-11.164,5.017l-11.165-5.017 c-0.528-0.237-1.218,0.151-1.218,0.788v32.214c0,0.34,0.2,0.648,0.509,0.788l11.519,5.176c0.27,0.119,0.477,0.103,0.708,0 l11.164-5.018l11.165,5.018c0.255,0.112,0.461,0.109,0.709,0l11.519-5.176c0.31-0.14,0.511-0.448,0.511-0.788V44.799 C74.536,43.644,72.808,43.644,72.808,44.799z M38.251,70.849l-9.791-4.4v-30.32l9.791,4.4V70.849z M49.77,66.448l-9.791,4.4v-30.32 l9.791-4.399V66.448z"/> <path fill="#FFFFFF" d="M65.004,23.447c-5.87,0-10.646,4.777-10.646,10.648c0,1.191,0.195,2.361,0.58,3.478 c1.736,5.004,4.724,9.529,8.621,13.068c0.804,0.798,2.097,0.793,2.872,0.018c3.918-3.556,6.904-8.082,8.643-13.087 c0.385-1.115,0.58-2.284,0.58-3.477C75.653,28.224,70.876,23.447,65.004,23.447z M65.004,40.463c-3.532,0-6.406-2.874-6.406-6.405 s2.874-6.404,6.406-6.404s6.404,2.873,6.404,6.404S68.536,40.463,65.004,40.463z"/> </g></svg>