<svg version="1.1" xmlns="http://www.w3.org/2000/svg" xmlns:xlink="http://www.w3.org/1999/xlink" x="0px" y="0px" width="100px" height="100px" viewBox="0 0 100 100" enable-background="new 0 0 100 100" xml:space="preserve"><circle fill="#1c437a" cx="51" cy="52" r="41.5"/><linearGradient id="SVGID_1_" gradientUnits="userSpaceOnUse" x1="49.9995" y1="8.5" x2="49.9995" y2="91.5005"><stop  offset="0" style="stop-color:#1b6bd9"/><stop  offset="1" style="stop-color:#2257a5"/></linearGradient><circle fill="url(#SVGID_1_)" cx="50" cy="50" r="41.5"/><g> <path fill="#FFFFFF" d="M65.763,52.317c-0.654-0.559-1.483-0.748-2.274-0.639c0,0,0.025-13.918,0.025-14.011 c0-7.779-6.313-14.084-14.082-14.084c-7.77,0-14.063,6.306-14.063,14.084c0,0.147-0.046,13.979-0.046,13.979 c-0.753-0.069-1.444,0.144-2.066,0.671c-1.202,1.022-1.349,2.807-0.367,4.025l16.68,20.075l16.677-20.291 C67.064,54.92,66.901,53.286,65.763,52.317z M39.663,40.341c0-1.093,0.881-1.974,1.974-1.974h4.44c1.092,0,1.974,0.881,1.974,1.974 c0,1.091-0.882,1.973-1.974,1.973h-4.44C40.544,42.314,39.663,41.432,39.663,40.341z M49.449,54.23 c-1.949,0-3.529-1.581-3.529-3.527c0-1.947,1.581-3.527,3.529-3.527c1.948,0,3.531,1.581,3.531,3.527 C52.979,52.649,51.396,54.23,49.449,54.23z M57.097,42.314h-4.441c-1.092,0-1.972-0.882-1.972-1.973 c0-1.093,0.88-1.974,1.972-1.974h4.441c1.093,0,1.975,0.881,1.975,1.974C59.071,41.432,58.189,42.314,57.097,42.314z"/> </g></svg>