<svg version="1.1" xmlns="http://www.w3.org/2000/svg" xmlns:xlink="http://www.w3.org/1999/xlink" x="0px" y="0px" width="100px" height="100px" viewBox="0 0 100 100" enable-background="new 0 0 100 100" xml:space="preserve"><circle fill="#1c437a" cx="51" cy="52" r="41.5"/><linearGradient id="SVGID_1_" gradientUnits="userSpaceOnUse" x1="49.9995" y1="8.5" x2="49.9995" y2="91.5005"><stop  offset="0" style="stop-color:#1b6bd9"/><stop  offset="1" style="stop-color:#2257a5"/></linearGradient><circle fill="url(#SVGID_1_)" cx="50" cy="50" r="41.5"/><g> <polygon fill="#010101" points="50.201,44.588 50.193,44.595 50.193,44.588 "/> <polygon fill="#010101" points="50.201,44.588 50.193,44.595 50.193,44.588 "/> <path fill="#FFFFFF" d="M67.261,39.531h-6.965v-6.937c0-1.787-1.449-3.236-3.237-3.236h-14.19c-0.106-0.005-0.212-0.005-0.318,0 c-1.662,0.164-2.927,1.566-2.919,3.236v6.937h-6.936c-1.788,0-3.236,1.449-3.237,3.237v14.189c0,1.787,1.449,3.236,3.237,3.236 h6.936v6.967c0,1.787,1.449,3.236,3.237,3.236h14.19c1.788,0,3.237-1.449,3.237-3.236v-6.967h6.965c1.787,0,3.236-1.449,3.236-3.236 V42.768C70.497,40.98,69.048,39.531,67.261,39.531z M64.024,53.721h-6.966c-1.787,0-3.236,1.449-3.237,3.236v6.965h-7.716v-6.965 c0-1.787-1.449-3.236-3.237-3.236h-6.936v-7.716h6.936c1.788,0,3.237-1.449,3.237-3.237v-6.936h7.716v6.936 c0.001,1.788,1.45,3.237,3.237,3.237h6.966V53.721z"/> </g></svg>