<svg version="1.1" xmlns="http://www.w3.org/2000/svg" xmlns:xlink="http://www.w3.org/1999/xlink" x="0px" y="0px" width="100px" height="100px" viewBox="0 0 100 100" enable-background="new 0 0 100 100" xml:space="preserve"><circle fill="#1c437a" cx="51" cy="52" r="41.5"/><linearGradient id="SVGID_1_" gradientUnits="userSpaceOnUse" x1="49.9995" y1="8.5" x2="49.9995" y2="91.5005"><stop  offset="0" style="stop-color:#1b6bd9"/><stop  offset="1" style="stop-color:#2257a5"/></linearGradient><circle fill="url(#SVGID_1_)" cx="50" cy="50" r="41.5"/><g> <polygon fill="#010101" points="50.201,44.588 50.193,44.595 50.193,44.588 "/> <polygon fill="#010101" points="50.201,44.588 50.193,44.595 50.193,44.588 "/> <path fill="#FFFFFF" d="M58.246,23.923H42.16c-5.083,0-9.238,4.145-9.238,9.241v31.676c0,5.09,4.155,9.235,9.238,9.235h16.085 c5.096,0,9.235-4.146,9.235-9.235V33.165C67.48,28.068,63.342,23.923,58.246,23.923z M63.785,64.841c0,3.056-2.484,5.54-5.539,5.54 H42.16c-3.059,0-5.54-2.484-5.54-5.54v-5.179h27.166V64.841z M63.785,57.811H36.62V35.471h27.166V57.811z M63.785,33.627H36.62 v-0.462c0-3.058,2.481-5.543,5.54-5.543h16.085c3.055,0,5.54,2.484,5.54,5.543V33.627z"/> <path fill="#FFFFFF" d="M50.089,68.999c2.129,0,3.858-1.736,3.858-3.859c0-2.131-1.729-3.861-3.858-3.861 c-2.13,0-3.857,1.73-3.857,3.861C46.232,67.263,47.96,68.999,50.089,68.999z M50.089,63.123c1.109,0,2.012,0.906,2.012,2.016 c0,1.108-0.903,2.01-2.012,2.01c-1.109,0-2.01-0.901-2.01-2.01C48.08,64.029,48.98,63.123,50.089,63.123z"/> </g></svg>