<svg version="1.1" xmlns="http://www.w3.org/2000/svg" xmlns:xlink="http://www.w3.org/1999/xlink" x="0px" y="0px" width="100px" height="100px" viewBox="0 0 100 100" enable-background="new 0 0 100 100" xml:space="preserve"><circle fill="#1c437a" cx="51" cy="52" r="41.5"/><linearGradient id="SVGID_1_" gradientUnits="userSpaceOnUse" x1="49.9995" y1="8.5" x2="49.9995" y2="91.5005"><stop  offset="0" style="stop-color:#1b6bd9"/><stop  offset="1" style="stop-color:#2257a5"/></linearGradient><circle fill="url(#SVGID_1_)" cx="50" cy="50" r="41.5"/><g> <path fill="#FFFFFF" d="M44.282,36.662h11.621l1.063-1.516c0.867-1.308,1.823-2.561,2.65-3.895 c0.393-0.634,1.128-1.671,0.838-2.474c-0.207-0.574-0.736-0.769-1.303-0.869c-0.411-0.072-2.508-0.602-3.354-0.429 c-0.751,0.154-1.445,0.51-2.167,0.761c-1.015,0.353-2.138,0.649-3.252,0.588c-0.961-0.052-2.055-0.175-2.961-0.503 c-0.751-0.272-1.478-0.673-2.273-0.809c-0.687-0.118-3.188,0.229-3.691,0.315c-3.543,0.609-0.967,3.305,1.767,7.314L44.282,36.662z M69.884,57.915c-2.978-6.864-8.373-14.35-14.023-17.961H44.136c-5.65,3.612-11.043,11.097-14.021,17.961 c-2.986,6.88,0.596,13.641,7.422,13.641h24.927C69.289,71.556,72.871,64.795,69.884,57.915z M51.089,64.146v2.786H48.87V64.31 c-1.703-0.054-3.408-0.541-4.382-1.191l0.731-2.542c1.055,0.622,2.57,1.189,4.22,1.189c1.705,0,2.868-0.838,2.868-2.136 c0-1.218-0.947-2.003-2.949-2.732c-2.841-1.028-4.68-2.326-4.68-4.843c0-2.327,1.623-4.111,4.355-4.598v-2.651h2.218v2.516 c1.704,0.054,2.866,0.459,3.733,0.893l-0.73,2.488c-0.649-0.298-1.84-0.919-3.679-0.919c-1.894,0-2.57,0.974-2.57,1.894 c0,1.109,0.974,1.73,3.273,2.65c3.029,1.138,4.382,2.599,4.382,5.004C55.66,61.631,54.064,63.66,51.089,64.146z"/> </g></svg>