<svg version="1.1" xmlns="http://www.w3.org/2000/svg" xmlns:xlink="http://www.w3.org/1999/xlink" x="0px" y="0px" width="100px" height="100px" viewBox="0 0 100 100" enable-background="new 0 0 100 100" xml:space="preserve"><circle fill="#1c437a" cx="51" cy="52" r="41.5"/><linearGradient id="SVGID_1_" gradientUnits="userSpaceOnUse" x1="49.9995" y1="8.5" x2="49.9995" y2="91.5005"><stop  offset="0" style="stop-color:#1b6bd9"/><stop  offset="1" style="stop-color:#2257a5"/></linearGradient><circle fill="url(#SVGID_1_)" cx="50" cy="50" r="41.5"/><g> <path fill="#FFFFFF" d="M70.172,49.875c0-1.527-1.392-2.803-3.41-3.332V35.317c2.019-0.529,3.41-1.804,3.41-3.332 c0-2.015-2.421-3.594-5.513-3.594H35.341c-3.091,0-5.513,1.578-5.513,3.594c0,1.527,1.393,2.803,3.412,3.332v11.226 c-2.02,0.528-3.412,1.804-3.412,3.332c0,1.527,1.393,2.804,3.412,3.331v11.225c-2.02,0.529-3.412,1.805-3.412,3.333 c0,2.017,2.421,3.596,5.513,3.596h11.041c0.794,1.127,2.098,1.871,3.58,1.871c1.48,0,2.785-0.744,3.579-1.871h11.119 c3.092,0,5.513-1.579,5.513-3.596c0-1.527-1.392-2.803-3.41-3.333V53.206C68.78,52.678,70.172,51.402,70.172,49.875z M50.868,61.257 c-4.491,0-8.145-3.654-8.145-8.144c0-4.187,6.634-12.415,7.391-13.34c0.185-0.226,0.461-0.356,0.754-0.356 c0.292,0,0.568,0.131,0.753,0.356c0.756,0.925,7.391,9.153,7.391,13.34C59.012,57.603,55.357,61.257,50.868,61.257z"/> </g></svg>