<svg version="1.1" xmlns="http://www.w3.org/2000/svg" xmlns:xlink="http://www.w3.org/1999/xlink" x="0px" y="0px" width="100px" height="100px" viewBox="0 0 100 100" enable-background="new 0 0 100 100" xml:space="preserve"><circle fill="#1c437a" cx="51" cy="52" r="41.5"/><linearGradient id="SVGID_1_" gradientUnits="userSpaceOnUse" x1="49.9995" y1="8.5" x2="49.9995" y2="91.5005"><stop  offset="0" style="stop-color:#1b6bd9"/><stop  offset="1" style="stop-color:#2257a5"/></linearGradient><circle fill="url(#SVGID_1_)" cx="50" cy="50" r="41.5"/><g><path fill="#FFFFFF" d="M45.336,52.161c1.541,0,2.792-1.466,2.792-2.422c0-1.009-1.148-1.713-2.792-1.713s-2.792,0.704-2.792,1.713C42.545,50.695,43.795,52.161,45.336,52.161z"/><path fill="#FFFFFF" d="M38.068,47.13c0.25,0,0.483-0.033,0.691-0.099c1.102-0.346,1.491-1.432,1.803-2.303c0.157-0.438,0.319-0.89,0.529-1.139c0.164-0.194,0.333-0.37,0.495-0.537c0.627-0.652,1.338-1.391,1.163-2.617c-0.148-1.038-1.375-1.883-2.735-1.883c-0.876,0-2.579,0.353-4.13,2.713c-1.334,2.031-1.095,3.42-0.66,4.228C35.834,46.624,37.091,47.13,38.068,47.13z"/><path fill="#FFFFFF" d="M49.208,43.589c0.21,0.248,0.372,0.7,0.528,1.138c0.313,0.873,0.701,1.958,1.803,2.304c0.208,0.065,0.441,0.099,0.692,0.099c0.976,0,2.233-0.506,2.843-1.636c0.436-0.808,0.676-2.197-0.66-4.228c-1.551-2.36-3.253-2.713-4.13-2.713c-1.36,0-2.587,0.845-2.735,1.883c-0.175,1.226,0.536,1.965,1.163,2.616C48.874,43.22,49.043,43.395,49.208,43.589z"/><path fill="#FFFFFF" d="M62.626,34.24c1.012-2.34-0.056-5.25-2.557-6.705c-2.674-1.554-5.989-0.862-7.39,1.545c-0.329,0.564-0.546,1.242-0.662,1.964c-2.01-1.07-4.264-1.727-6.681-1.727c-2.376,0-4.595,0.635-6.578,1.672c-0.12-0.702-0.333-1.36-0.653-1.91c-1.4-2.408-4.716-3.1-7.39-1.545c-1.278,0.743-2.227,1.887-2.671,3.22c-0.458,1.373-0.331,2.782,0.358,3.967c0.695,1.195,1.999,2.19,3.451,2.704c-1.497,2.347-2.349,4.836-2.349,6.926c0,2.863,1.493,5.475,3.933,7.477c-0.479,1.548-1.544,5.865-0.235,10.347c1.586,5.427,4.549,8.255,4.675,8.373c0.164,0.153,0.381,0.239,0.606,0.239h3.84c0.337,0,0.646-0.191,0.795-0.494c0.085-0.174,1.946-3.985,2.146-7.54h1.708c0.108,1.552,0.497,4.863,1.889,7.555c0.152,0.294,0.456,0.479,0.787,0.479h5.257c0.218,0,0.428-0.08,0.59-0.225c0.198-0.177,3.164-2.867,5.52-7.405h0.607c0.122,1.588,0.604,4.955,2.522,7.304c0.167,0.207,0.42,0.326,0.686,0.326h4.845c0.25,0,0.487-0.105,0.655-0.291c0.249-0.273,6.085-6.809,5.842-16.095C75.949,45.812,69.637,36.595,62.626,34.24z M59.883,37.011c0.016,0.008,0.026,0.023,0.043,0.03c0,0,0.001,0,0.002,0l0,0c0.001,0.001,0.016,0.007,0.028,0.013c0.565,0.258,10.302,4.816,9.722,12.458c-0.491,6.482-4.471,8.95-7.017,9.733c0.64-1.928,1.104-4.053,1.225-6.37c0.474-9.227-2.449-11.833-3.548-12.481c-0.38-0.979-0.884-1.97-1.499-2.938C59.198,37.335,59.548,37.188,59.883,37.011zM31.278,44.353c0-5.237,6.298-13.262,14.059-13.262c7.762,0,14.06,8.024,14.06,13.262c0,2.244-1.143,4.306-3.039,5.942c-1.181,0.968-2.687,1.826-4.525,2.564c-1.945,0.694-4.152,1.094-6.495,1.094c-1.371,0-2.693-0.142-3.947-0.393c-0.157-0.031-0.313-0.063-0.469-0.1C35.328,52.192,31.278,48.592,31.278,44.353z"/></g></svg>