<svg version="1.1" xmlns="http://www.w3.org/2000/svg" xmlns:xlink="http://www.w3.org/1999/xlink" x="0px" y="0px" width="100px" height="100px" viewBox="0 0 100 100" enable-background="new 0 0 100 100" xml:space="preserve"><circle fill="#1c437a" cx="51" cy="52" r="41.5"/><linearGradient id="SVGID_1_" gradientUnits="userSpaceOnUse" x1="49.9995" y1="8.5" x2="49.9995" y2="91.5005"><stop  offset="0" style="stop-color:#1b6bd9"/><stop  offset="1" style="stop-color:#2257a5"/></linearGradient><circle fill="url(#SVGID_1_)" cx="50" cy="50" r="41.5"/><g> <path fill="#FFFFFF" d="M56.436,52.926c-0.745,0-1.35-0.604-1.35-1.352c0-3.611-2.937-6.547-6.548-6.547 c-0.746,0-1.351-0.604-1.351-1.351c0-0.745,0.604-1.351,1.351-1.351c5.098,0,9.248,4.15,9.248,9.249 C57.786,52.321,57.182,52.926,56.436,52.926z"/> <path fill="#FFFFFF" d="M63.836,53.036c-0.745,0-1.35-0.604-1.35-1.352c0-7.751-6.306-14.057-14.059-14.057 c-0.746,0-1.35-0.605-1.35-1.351c0-0.746,0.604-1.351,1.35-1.351c9.242,0,16.759,7.518,16.759,16.759 C65.188,52.431,64.582,53.036,63.836,53.036z"/> <path fill="#FFFFFF" d="M71.09,52.853c-0.746,0-1.351-0.604-1.351-1.351c0-11.65-9.479-21.128-21.128-21.128 c-0.746,0-1.351-0.603-1.351-1.35c0-0.747,0.604-1.351,1.351-1.351c13.138,0,23.829,10.69,23.829,23.828 C72.439,52.248,71.834,52.853,71.09,52.853z"/> <path fill="#FFFFFF" d="M58.494,72.077c-6.83,0-13.981-3.54-20.679-10.238c-10.293-10.295-12.99-21.461-7.398-30.637 c1.052-1.728,2.884-2.759,4.897-2.759c1.506,0,2.922,0.588,3.99,1.658l2.112,2.111c1.816,1.815,2.181,4.635,0.886,6.855 c-2.885,4.943-1.88,11.628,2.389,15.895c2.546,2.547,6.076,4.007,9.685,4.007c2.25,0,4.398-0.56,6.21-1.617 c0.865-0.505,1.853-0.771,2.855-0.771c1.511,0,2.934,0.589,4.002,1.656l2.112,2.112c1.234,1.233,1.823,2.938,1.614,4.67 c-0.209,1.755-1.2,3.294-2.718,4.218C65.356,71.121,62.007,72.077,58.494,72.077z"/> </g></svg>