<svg version="1.1" xmlns="http://www.w3.org/2000/svg" xmlns:xlink="http://www.w3.org/1999/xlink" x="0px" y="0px" width="100px" height="100px" viewBox="0 0 100 100" enable-background="new 0 0 100 100" xml:space="preserve"><circle fill="#1c437a" cx="51" cy="52" r="41.5"/><linearGradient id="SVGID_1_" gradientUnits="userSpaceOnUse" x1="49.9995" y1="8.5" x2="49.9995" y2="91.5005"><stop  offset="0" style="stop-color:#1b6bd9"/><stop  offset="1" style="stop-color:#2257a5"/></linearGradient><circle fill="url(#SVGID_1_)" cx="50" cy="50" r="41.5"/><g> <path fill="#FFFFFF" d="M63.8,68.076H36.202c-5.115,0-9.277-4.161-9.277-9.276V40.201c0-5.115,4.161-9.277,9.277-9.277H63.8 c5.114,0,9.276,4.161,9.276,9.277V58.8C73.076,63.915,68.914,68.076,63.8,68.076z M36.202,33.737c-3.564,0-6.464,2.9-6.464,6.464 v18.6c0,3.563,2.9,6.463,6.464,6.463H63.8c3.564,0,6.464-2.899,6.464-6.463v-18.6c0-3.564-2.899-6.464-6.464-6.464H36.202 L36.202,33.737z"/> <path fill="#FFFFFF" d="M56.375,56.349c-0.29,0-0.578-0.111-0.796-0.33L42.345,42.785l-12.736,8.137 c-0.525,0.336-1.219,0.182-1.554-0.342s-0.181-1.219,0.342-1.554l13.499-8.623c0.446-0.284,1.028-0.221,1.401,0.152l13.208,13.208 l7.853-5.461c0.424-0.293,0.992-0.263,1.383,0.076l5.999,5.249c0.467,0.41,0.515,1.121,0.105,1.588 c-0.408,0.469-1.119,0.516-1.588,0.105l-5.337-4.668l-7.903,5.496C56.823,56.283,56.599,56.349,56.375,56.349z"/> <path fill="#FFFFFF" d="M58.25,48.476c-3.101,0-5.625-2.524-5.625-5.625c0-3.101,2.524-5.624,5.625-5.624s5.624,2.523,5.624,5.624 C63.874,45.952,61.352,48.476,58.25,48.476z M58.25,39.476c-1.861,0-3.375,1.514-3.375,3.374c0,1.861,1.514,3.375,3.375,3.375 c1.86,0,3.374-1.514,3.374-3.375C61.624,40.99,60.11,39.476,58.25,39.476z"/> </g></svg>