<svg version="1.1" xmlns="http://www.w3.org/2000/svg" xmlns:xlink="http://www.w3.org/1999/xlink" x="0px" y="0px" width="100px" height="100px" viewBox="0 0 100 100" enable-background="new 0 0 100 100" xml:space="preserve"><circle fill="#1c437a" cx="51" cy="52" r="41.5"/><linearGradient id="SVGID_1_" gradientUnits="userSpaceOnUse" x1="49.9995" y1="8.5" x2="49.9995" y2="91.5005"><stop  offset="0" style="stop-color:#1b6bd9"/><stop  offset="1" style="stop-color:#2257a5"/></linearGradient><circle fill="url(#SVGID_1_)" cx="50" cy="50" r="41.5"/><g> <path fill="#FFFFFF" d="M74.628,39.639c-1.424,0-2.589,1.054-2.788,2.423l-13.538-1.967l-6.018-12.194 c0.979-0.445,1.665-1.427,1.665-2.572c0-1.563-1.267-2.829-2.829-2.829c-1.563,0-2.83,1.267-2.83,2.829 c0,1.07,0.601,1.99,1.477,2.47l-6.068,12.296l-13.539,1.967c-0.198-1.369-1.364-2.423-2.789-2.423c-1.562,0-2.828,1.266-2.828,2.828 c0,1.563,1.266,2.829,2.828,2.829c0.794,0,1.51-0.329,2.023-0.856l9.791,9.543l-2.321,13.533c-0.192-0.042-0.391-0.065-0.596-0.065 c-1.563,0-2.828,1.267-2.828,2.829c0,1.562,1.266,2.828,2.828,2.828s2.828-1.267,2.828-2.828c0-0.467-0.123-0.899-0.323-1.286 L51,62.566l12.11,6.366c-0.207,0.394-0.336,0.835-0.336,1.311c0,1.563,1.266,2.828,2.829,2.828c1.563,0,2.828-1.266,2.828-2.828 s-1.266-2.828-2.828-2.828c-0.164,0-0.322,0.021-0.478,0.048l-2.312-13.479l9.789-9.543c0.514,0.527,1.229,0.856,2.023,0.856 c1.563,0,2.829-1.267,2.829-2.829C77.458,40.905,76.191,39.639,74.628,39.639z"/> </g></svg>