<svg version="1.1" xmlns="http://www.w3.org/2000/svg" xmlns:xlink="http://www.w3.org/1999/xlink" x="0px" y="0px" width="100px" height="100px" viewBox="0 0 100 100" enable-background="new 0 0 100 100" xml:space="preserve"><circle fill="#1c437a" cx="51" cy="52" r="41.5"/><linearGradient id="SVGID_1_" gradientUnits="userSpaceOnUse" x1="49.9995" y1="8.5" x2="49.9995" y2="91.5005"><stop  offset="0" style="stop-color:#1b6bd9"/><stop  offset="1" style="stop-color:#2257a5"/></linearGradient><circle fill="url(#SVGID_1_)" cx="50" cy="50" r="41.5"/><g><path fill="#FFFFFF" d="M81.259,66.651h-2.745l-2.472-8.47c-1.47-5.042-4.468-9.373-8.669-12.523c-3.696-2.772-8.048-4.406-12.626-4.748v-7.387c0-1.006-0.818-1.824-1.824-1.824h-7.579c-1.006,0-1.824,0.818-1.824,1.824v0.907H18.741c-1.006,0-1.824,0.818-1.824,1.824c0,1.006,0.818,1.825,1.824,1.825H43.52v15.681H18.741c-1.006,0-1.824,0.818-1.824,1.824c0,1.007,0.818,1.825,1.824,1.825H43.52v0.906c0,1.006,0.818,1.824,1.824,1.824h7.58c1.006,0,1.824-0.818,1.824-1.824v-0.107c1.391,1.306,2.944,3.793,3.17,8.442H35.081c-1.006,0-1.824,0.818-1.824,1.824s0.818,1.824,1.824,1.824h46.178c1.006,0,1.824-0.818,1.824-1.824S82.265,66.651,81.259,66.651z M51.099,56.492h-3.931V35.348h3.931V56.492z M70.416,66.651c-0.031-3.653-1.611-7.315-4.586-10.597c-2.224-2.455-4.438-3.842-4.531-3.899c-0.625-0.388-1.443-0.195-1.83,0.429c-0.388,0.623-0.195,1.443,0.428,1.83c0.079,0.049,7.782,4.921,7.86,12.237h-6.188c-0.147-3.313-0.981-7.615-3.903-10.67c-1.042-1.089-2.102-1.757-2.918-2.157v-9.253c3.783,0.333,7.376,1.71,10.436,4.005c3.566,2.674,6.11,6.349,7.357,10.626l2.173,7.448H70.416z"/></g></svg>