<svg version="1.1" xmlns="http://www.w3.org/2000/svg" xmlns:xlink="http://www.w3.org/1999/xlink" x="0px" y="0px" width="100px" height="100px" viewBox="0 0 100 100" enable-background="new 0 0 100 100" xml:space="preserve"><circle fill="#1c437a" cx="51" cy="52" r="41.5"/><linearGradient id="SVGID_1_" gradientUnits="userSpaceOnUse" x1="49.9995" y1="8.5" x2="49.9995" y2="91.5005"><stop  offset="0" style="stop-color:#1b6bd9"/><stop  offset="1" style="stop-color:#2257a5"/></linearGradient><circle fill="url(#SVGID_1_)" cx="50" cy="50" r="41.5"/><g> <path fill="#FFFFFF" d="M50,74.446c-3.138,0-5.69-2.553-5.69-5.69c0-3.141,2.552-5.692,5.69-5.692c3.138,0,5.69,2.552,5.69,5.692 C55.69,71.891,53.139,74.446,50,74.446z"/> <path fill="#FFFFFF" d="M44.902,52.353c-2.614,0.617-5.125,1.711-7.368,3.294c-1.026,0.73-1.271,2.149-0.547,3.175 c0.727,1.03,2.146,1.276,3.174,0.55c1.517-1.071,3.19-1.856,4.935-2.369L44.902,52.353z"/> <path fill="#FFFFFF" d="M62.46,55.646c-2.211-1.561-4.685-2.644-7.259-3.266l-0.194,4.649c1.706,0.513,3.341,1.291,4.828,2.341 c0.4,0.282,0.857,0.418,1.313,0.418c0.714,0,1.419-0.335,1.862-0.968C63.729,57.794,63.486,56.373,62.46,55.646z"/> <path fill="#FFFFFF" d="M78.203,37.907c-6.61-4.676-14.137-7.59-22.037-8.591l-0.191,4.57c7.021,0.953,13.709,3.575,19.604,7.739 c0.398,0.282,0.855,0.416,1.31,0.416c0.715,0,1.417-0.335,1.865-0.963C79.474,40.053,79.233,38.631,78.203,37.907z"/> <path fill="#FFFFFF" d="M43.938,29.301C36,30.29,28.438,33.212,21.793,37.907c-1.026,0.724-1.269,2.146-0.544,3.171 c0.724,1.026,2.144,1.274,3.172,0.547c5.922-4.186,12.647-6.814,19.708-7.754L43.938,29.301z"/> <path fill="#FFFFFF" d="M44.417,40.748c-5.281,0.845-10.302,2.886-14.751,6.032c-1.028,0.725-1.271,2.146-0.544,3.172 c0.724,1.025,2.144,1.271,3.172,0.545c3.725-2.631,7.912-4.374,12.315-5.16L44.417,40.748z"/> <path fill="#FFFFFF" d="M70.335,46.78c-4.422-3.125-9.404-5.16-14.647-6.014l-0.192,4.588c4.367,0.794,8.518,2.53,12.213,5.143 c0.401,0.284,0.855,0.418,1.313,0.418c0.715,0,1.417-0.336,1.861-0.963C71.602,48.927,71.361,47.505,70.335,46.78z"/> <polygon fill="#FFFFFF" points="52.504,58.715 53.892,25.554 46.214,25.554 47.602,58.715 "/> </g></svg>