<svg version="1.1" xmlns="http://www.w3.org/2000/svg" xmlns:xlink="http://www.w3.org/1999/xlink" x="0px" y="0px" width="100px" height="100px" viewBox="0 0 100 100" enable-background="new 0 0 100 100" xml:space="preserve"><circle fill="#1c437a" cx="51" cy="52" r="41.5"/><linearGradient id="SVGID_1_" gradientUnits="userSpaceOnUse" x1="49.9995" y1="8.5" x2="49.9995" y2="91.5005"><stop  offset="0" style="stop-color:#1b6bd9"/><stop  offset="1" style="stop-color:#2257a5"/></linearGradient><circle fill="url(#SVGID_1_)" cx="50" cy="50" r="41.5"/><g> <path fill="#FFFFFF" d="M47.097,23.701c-1.198-0.004-2.175-0.981-2.177-2.177c0.002-1.213,0.979-2.19,2.177-2.177 c1.211-0.013,2.187,0.964,2.177,2.177C49.284,22.72,48.307,23.696,47.097,23.701L47.097,23.701z"/> <path fill="#FFFFFF" d="M52.903,23.701c1.2-0.004,2.178-0.981,2.178-2.177c0-1.213-0.978-2.19-2.178-2.177 c-1.209-0.013-2.186,0.964-2.178,2.177C50.718,22.72,51.694,23.696,52.903,23.701L52.903,23.701z"/> <path fill="#FFFFFF" d="M61.548,67.748c3.021-0.503,6.032-3.657,6.026-7.508V32.125c0.007-3.964-3.332-7.608-7.857-7.604h-9.686 h-9.718c-4.551-0.004-7.892,3.64-7.887,7.604V60.24c-0.004,3.851,3.008,7.007,6.026,7.508l-9.055,13.6h5.236l6.468-9.529H50h8.898 l6.497,9.529h5.208L61.548,67.748z M44.888,27.426c0.001-0.705,0.601-1.285,1.293-1.295H50h3.819 c0.692,0.01,1.294,0.59,1.294,1.295v2.207c0,0.702-0.567,1.297-1.294,1.294H50h-3.818c-0.723,0.003-1.291-0.592-1.292-1.294 L44.888,27.426L44.888,27.426z M40.124,63.646c-1.896-0.015-3.442-1.561-3.438-3.471c-0.004-1.904,1.542-3.449,3.438-3.439 c1.917-0.01,3.462,1.535,3.471,3.439C43.586,62.086,42.04,63.632,40.124,63.646z M40.566,45.378 c-2.175-0.013-3.949-1.501-3.945-3.945v-5.047c0.015-2.105,1.376-3.941,3.945-3.945H50h9.434c2.572,0.004,3.934,1.839,3.944,3.945 v5.047c0.006,2.444-1.767,3.933-3.944,3.945H50H40.566z M56.343,60.177c-0.006-1.905,1.538-3.448,3.438-3.438 c1.917-0.012,3.463,1.533,3.473,3.438c-0.01,1.909-1.556,3.455-3.473,3.471C57.881,63.632,56.337,62.086,56.343,60.177z"/> </g></svg>