<svg version="1.1" xmlns="http://www.w3.org/2000/svg" xmlns:xlink="http://www.w3.org/1999/xlink" x="0px" y="0px" width="100px" height="100px" viewBox="0 0 100 100" enable-background="new 0 0 100 100" xml:space="preserve"><circle fill="#1c437a" cx="51" cy="52" r="41.5"/><linearGradient id="SVGID_1_" gradientUnits="userSpaceOnUse" x1="49.9995" y1="8.5" x2="49.9995" y2="91.5005"><stop  offset="0" style="stop-color:#1b6bd9"/><stop  offset="1" style="stop-color:#2257a5"/></linearGradient><circle fill="url(#SVGID_1_)" cx="50" cy="50" r="41.5"/><path fill="#FFFFFF" d="M87.233,52.313c-3.695,0-5.666,1.511-7.25,2.727c-1.405,1.076-2.516,1.927-4.893,1.927c-0.896,0-1.612-0.121-2.232-0.328c-0.005-0.033-0.004-0.067-0.012-0.102c-6.64-29.193-41.332-27.249-41.682-27.224c-0.815,0.053-1.509,0.613-1.736,1.396c-0.225,0.785,0.064,1.629,0.727,2.107c11.729,8.495,8.737,17.295,7.702,19.539c-3.168,0.205-4.977,1.563-6.438,2.685c-1.404,1.076-2.513,1.927-4.889,1.927c-2.377,0-3.485-0.851-4.89-1.927c-1.584-1.216-3.557-2.727-7.25-2.727c-1.071,0-1.939,0.868-1.939,1.938s0.868,1.938,1.939,1.938c2.378,0,3.486,0.851,4.89,1.928c1.584,1.215,3.557,2.727,7.249,2.727s5.664-1.512,7.248-2.727c1.404-1.077,2.512-1.928,4.889-1.928c2.377,0,3.487,0.851,4.89,1.928c1.585,1.215,3.559,2.727,7.251,2.727c3.691,0,5.665-1.512,7.25-2.727c1.402-1.077,2.513-1.928,4.89-1.928c2.378,0,3.488,0.851,4.893,1.928c1.584,1.215,3.558,2.727,7.251,2.727c3.692,0,5.664-1.512,7.249-2.727c1.405-1.077,2.515-1.928,4.893-1.928c1.072,0,1.938-0.868,1.938-1.938S88.305,52.313,87.233,52.313z M62.948,52.313c-3.692,0-5.664,1.511-7.248,2.727c-1.405,1.076-2.515,1.927-4.893,1.927c-2.377,0-3.487-0.851-4.891-1.927c-1.055-0.809-2.295-1.738-4.085-2.277c1.266-3.668,2.601-11.601-5.199-19.509c8.619,0.593,25.384,3.909,31.289,20.256C66.675,52.835,65.11,52.313,62.948,52.313z"/><g><path fill="#FFFFFF" d="M63.516,74.2c-2.407,0-3.703-1.325-4.561-2.202C58.213,71.24,57.944,71,57.253,71c-0.688,0-0.956,0.24-1.697,0.998c-0.858,0.877-2.153,2.202-4.56,2.202c-2.407,0-3.702-1.325-4.561-2.202C45.693,71.24,45.427,71,44.736,71c-0.689,0-0.957,0.24-1.699,0.998c-0.857,0.877-2.152,2.202-4.559,2.202c-2.405,0-3.701-1.325-4.559-2.202C33.179,71.24,32.912,71,32.223,71c-1.105,0-2-0.895-2-2s0.895-2,2-2c2.406,0,3.701,1.324,4.558,2.201c0.741,0.759,1.009,0.999,1.698,0.999s0.957-0.24,1.699-0.999C41.035,68.324,42.33,67,44.736,67s3.701,1.324,4.559,2.201c0.742,0.759,1.01,0.999,1.701,0.999c0.689,0,0.957-0.24,1.699-0.999C53.553,68.324,54.848,67,57.253,67c2.407,0,3.703,1.324,4.562,2.201c0.742,0.759,1.01,0.999,1.701,0.999c0.69,0,0.958-0.24,1.701-0.999C66.074,68.324,67.369,67,69.777,67c1.104,0,2,0.895,2,2s-0.896,2-2,2c-0.691,0-0.959,0.24-1.702,0.999C67.218,72.875,65.922,74.2,63.516,74.2z"/></g></svg>