<svg version="1.1" xmlns="http://www.w3.org/2000/svg" xmlns:xlink="http://www.w3.org/1999/xlink" x="0px" y="0px" width="100px" height="100px" viewBox="0 0 100 100" enable-background="new 0 0 100 100" xml:space="preserve"><circle fill="#1c437a" cx="51" cy="52" r="41.5"/><linearGradient id="SVGID_1_" gradientUnits="userSpaceOnUse" x1="49.9995" y1="8.5" x2="49.9995" y2="91.5005"><stop  offset="0" style="stop-color:#1b6bd9"/><stop  offset="1" style="stop-color:#2257a5"/></linearGradient><circle fill="url(#SVGID_1_)" cx="50" cy="50" r="41.5"/><g> <rect x="-59.3" y="49.005" fill="#010101" width="0.244" height="0.221"/> <polygon fill="#010101" points="-53.738,52.108 -53.746,52.115 -53.746,52.108 "/> <polygon fill="#010101" points="-53.738,52.108 -53.746,52.115 -53.746,52.108 "/> <path fill="#FFFFFF" d="M50.002,27.88c-1.018,0-1.84,0.823-1.84,1.841v3.437l-3.22-3.514c-0.687-0.749-1.852-0.8-2.604-0.114 c-0.749,0.687-0.798,1.852-0.112,2.601l5.936,6.479v7.703l-6.67-3.85l-2.644-8.384c-0.306-0.968-1.346-1.505-2.313-1.202 c-0.966,0.307-1.506,1.342-1.2,2.311l1.435,4.55l-2.981-1.721c-0.88-0.51-2.006-0.206-2.513,0.674 c-0.512,0.88-0.209,2.006,0.672,2.515l2.982,1.721l-4.658,1.031c-0.996,0.219-1.622,1.202-1.402,2.194 c0.191,0.859,0.954,1.443,1.799,1.443c0.128,0,0.265-0.015,0.397-0.042l8.586-1.9L46.32,49.5l-6.67,3.851l-8.583-1.902 c-1.007-0.218-1.978,0.408-2.196,1.398c-0.219,0.992,0.406,1.976,1.399,2.197l4.658,1.031l-2.979,1.72 c-0.88,0.508-1.182,1.633-0.672,2.516c0.341,0.588,0.959,0.92,1.597,0.92c0.313,0,0.629-0.079,0.917-0.247l2.982-1.721l-1.436,4.552 c-0.306,0.969,0.234,2.004,1.2,2.312c0.184,0.057,0.37,0.084,0.554,0.084c0.784,0,1.51-0.5,1.758-1.286l2.644-8.386l6.669-3.85 v7.697l-5.939,6.483c-0.687,0.749-0.635,1.915,0.112,2.602c0.357,0.324,0.803,0.484,1.245,0.484c0.501,0,0.996-0.201,1.359-0.599 l3.224-3.519v3.44c0,1.019,0.822,1.842,1.84,1.842c1.016,0,1.841-0.823,1.841-1.842v-3.441l3.226,3.521 c0.361,0.396,0.856,0.597,1.354,0.597c0.445,0,0.891-0.16,1.245-0.482c0.752-0.687,0.802-1.852,0.115-2.602l-5.94-6.485v-7.696 l6.668,3.851l2.64,8.384c0.249,0.786,0.974,1.286,1.754,1.286c0.185,0,0.373-0.025,0.554-0.084c0.971-0.306,1.511-1.341,1.205-2.312 l-1.434-4.551l2.98,1.72c0.287,0.168,0.603,0.247,0.916,0.247c0.638,0,1.256-0.329,1.597-0.92c0.512-0.881,0.21-2.008-0.672-2.516 l-2.979-1.72l4.658-1.031c0.992-0.222,1.618-1.203,1.398-2.197c-0.219-0.99-1.193-1.618-2.195-1.398l-8.583,1.901L53.684,49.5 l6.667-3.849l8.583,1.9c0.132,0.024,0.267,0.042,0.399,0.042c0.845,0,1.603-0.585,1.793-1.443c0.219-0.992-0.408-1.974-1.4-2.194 l-4.654-1.031l2.981-1.721c0.881-0.509,1.183-1.633,0.673-2.515s-1.635-1.182-2.513-0.674l-2.98,1.72l1.434-4.549 c0.306-0.97-0.233-2.004-1.204-2.31c-0.967-0.304-2.003,0.233-2.309,1.202l-2.64,8.383l-6.67,3.85v-7.7l5.938-6.481 c0.687-0.75,0.636-1.915-0.115-2.602c-0.751-0.687-1.913-0.633-2.6,0.114l-3.224,3.519v-3.44 C51.844,28.703,51.021,27.88,50.002,27.88z"/> </g></svg>