<svg version="1.1" xmlns="http://www.w3.org/2000/svg" xmlns:xlink="http://www.w3.org/1999/xlink" x="0px" y="0px" width="100px" height="100px" viewBox="0 0 100 100" enable-background="new 0 0 100 100" xml:space="preserve"><circle fill="#1c437a" cx="51" cy="52" r="41.5"/><linearGradient id="SVGID_1_" gradientUnits="userSpaceOnUse" x1="49.9995" y1="8.5" x2="49.9995" y2="91.5005"><stop  offset="0" style="stop-color:#1b6bd9"/><stop  offset="1" style="stop-color:#2257a5"/></linearGradient><circle fill="url(#SVGID_1_)" cx="50" cy="50" r="41.5"/><g> <path fill="none" d="M63.215,36.777c-1.128,0.185-1.364,4.603-0.538,9.848c0.844,5.26,2.429,9.393,3.558,9.208 c1.13-0.186,1.366-4.587,0.541-9.848C65.947,40.723,64.346,36.608,63.215,36.777z"/> <path fill="#FFFFFF" d="M75.226,44.4c-1.722-10.877-6.545-19.173-10.741-18.498c-1.857,0.285-3.29,2.258-4.168,5.294 c-1.82,1.618-4.603,3.304-7.771,4.906l1.734,3.541l5.396-2.647c-0.152,0.743-0.27,1.585-0.337,2.498 c0.017,2.309,0.219,4.771,0.623,7.317c0.439,2.799,1.08,5.43,1.873,7.757c0.271,0.556,0.558,1.046,0.859,1.467l-7.282-0.69 l-0.304,3.236c3.658,0.423,7.046,1.18,9.661,2.429c1.854,2.968,3.964,4.64,5.95,4.317C74.922,64.669,76.944,55.293,75.226,44.4z M66.234,55.832c-1.129,0.186-2.714-3.947-3.558-9.208c-0.826-5.245-0.59-9.663,0.538-9.848c1.131-0.168,2.732,3.946,3.561,9.208 C67.601,51.245,67.364,55.646,66.234,55.832z"/> <path fill="#FFFFFF" d="M51.16,36.778l-1.552,0.742c-7.874,3.642-16.913,6.661-19.426,7.504c-0.033,0.017-0.05,0.017-0.084,0.017 c-3.473,0.54-5.936,3.524-5.936,6.93c0,0.354,0.034,0.726,0.084,1.097c0.608,3.777,4.131,6.39,7.925,5.851l1.603,9.26 c0.286,0.808,1.028,1.938,2.714,1.651l3.339-0.287c1.686-0.304,1.939-1.029,1.653-2.716l-1.4-8.582 c3.996-0.188,8.853-0.256,13.457,0.167c0.521,0.051,1.063,0.103,1.567,0.169l0.304-3.236l-1.567-0.152L43.47,54.213 c0,0,0,0-0.018,0.001c-1.096,0.085-2.176-0.54-2.9-1.584c-0.438-0.625-0.758-1.4-0.894-2.261c-0.05-0.303-0.066-0.588-0.066-0.875 c0-0.456,0.05-0.894,0.167-1.299c0.355-1.399,1.282-2.445,2.497-2.648l9.106-4.47l2.917-1.433l-1.736-3.541 C52.088,36.323,51.631,36.56,51.16,36.778z"/> </g></svg>