<svg version="1.1" xmlns="http://www.w3.org/2000/svg" xmlns:xlink="http://www.w3.org/1999/xlink" x="0px" y="0px" width="100px" height="100px" viewBox="0 0 100 100" enable-background="new 0 0 100 100" xml:space="preserve"><circle fill="#1c437a" cx="51" cy="52" r="41.5"/><linearGradient id="SVGID_1_" gradientUnits="userSpaceOnUse" x1="49.9995" y1="8.5" x2="49.9995" y2="91.5005"><stop  offset="0" style="stop-color:#1b6bd9"/><stop  offset="1" style="stop-color:#2257a5"/></linearGradient><circle fill="url(#SVGID_1_)" cx="50" cy="50" r="41.5"/><g> <rect x="-59.3" y="49.005" fill="#010101" width="0.244" height="0.221"/> <polygon fill="#010101" points="-53.738,52.108 -53.746,52.115 -53.746,52.108 "/> <polygon fill="#010101" points="-53.738,52.108 -53.746,52.115 -53.746,52.108 "/> <path fill="#FFFFFF" d="M30.22,30.306c-5.224,5.291-8.104,12.257-8.104,19.691s2.88,14.4,8.171,19.691 c5.425,5.426,12.525,8.104,19.691,8.104c7.167,0,14.266-2.679,19.69-8.104c5.225-5.225,8.171-12.257,8.171-19.691 s-2.879-14.4-8.171-19.691C58.753,19.456,41.07,19.456,30.22,30.306z M58.149,38.879c-2.88-3.483-4.42-7.904-4.487-12.391 c4.152,0.67,8.171,2.411,11.587,5.292L58.149,38.879z M55.337,41.759l-5.425,5.425L34.574,31.846 c4.354-3.684,9.711-5.559,15.07-5.626C49.644,31.913,51.653,37.405,55.337,41.759z M47.099,49.997l-5.425,5.425 c-4.354-3.684-9.846-5.693-15.539-5.626c0.067-5.559,2.009-10.85,5.626-15.069L47.099,49.997z M41.673,61.114 c2.88,3.483,4.42,7.838,4.487,12.392c-4.152-0.671-8.171-2.411-11.587-5.292L41.673,61.114z M44.486,58.234l5.425-5.425 l15.337,15.338c-4.354,3.684-9.711,5.56-15.07,5.626C50.179,68.08,48.17,62.589,44.486,58.234z M52.724,49.997l5.358-5.358 c4.354,3.684,9.778,5.626,15.405,5.626c0.067,0,0.067,0,0.134,0c-0.066,5.559-2.01,10.85-5.626,15.07L52.724,49.997z M61.029,41.759l7.1-7.1c2.813,3.349,4.621,7.3,5.291,11.587C68.866,46.179,64.512,44.639,61.029,41.759z M26.402,53.748 c4.555,0.066,8.908,1.607,12.391,4.486l-7.033,7.101C28.881,61.986,27.073,58.033,26.402,53.748z"/> </g></svg>