<svg version="1.1" xmlns="http://www.w3.org/2000/svg" xmlns:xlink="http://www.w3.org/1999/xlink" x="0px" y="0px" width="100px" height="100px" viewBox="0 0 100 100" enable-background="new 0 0 100 100" xml:space="preserve"><circle fill="#1c437a" cx="51" cy="52" r="41.5"/><linearGradient id="SVGID_1_" gradientUnits="userSpaceOnUse" x1="49.9995" y1="8.5" x2="49.9995" y2="91.5005"><stop  offset="0" style="stop-color:#1b6bd9"/><stop  offset="1" style="stop-color:#2257a5"/></linearGradient><circle fill="url(#SVGID_1_)" cx="50" cy="50" r="41.5"/><g><path fill="#FFFFFF" d="M21.286,27.291l8.11,15.264c0.309,0.582,0.868,0.99,1.517,1.103c0.648,0.113,1.314-0.074,1.802-0.512l4.256-3.818l9.674,8.675c0.505,0.452,1.189,0.645,1.863,0.502l9.6-1.98l11.045,22.295l-3.084-1.063c-1.12-0.383-2.338,0.209-2.723,1.325c0.386,1.119,0.209,2.337,1.325,2.724l8.019,2.766c0.002,0.001,0.004,0.001,0.006,0.001c0.074,0.026,0.148,0.038,0.223,0.056c0.063,0.014,0.121,0.032,0.182,0.041c0.039,0.006,0.08,0.002,0.119,0.006c0.098,0.008,0.192,0.015,0.289,0.01c0.041-0.002,0.08-0.012,0.119-0.018c0.096-0.01,0.191-0.021,0.283-0.045c0.043-0.011,0.085-0.029,0.128-0.043c0.091-0.029,0.179-0.058,0.263-0.099c0.014-0.007,0.025-0.009,0.037-0.015c0.037-0.018,0.066-0.041,0.098-0.062c0.074-0.042,0.151-0.085,0.219-0.136c0.051-0.037,0.097-0.077,0.142-0.118c0.054-0.046,0.106-0.097,0.157-0.149c0.048-0.052,0.091-0.104,0.132-0.158c0.039-0.053,0.076-0.104,0.11-0.16c0.041-0.063,0.074-0.131,0.107-0.198c0.018-0.032,0.039-0.06,0.053-0.095l3.086-7.185c0.469-1.086-0.033-2.345-1.121-2.812c-0.275-0.118-0.563-0.174-0.844-0.174c-0.832,0-1.619,0.484-1.969,1.295l-1.258,2.93L61.211,43.141c-0.432-0.873-1.4-1.344-2.354-1.146l-10.159,2.099l-10.299-9.234c-0.811-0.729-2.045-0.729-2.856,0l-3.648,3.271l-6.488-12.41"/></g></svg>