<svg version="1.1" xmlns="http://www.w3.org/2000/svg" xmlns:xlink="http://www.w3.org/1999/xlink" x="0px" y="0px" width="100px" height="100px" viewBox="0 0 100 100" enable-background="new 0 0 100 100" xml:space="preserve"><circle fill="#1c437a" cx="51" cy="52" r="41.5"/><linearGradient id="SVGID_1_" gradientUnits="userSpaceOnUse" x1="49.9995" y1="8.5" x2="49.9995" y2="91.5005"><stop  offset="0" style="stop-color:#1b6bd9"/><stop  offset="1" style="stop-color:#2257a5"/></linearGradient><circle fill="url(#SVGID_1_)" cx="50" cy="50" r="41.5"/><g> <path fill="#FFFFFF" d="M25.407,73.686l6.488-12.41l3.648,3.271c0.811,0.729,2.045,0.729,2.856,0l10.299-9.234l10.16,2.098 c0.952,0.199,1.921-0.273,2.353-1.146l12.039-24.302l1.258,2.929c0.349,0.811,1.137,1.296,1.969,1.296 c0.281,0,0.568-0.056,0.843-0.174c1.088-0.467,1.59-1.726,1.122-2.812l-3.086-7.185c-0.014-0.034-0.035-0.062-0.053-0.094 c-0.033-0.068-0.067-0.135-0.107-0.199c-0.035-0.056-0.072-0.107-0.111-0.159c-0.041-0.054-0.084-0.107-0.132-0.159 c-0.05-0.053-0.103-0.103-0.157-0.149c-0.045-0.041-0.091-0.081-0.141-0.119c-0.068-0.05-0.145-0.093-0.219-0.135 c-0.032-0.02-0.061-0.044-0.098-0.062c-0.012-0.005-0.023-0.008-0.037-0.014c-0.084-0.041-0.172-0.07-0.263-0.099 c-0.043-0.014-0.085-0.032-0.128-0.043c-0.092-0.024-0.188-0.035-0.283-0.045c-0.039-0.005-0.078-0.015-0.119-0.018 c-0.097-0.004-0.191,0.003-0.289,0.011c-0.039,0.003-0.08,0-0.119,0.005c-0.061,0.009-0.119,0.028-0.182,0.042 c-0.074,0.017-0.148,0.029-0.222,0.055c-0.003,0-0.004,0-0.007,0.001l-8.018,2.766c-1.117,0.386-1.711,1.604-1.326,2.723 c0.386,1.117,1.603,1.708,2.724,1.326l3.083-1.063L58.107,52.883l-9.599-1.98c-0.674-0.143-1.358,0.049-1.863,0.502l-9.674,8.674 l-4.256-3.818c-0.488-0.438-1.154-0.625-1.802-0.512c-0.649,0.113-1.208,0.52-1.517,1.102l-8.11,15.264"/> </g></svg>