<svg version="1.1" xmlns="http://www.w3.org/2000/svg" xmlns:xlink="http://www.w3.org/1999/xlink" x="0px" y="0px" width="100px" height="100px" viewBox="0 0 100 100" enable-background="new 0 0 100 100" xml:space="preserve"><circle fill="#1c437a" cx="51" cy="52" r="41.5"/><linearGradient id="SVGID_1_" gradientUnits="userSpaceOnUse" x1="49.9995" y1="8.5" x2="49.9995" y2="91.5005"><stop  offset="0" style="stop-color:#1b6bd9"/><stop  offset="1" style="stop-color:#2257a5"/></linearGradient><circle fill="url(#SVGID_1_)" cx="50" cy="50" r="41.5"/><g> <path fill="#FFFFFF" d="M50,22.199c-15.286,0-27.676,12.39-27.676,27.676c0,15.285,12.391,27.677,27.676,27.677 c15.285,0,27.677-12.392,27.677-27.677C77.677,34.588,65.285,22.199,50,22.199z M68.182,53.154c0,1.055-0.855,1.91-1.91,1.91 H33.458c-1.055,0-1.909-0.855-1.909-1.91v-7.136c0-1.056,0.854-1.91,1.909-1.91h32.814c1.055,0,1.91,0.854,1.91,1.91V53.154z"/> </g></svg>