<svg version="1.1" xmlns="http://www.w3.org/2000/svg" xmlns:xlink="http://www.w3.org/1999/xlink" x="0px" y="0px" width="100px" height="100px" viewBox="0 0 100 100" enable-background="new 0 0 100 100" xml:space="preserve"><circle fill="#1c437a" cx="51" cy="52" r="41.5"/><linearGradient id="SVGID_1_" gradientUnits="userSpaceOnUse" x1="49.9995" y1="8.5" x2="49.9995" y2="91.5005"><stop  offset="0" style="stop-color:#1b6bd9"/><stop  offset="1" style="stop-color:#2257a5"/></linearGradient><circle fill="url(#SVGID_1_)" cx="50" cy="50" r="41.5"/><g><path fill="#FFFFFF" d="M49.938,62.925c-7.104,0-12.863-5.76-12.863-12.862c0-7.104,5.759-12.864,12.863-12.864c7.104,0,12.863,5.759,12.863,12.864C62.801,57.165,57.041,62.925,49.938,62.925L49.938,62.925z M38.572,64.857c2.269-2.27-1.161-5.698-3.429-3.431l-6.564,6.565c-2.269,2.269,1.161,5.697,3.429,3.43L38.572,64.857L38.572,64.857zM64.732,38.697l6.564-6.564c2.268-2.269-1.161-5.697-3.43-3.429l-6.565,6.565C59.034,37.536,62.463,40.966,64.732,38.697L64.732,38.697z M31.44,52.486h-9.285c-3.208,0-3.208-4.849,0-4.849h9.285C34.648,47.638,34.648,52.486,31.44,52.486L31.44,52.486zM68.436,52.486h9.284c3.207,0,3.206-4.849,0-4.849h-9.284C65.227,47.638,65.227,52.486,68.436,52.486L68.436,52.486zM35.143,38.697c2.268,2.269,5.698-1.161,3.429-3.429l-6.564-6.565c-2.269-2.268-5.698,1.161-3.429,3.429L35.143,38.697L35.143,38.697z M61.302,64.857l6.565,6.564c2.269,2.268,5.696-1.161,3.43-3.43l-6.564-6.565C62.463,59.158,59.034,62.588,61.302,64.857L61.302,64.857z M47.513,31.565V22.28c0-3.208,4.85-3.208,4.85,0v9.285C52.362,34.772,47.513,34.772,47.513,31.565L47.513,31.565z M47.513,68.56v9.285c0,3.207,4.85,3.206,4.85,0V68.56C52.362,65.352,47.513,65.352,47.513,68.56L47.513,68.56z M49.938,58.812c4.831,0,8.749-3.918,8.749-8.749c0-4.833-3.918-8.749-8.749-8.749c-4.832,0-8.749,3.917-8.749,8.749C41.189,54.894,45.105,58.812,49.938,58.812z"/></g></svg>