<svg version="1.1" xmlns="http://www.w3.org/2000/svg" xmlns:xlink="http://www.w3.org/1999/xlink" x="0px" y="0px" width="100px" height="100px" viewBox="0 0 100 100" enable-background="new 0 0 100 100" xml:space="preserve"><circle fill="#1c437a" cx="51" cy="52" r="41.5"/><linearGradient id="SVGID_1_" gradientUnits="userSpaceOnUse" x1="49.9995" y1="8.5" x2="49.9995" y2="91.5005"><stop  offset="0" style="stop-color:#1b6bd9"/><stop  offset="1" style="stop-color:#2257a5"/></linearGradient><circle fill="url(#SVGID_1_)" cx="50" cy="50" r="41.5"/><g> <path fill="#FFFFFF" d="M61.263,32.634c-0.902,0-1.799,0.099-2.677,0.294c-2.907-4.972-8.162-8.011-13.991-8.011 c-8.943,0-16.219,7.274-16.219,16.218c0,8.942,7.275,16.218,16.219,16.218h1.57c0.123-1.066,0.136-2.044-0.034-2.967h-1.537 c-7.308,0-13.251-5.945-13.251-13.251c0-7.307,5.944-13.252,13.252-13.252c5.103,0,9.666,2.851,11.91,7.44l0.569,1.165 l1.229-0.408c0.957-0.317,1.953-0.478,2.959-0.478c5.18,0,9.393,4.213,9.393,9.392s-4.213,9.393-9.393,9.393h-0.489 c-0.224,0.944-0.552,1.957-1.037,2.967h1.526c6.815-0.001,12.36-5.545,12.36-12.36C73.623,38.179,68.078,32.634,61.263,32.634z"/> <path fill="#FFFFFF" d="M45.056,49.77h14.812c0,0,0.554,6.17-3.584,10.146c-3.751,3.605-5.68,8.446-4.373,15.542 c-5.429-2.927-6.473-6.411-5.914-9.939C47.088,58.658,49.405,54.119,45.056,49.77z"/> </g></svg>