<svg version="1.1" xmlns="http://www.w3.org/2000/svg" xmlns:xlink="http://www.w3.org/1999/xlink" x="0px" y="0px" width="100px" height="100px" viewBox="0 0 100 100" enable-background="new 0 0 100 100" xml:space="preserve"><circle fill="#1c437a" cx="51" cy="52" r="41.5"/><linearGradient id="SVGID_1_" gradientUnits="userSpaceOnUse" x1="49.9995" y1="8.5" x2="49.9995" y2="91.5005"><stop  offset="0" style="stop-color:#1b6bd9"/><stop  offset="1" style="stop-color:#2257a5"/></linearGradient><circle fill="url(#SVGID_1_)" cx="50" cy="50" r="41.5"/><g> <path fill="#FFFFFF" d="M63.028,36.273l3.655-4.094v-1.496v-1.497v-2.992c0-0.826-0.959-1.362-1.785-1.362h-4.487 c-0.826,0-1.831,0.536-1.831,1.362v2.928h-4.29v-2.928c0-0.826-0.532-1.362-1.358-1.362h-5.983c-0.826,0-1.238,0.536-1.238,1.362 v2.928h-4.767v-2.928c0-0.826-0.648-1.362-1.474-1.362h-4.488c-0.826,0-1.666,0.536-1.666,1.362v2.992v1.496v1.496l3.535,4.094 H63.028z"/> <path fill="#FFFFFF" d="M31.99,63.92c-0.825,0-1.533,0.34-1.533,1.167v5.982c0,0.826,0.708,1.431,1.533,1.431h35.899 c0.827,0,1.655-0.604,1.655-1.431v-5.982c0-0.827-0.828-1.167-1.654-1.167H31.99z"/> <path fill="#FFFFFF" d="M61.906,38.656H37.974L35.158,62.49h29.564L61.906,38.656z M52.86,51.526h-5.72v-4.39 c0-1.542,1.318-2.991,2.86-2.991s2.86,1.45,2.86,2.991V51.526z"/> </g></svg>