<svg version="1.1" xmlns="http://www.w3.org/2000/svg" xmlns:xlink="http://www.w3.org/1999/xlink" x="0px" y="0px" width="100px" height="100px" viewBox="0 0 100 100" enable-background="new 0 0 100 100" xml:space="preserve"><circle fill="#1c437a" cx="51" cy="52" r="41.5"/><linearGradient id="SVGID_1_" gradientUnits="userSpaceOnUse" x1="49.9995" y1="8.5" x2="49.9995" y2="91.5005"><stop  offset="0" style="stop-color:#1b6bd9"/><stop  offset="1" style="stop-color:#2257a5"/></linearGradient><circle fill="url(#SVGID_1_)" cx="50" cy="50" r="41.5"/><g> <rect x="-59.3" y="49.005" fill="#010101" width="0.244" height="0.221"/> <polygon fill="#010101" points="-53.738,52.108 -53.746,52.115 -53.746,52.108 "/> <polygon fill="#010101" points="-53.738,52.108 -53.746,52.115 -53.746,52.108 "/> <path fill="#FFFFFF" d="M74.018,62.945c-1.054,0-2.107,0.425-3.223,0.875c-1.221,0.492-2.483,1.002-3.876,1.002 c-1.395,0-2.655-0.51-3.878-1.002c-1.114-0.45-2.168-0.875-3.221-0.875c-1.056,0-2.107,0.425-3.223,0.875 c-1.222,0.492-2.483,1.002-3.878,1.002c-1.392,0-2.656-0.51-3.876-1.002c-1.115-0.45-2.168-0.875-3.222-0.875 c-1.054,0-2.108,0.425-3.223,0.875c-1.221,0.492-2.483,1.002-3.877,1.002c-1.393,0-2.656-0.51-3.876-1.002 c-1.115-0.45-2.169-0.875-3.223-0.875c-1.455,0-2.93,0.542-4.494,1.115c-0.52,0.191-1.052,0.377-1.587,0.551 c0.351,0.508,0.718,1.005,1.098,1.49c1.584-0.566,3.223-1.142,4.983-1.142c1.394,0,2.656,0.509,3.877,1.002 c1.116,0.451,2.169,0.875,3.222,0.875c1.054,0,2.107-0.424,3.223-0.875c1.22-0.493,2.483-1.002,3.876-1.002 c1.394,0,2.656,0.509,3.877,1.002c1.115,0.451,2.168,0.875,3.222,0.875s2.107-0.424,3.223-0.875 c1.22-0.493,2.483-1.002,3.877-1.002s2.656,0.509,3.877,1.002c1.115,0.451,2.167,0.875,3.221,0.875s2.107-0.424,3.223-0.875 c1.221-0.493,2.483-1.002,3.877-1.002c0.313,0,0.619,0.022,0.924,0.056c0.411-0.576,0.809-1.164,1.179-1.771 C75.418,63.063,74.722,62.945,74.018,62.945z"/> <path fill="#FFFFFF" d="M66.919,68.714c-1.395,0-2.655-0.51-3.878-1.002c-1.114-0.45-2.168-0.875-3.221-0.875 c-1.056,0-2.107,0.425-3.223,0.875c-1.222,0.492-2.483,1.002-3.878,1.002c-1.392,0-2.656-0.51-3.876-1.002 c-1.115-0.45-2.168-0.875-3.222-0.875c-1.054,0-2.108,0.425-3.223,0.875c-1.221,0.492-2.483,1.002-3.877,1.002 c-1.393,0-2.656-0.51-3.876-1.002c-1.115-0.45-2.169-0.875-3.223-0.875c-1.201,0-2.417,0.371-3.684,0.822 c0.456,0.512,0.931,1.003,1.421,1.481c0.735-0.173,1.486-0.289,2.262-0.289c1.394,0,2.656,0.51,3.877,1.002 c1.116,0.451,2.169,0.875,3.222,0.875c1.054,0,2.107-0.424,3.223-0.875c1.22-0.492,2.483-1.002,3.876-1.002 c1.394,0,2.656,0.51,3.877,1.002c1.115,0.451,2.168,0.875,3.222,0.875s2.107-0.424,3.223-0.875c1.22-0.492,2.483-1.002,3.877-1.002 s2.656,0.51,3.877,1.002c1.115,0.451,2.167,0.875,3.221,0.875s2.107-0.424,3.223-0.875c0.294-0.118,0.592-0.237,0.893-0.352 c0.873-0.824,1.701-1.696,2.472-2.618c-0.884,0.107-1.774,0.451-2.709,0.828C69.574,68.204,68.312,68.714,66.919,68.714z"/> <path fill="#FFFFFF" d="M63.041,71.604c-1.114-0.45-2.168-0.875-3.221-0.875c-1.056,0-2.107,0.425-3.223,0.875 c-1.222,0.492-2.483,1.003-3.878,1.003c-1.392,0-2.656-0.511-3.876-1.003c-1.115-0.45-2.168-0.875-3.222-0.875 c-1.054,0-2.108,0.425-3.223,0.875c-1.221,0.492-2.483,1.003-3.877,1.003c-1.393,0-2.656-0.511-3.876-1.003 c-1.115-0.45-2.169-0.875-3.223-0.875c-0.161,0-0.322,0.009-0.483,0.021c1.316,1.096,2.73,2.077,4.221,2.94 c0.046,0.019,0.093,0.036,0.139,0.056c1.116,0.45,2.169,0.874,3.222,0.874c1.054,0,2.107-0.424,3.223-0.874 c1.22-0.493,2.483-1.003,3.876-1.003c1.394,0,2.656,0.51,3.877,1.003c1.115,0.45,2.168,0.874,3.222,0.874s2.107-0.424,3.223-0.874 c1.22-0.493,2.483-1.003,3.877-1.003s2.656,0.51,3.877,1.003c0.325,0.132,0.645,0.256,0.962,0.374 c0.866-0.47,1.707-0.978,2.52-1.525c-0.087,0.003-0.172,0.012-0.259,0.012C65.524,72.606,64.264,72.096,63.041,71.604z"/> <path fill="#FFFFFF" d="M56.598,75.495c-1.222,0.492-2.483,1.003-3.878,1.003c-1.392,0-2.656-0.511-3.876-1.003 c-1.115-0.45-2.168-0.875-3.222-0.875c-1.054,0-2.108,0.425-3.223,0.875c-0.584,0.235-1.179,0.475-1.792,0.66 c0.955,0.322,1.93,0.598,2.923,0.825c0.67-0.204,1.362-0.345,2.091-0.345c1.394,0,2.656,0.509,3.877,1.002 c0.08,0.033,0.159,0.063,0.238,0.094c0.184,0.004,0.365,0.015,0.548,0.015c4.297,0,8.383-0.902,12.084-2.517 c-0.87-0.337-1.711-0.609-2.549-0.609C58.765,74.62,57.713,75.045,56.598,75.495z"/> <path fill="#FFFFFF" d="M31.567,57.167c1.394,0,2.656,0.51,3.876,1.003c1.116,0.449,2.169,0.874,3.223,0.874 s2.107-0.425,3.223-0.874c1.22-0.493,2.483-1.003,3.876-1.003c1.394,0,2.657,0.51,3.877,1.003c1.115,0.449,2.168,0.874,3.222,0.874 s2.107-0.425,3.223-0.874c1.222-0.493,2.483-1.003,3.877-1.003c1.393,0,2.656,0.51,3.876,1.003 c1.115,0.449,2.169,0.874,3.223,0.874c1.053,0,2.108-0.425,3.223-0.874c0.863-0.349,1.75-0.703,2.688-0.883 c-10.754-1.023-25.132-4.463-25.132-14.103c0-4.957,3.082-6.551,5.926-5.789c0.771,0.207,2.653,1.482,1.46,3.55 c-0.858,1.487-3.032,1.234-2.941,1.701c0.07,0.36,0.341,0.658,0.697,0.909c6.482,4.563,16.173-4.892,6.389-12.954 c-11.489-9.469-33.697-2.155-35.058,17.306c-0.227,3.251-0.182,7.226-0.053,11.16c0.632-0.185,1.283-0.405,1.97-0.648 C27.974,57.803,29.777,57.167,31.567,57.167z"/> <path fill="#FFFFFF" d="M70.941,59.792c-1.222,0.492-2.485,1.003-3.878,1.003c-1.394,0-2.655-0.511-3.875-1.003 c-1.115-0.45-2.169-0.876-3.223-0.876c-1.055,0-2.108,0.426-3.224,0.876c-1.22,0.492-2.483,1.003-3.877,1.003 c-1.393,0-2.655-0.511-3.876-1.003c-1.115-0.45-2.168-0.876-3.222-0.876s-2.107,0.426-3.223,0.876 c-1.221,0.492-2.483,1.003-3.877,1.003c-1.393,0-2.657-0.511-3.877-1.003c-1.115-0.45-2.168-0.876-3.222-0.876 c-1.49,0-3.149,0.587-4.753,1.154c-0.822,0.289-1.672,0.589-2.487,0.804l-0.002-0.01c0.027,0.743,0.057,1.478,0.088,2.204 c0.621-0.188,1.25-0.407,1.911-0.65c1.638-0.601,3.331-1.223,5.097-1.223c1.394,0,2.656,0.509,3.877,1.002 c1.115,0.449,2.168,0.875,3.222,0.875s2.107-0.426,3.222-0.875c1.221-0.493,2.483-1.002,3.877-1.002 c1.393,0,2.656,0.509,3.877,1.002c1.115,0.449,2.169,0.875,3.222,0.875c1.055,0,2.107-0.426,3.222-0.875 c1.223-0.493,2.485-1.002,3.878-1.002c1.395,0,2.656,0.509,3.878,1.002c1.113,0.449,2.167,0.875,3.221,0.875 s2.107-0.426,3.223-0.875c1.221-0.493,2.483-1.002,3.876-1.002c1.036,0,2.03,0.201,2.996,0.481 c0.336-0.632,0.647-1.278,0.939-1.936c-1.287-0.449-2.524-0.825-3.787-0.825C73.109,58.916,72.057,59.342,70.941,59.792z"/> </g></svg>