<svg version="1.1" xmlns="http://www.w3.org/2000/svg" xmlns:xlink="http://www.w3.org/1999/xlink" x="0px" y="0px" width="100px" height="100px" viewBox="0 0 100 100" enable-background="new 0 0 100 100" xml:space="preserve"><circle fill="#1c437a" cx="51" cy="52" r="41.5"/><linearGradient id="SVGID_1_" gradientUnits="userSpaceOnUse" x1="49.9995" y1="8.5" x2="49.9995" y2="91.5005"><stop  offset="0" style="stop-color:#1b6bd9"/><stop  offset="1" style="stop-color:#2257a5"/></linearGradient><circle fill="url(#SVGID_1_)" cx="50" cy="50" r="41.5"/><g> <path fill="#FFFFFF" d="M73.57,35.88c-1.661,0.736-3.445,1.235-5.317,1.458c1.912-1.146,3.376-2.961,4.07-5.12 c-1.794,1.061-3.775,1.831-5.884,2.249c-1.69-1.802-4.094-2.925-6.759-2.925c-5.114,0-9.261,4.146-9.261,9.258 c0,0.725,0.082,1.433,0.24,2.11c-7.695-0.386-14.519-4.073-19.085-9.675c-0.798,1.365-1.252,2.957-1.252,4.654 c0,3.213,1.636,6.048,4.118,7.707c-1.517-0.051-2.945-0.468-4.194-1.162v0.116c0,4.485,3.193,8.227,7.427,9.08 c-0.776,0.209-1.594,0.325-2.44,0.325c-0.598,0-1.176-0.06-1.743-0.173c1.179,3.682,4.597,6.358,8.648,6.431 c-3.168,2.483-7.162,3.959-11.5,3.959c-0.747,0-1.484-0.045-2.209-0.128c4.099,2.633,8.965,4.166,14.195,4.166 c17.033,0,26.346-14.108,26.346-26.345l-0.031-1.199C70.758,39.366,72.331,37.736,73.57,35.88z"/> </g></svg>