<svg version="1.1" xmlns="http://www.w3.org/2000/svg" xmlns:xlink="http://www.w3.org/1999/xlink" x="0px" y="0px" width="100px" height="100px" viewBox="0 0 100 100" enable-background="new 0 0 100 100" xml:space="preserve"><circle fill="#1c437a" cx="51" cy="52" r="41.5"/><linearGradient id="SVGID_1_" gradientUnits="userSpaceOnUse" x1="49.9995" y1="8.5" x2="49.9995" y2="91.5005"><stop  offset="0" style="stop-color:#1b6bd9"/><stop  offset="1" style="stop-color:#2257a5"/></linearGradient><circle fill="url(#SVGID_1_)" cx="50" cy="50" r="41.5"/><g> <path fill="#FFFFFF" d="M73.594,38.282c-0.586-2.534-2.667-4.401-5.172-4.68c-5.933-0.66-11.937-1.073-17.914-1.069 c-5.979-0.004-11.983,0.409-17.916,1.069c-2.505,0.279-4.585,2.146-5.17,4.68c-0.832,3.608-0.843,7.545-0.843,11.26 c0,3.714,0,7.651,0.833,11.261c0.585,2.531,2.666,4.4,5.17,4.678c5.932,0.66,11.936,1.072,17.916,1.07 c5.978,0.002,11.982-0.41,17.914-1.07c2.505-0.277,4.586-2.146,5.171-4.678c0.833-3.609,0.839-7.547,0.839-11.261 C74.422,45.828,74.427,41.89,73.594,38.282 M58.657,50.644L47.38,56.74c-1.121,0.607-2.039,0.061-2.039-1.213v-11.97 c0-1.274,0.917-1.822,2.039-1.215l11.277,6.098C59.779,49.045,59.779,50.038,58.657,50.644"/> </g></svg>