<svg version="1.1" xmlns="http://www.w3.org/2000/svg" xmlns:xlink="http://www.w3.org/1999/xlink" x="0px" y="0px" width="100px" height="100px" viewBox="0 0 100 100" enable-background="new 0 0 100 100" xml:space="preserve"><circle fill="#1c437a" cx="51" cy="52" r="41.5"/><linearGradient id="SVGID_1_" gradientUnits="userSpaceOnUse" x1="49.9995" y1="8.5" x2="49.9995" y2="91.5005"><stop  offset="0" style="stop-color:#1b6bd9"/><stop  offset="1" style="stop-color:#2257a5"/></linearGradient><circle fill="url(#SVGID_1_)" cx="50" cy="50" r="41.5"/><g> <rect x="-59.3" y="49.005" fill="#010101" width="0.244" height="0.221"/> <polygon fill="#010101" points="-53.738,52.108 -53.746,52.115 -53.746,52.108 "/> <polygon fill="#010101" points="-53.738,52.108 -53.746,52.115 -53.746,52.108 "/> <path fill="#FFFFFF" d="M71.828,73.707L56.742,48.655h-0.381v-5.582c0.174,0.019,0.352,0.03,0.529,0.03 c0.568,0,1.131-0.107,1.658-0.312c0.748,0.764,1.783,1.206,2.863,1.206c1.855,0,3.453-1.294,3.887-3.048 c2.473-0.214,4.42-2.293,4.42-4.821c0-2.668-2.172-4.84-4.84-4.84c-2.383,0-4.369,1.73-4.766,4 c-0.375-0.371-0.811-0.678-1.291-0.902c-0.146-3.067-2.689-5.518-5.795-5.518c-1.271,0-2.48,0.405-3.493,1.171 c-0.705,0.534-1.283,1.229-1.681,2.015c-0.774-0.5-1.675-0.767-2.617-0.767c-1.104,0-2.185,0.382-3.042,1.076 c-0.583,0.472-1.047,1.075-1.357,1.75c-0.68-0.357-1.443-0.548-2.219-0.548c-2.629,0-4.769,2.139-4.769,4.768 c0,2.63,2.139,4.769,4.769,4.769c1.879,0,3.536-1.081,4.309-2.722c0.713,0.387,1.52,0.593,2.339,0.587 c0.081,0.278,0.188,0.544,0.32,0.796v6.891h-0.465L29.89,73.707h-1.681v1.424h45.583v-1.424H71.828z M45.236,39.545 c-0.809,0-1.595-0.29-2.211-0.814l-0.885-0.752l-0.269,1.131c-0.358,1.513-1.697,2.57-3.253,2.57c-1.845,0-3.345-1.5-3.345-3.345 c0-1.843,1.5-3.345,3.345-3.345c0.78,0,1.54,0.274,2.138,0.773l0.894,0.744l0.256-1.135c0.348-1.541,1.749-2.66,3.331-2.66 c0.913,0,1.771,0.355,2.416,1l0.843,0.842l0.342-1.142c0.549-1.838,2.273-3.121,4.193-3.121c2.414,0,4.377,1.964,4.377,4.377 c0,0.058-0.002,0.115-0.004,0.172l-0.021,0.532l0.508,0.169c0.805,0.269,1.477,0.862,1.844,1.629l0.271,0.566l0.596-0.197 c0.107-0.036,0.219-0.065,0.332-0.086l0.676-0.127l-0.105-0.68c-0.025-0.171-0.039-0.345-0.039-0.52 c0-1.885,1.531-3.417,3.416-3.417c1.883,0,3.416,1.532,3.416,3.417c0,1.883-1.533,3.416-3.416,3.416 c-0.051,0-0.104-0.002-0.152-0.004l-0.689-0.029l-0.051,0.685c-0.107,1.333-1.236,2.377-2.574,2.377 c-0.826,0-1.609-0.401-2.094-1.071l-0.369-0.509l-0.551,0.302c-0.457,0.252-0.98,0.384-1.508,0.384 c-1.357,0-2.557-0.865-2.988-2.151l-0.168-0.506l-0.533,0.02c-0.047,0.001-0.094,0.003-0.143,0.003l-0.707,0.006v0.708 c0,1.609-1.309,2.918-2.916,2.918c-1.468,0-2.712-1.098-2.895-2.552l-0.09-0.72l-0.719,0.104 C45.566,39.533,45.399,39.545,45.236,39.545z M47.009,43.356c0.697,0.47,1.533,0.744,2.427,0.744c1.773,0,3.303-1.07,3.975-2.6 c0.422,0.494,0.941,0.89,1.527,1.166v5.989h-7.929V43.356z M40.895,58.346c0.281,0.23,0.646,0.452,1.106,0.582 c0.926,0.263,1.943,0.079,3.022-0.547c2.526-1.463,2.941-1.523,6.356-0.944c3.531,0.599,4.197,0.835,6.605,3.122 c1.563,1.485,2.598,1.971,3.615,1.971c0.529,0,1.051-0.131,1.645-0.319l6.924,11.497H31.556L40.895,58.346z"/> <rect x="34.977" y="65.665" transform="matrix(-0.464 0.8858 -0.8858 -0.464 117.4158 61.7077)" fill="#FFFFFF" width="10.124" height="1.424"/> <rect x="50.04" y="60.042" fill="#FFFFFF" width="1.423" height="6.335"/> <rect x="62.244" y="64.77" transform="matrix(-0.8903 0.4554 -0.4554 -0.8903 150.1403 100.5609)" fill="#FFFFFF" width="1.424" height="7.194"/> <rect x="54.046" y="64.42" transform="matrix(0.3317 0.9434 -0.9434 0.3317 99.8596 -10.6968)" fill="#FFFFFF" width="6.866" height="1.423"/> <rect x="42.89" y="63.886" transform="matrix(0.8944 0.4474 -0.4474 0.8944 34.396 -12.4703)" fill="#FFFFFF" width="1.423" height="5.411"/> </g></svg>