<svg version="1.1" xmlns="http://www.w3.org/2000/svg" xmlns:xlink="http://www.w3.org/1999/xlink" x="0px" y="0px" width="100px" height="100px" viewBox="0 0 100 100" enable-background="new 0 0 100 100" xml:space="preserve"><circle fill="#1c437a" cx="51" cy="52" r="41.5"/><linearGradient id="SVGID_1_" gradientUnits="userSpaceOnUse" x1="49.9995" y1="8.5" x2="49.9995" y2="91.5005"><stop  offset="0" style="stop-color:#1b6bd9"/><stop  offset="1" style="stop-color:#2257a5"/></linearGradient><circle fill="url(#SVGID_1_)" cx="50" cy="50" r="41.5"/><g> <path fill="#FFFFFF" d="M49.98,71c9.227,0,16.706-7.481,16.706-16.694c0-9.236-16.706-34.063-16.706-34.063 S33.27,45.069,33.27,54.306C33.271,63.519,40.747,71,49.98,71z M54.266,43.807c0,0,5.129,7.836,5.129,10.61 c0,2.767-2.303,5.021-5.129,5.021c-2.84,0-5.144-2.254-5.144-5.021C49.122,51.643,54.266,43.807,54.266,43.807z"/> </g></svg>