<svg version="1.1" xmlns="http://www.w3.org/2000/svg" xmlns:xlink="http://www.w3.org/1999/xlink" x="0px" y="0px" width="100px" height="100px" viewBox="0 0 100 100" enable-background="new 0 0 100 100" xml:space="preserve"><circle fill="#1c437a" cx="51" cy="52" r="41.5"/><linearGradient id="SVGID_1_" gradientUnits="userSpaceOnUse" x1="49.9995" y1="8.5" x2="49.9995" y2="91.5005"><stop  offset="0" style="stop-color:#1b6bd9"/><stop  offset="1" style="stop-color:#2257a5"/></linearGradient><circle fill="url(#SVGID_1_)" cx="50" cy="50" r="41.5"/><path fill="#FFFFFF" d="M73.644,48.18L72.464,47l-4.455-24.901c-0.065-0.262-0.197-0.459-0.459-0.524c-0.263-0.065-0.46,0-0.655,0.197l-9.764,9.895l-0.263-0.263c-0.13-0.131-0.262-0.196-0.458-0.196h-6.619h-6.88c-0.197,0-0.328,0.065-0.458,0.196l-0.262,0.263l-9.764-9.895c-0.197-0.197-0.459-0.262-0.655-0.197c-0.263,0.065-0.393,0.262-0.459,0.524L26.856,47l-1.18,1.18c-0.131,0.131-0.197,0.262-0.197,0.458v7.863c0,0.197,0.131,0.394,0.262,0.525l14.088,9.477l3.979-8.212l-0.645-2.638l-4.568-2.664c-0.472-0.283-1.686-0.77-1.591-1.339c0.109-0.545,0.608-2.932,1.19-2.932h5.063c0.53,0,0.955,2.343,1.058,2.854l1.626,6.568c0.113,0.288-0.005,0.604-0.089,0.772l-3.59,12.238l0.646,5.533c0,0.065,0.065,0.065,0.131,0.131c0,0,0,0.066,0.066,0.066c0.065,0.065,0.131,0.065,0.197,0.131l5.831,1.965c0.132,0.132,0.264,0.197,0.46,0.197c0.065,0,0.065,0,0.131,0s0.065,0,0.132,0c0.196,0,0.328-0.065,0.458-0.197l5.832-1.965c0.065,0,0.132-0.065,0.196-0.131l0.066-0.066c0.065-0.065,0.065-0.065,0.131-0.131l0.689-5.625l-3.553-12.16c-0.078-0.155-0.195-0.471-0.082-0.759l1.629-6.586c0.1-0.493,0.523-2.836,1.055-2.836h5.063c0.581,0,1.081,2.387,1.188,2.919c0.098,0.582-1.117,1.068-1.585,1.349l-4.571,2.667l-0.645,2.638l3.959,8.168l14.021-9.433c0.196-0.132,0.263-0.328,0.263-0.525v-7.863C73.84,48.507,73.774,48.311,73.644,48.18z"/></svg>