<?xml version="1.0" encoding="UTF-8" standalone="no"?>
<!-- Created with Inkscape (http://www.inkscape.org/) -->

<svg
   xmlns:dc="http://purl.org/dc/elements/1.1/"
   xmlns:cc="http://creativecommons.org/ns#"
   xmlns:rdf="http://www.w3.org/1999/02/22-rdf-syntax-ns#"
   xmlns:svg="http://www.w3.org/2000/svg"
   xmlns="http://www.w3.org/2000/svg"
   xmlns:sodipodi="http://sodipodi.sourceforge.net/DTD/sodipodi-0.dtd"
   xmlns:inkscape="http://www.inkscape.org/namespaces/inkscape"
   version="1.1"
   id="svg3713"
   width="72"
   height="72"
   viewBox="0 0 72 72"
   sodipodi:docname="genius_logo_raw_72.svg"
   inkscape:version="0.92.4 (5da689c313, 2019-01-14)">
  <metadata
     id="metadata3719">
    <rdf:RDF>
      <cc:Work
         rdf:about="">
        <dc:format>image/svg+xml</dc:format>
        <dc:type
           rdf:resource="http://purl.org/dc/dcmitype/StillImage" />
        <dc:title></dc:title>
      </cc:Work>
    </rdf:RDF>
  </metadata>
  <defs
     id="defs3717">
    <clipPath
       clipPathUnits="userSpaceOnUse"
       id="clipPath4622">
      <rect
         style="fill:none;stroke:#000000;stroke-opacity:0"
         id="rect4624"
         width="40.011791"
         height="34.540096"
         x="69.080193"
         y="31.462263" />
    </clipPath>
  </defs>
  <sodipodi:namedview
     pagecolor="#ffffff"
     bordercolor="#666666"
     borderopacity="1"
     objecttolerance="10"
     gridtolerance="10"
     guidetolerance="10"
     inkscape:pageopacity="0"
     inkscape:pageshadow="2"
     inkscape:window-width="1366"
     inkscape:window-height="705"
     id="namedview3715"
     showgrid="false"
     inkscape:zoom="3.1701571"
     inkscape:cx="29.029291"
     inkscape:cy="32.258219"
     inkscape:window-x="-8"
     inkscape:window-y="-8"
     inkscape:window-maximized="1"
     inkscape:current-layer="svg3713" />
  <g
     id="g3769"
     clip-path="url(#clipPath4622)"
     transform="matrix(2.3464727,0,0,2.3464727,-170.72873,-78.070725)">
    <path
       style="fill:#abc9e5;stroke-width:0.42883781"
       d="m 57.65105,85.679148 c -3.833184,-1.133444 -5.889946,-5.867778 -4.07441,-9.378638 1.711215,-3.309123 6.618519,-4.868888 9.542092,-3.032913 2.288971,1.437456 1.563981,3.651361 -0.772073,2.357673 -3.082938,-1.70731 -6.849398,0.242594 -6.830262,3.536038 0.01478,2.543446 1.970203,4.428574 4.59372,4.428574 1.405042,0 2.258149,-0.680446 2.258149,-1.801119 0,-0.560114 -0.330505,-0.771908 -1.20455,-0.771908 -1.581931,0 -2.873602,-0.955948 -2.523708,-1.867756 0.212556,-0.553912 0.866098,-0.705271 3.045266,-0.705271 h 2.774629 l 0.27932,1.862631 c 0.15362,1.024451 0.21369,2.307684 0.13348,2.851635 -0.31224,2.117545 -4.106612,3.442148 -7.221653,2.521054 z m 11.189873,-0.111189 c -0.33372,-0.402111 -0.45499,-2.521771 -0.37414,-6.539775 l 0.11963,-5.944828 3.974,-0.123399 c 3.27156,-0.101587 4.01909,-0.0059 4.22914,0.541511 0.48626,1.26716 -0.66715,1.940496 -3.32401,1.940496 -2.51469,0 -2.52052,0.003 -2.52052,1.286512 0,1.247974 0.061,1.286711 2.03698,1.29308 2.40144,0.0078 3.25059,0.439524 3.03989,1.545754 -0.12544,0.658601 -0.60447,0.829843 -2.61522,0.934897 l -2.46165,0.128612 v 1.479529 1.479534 h 2.8009 c 2.96688,0 3.85849,0.623032 2.76946,1.935229 -0.72279,0.870914 -6.95833,0.905727 -7.67446,0.04284 z m 11.20467,0.233482 c -0.41312,-0.261853 -0.51883,-1.870925 -0.42883,-6.527447 0.15284,-7.908687 0.38348,-8.023222 4.57727,-2.273123 l 3.04682,4.177506 v -3.673373 c 0,-2.692947 0.16668,-3.811699 0.62448,-4.191641 1.26687,-1.051412 1.51971,-0.01948 1.51971,6.20256 0,3.821656 -0.17025,6.272756 -0.44762,6.444175 -0.67027,0.414248 -1.50298,-0.443654 -4.5081,-4.64449 l -2.73123,-3.81795 -0.12327,4.190653 c -0.12,4.079462 -0.3989,4.829588 -1.52923,4.11313 z m 14.14244,-0.153139 c -0.60366,-0.603652 -0.72187,-11.3595 -0.13503,-12.285511 0.20155,-0.318035 0.72928,-0.508616 1.172741,-0.423513 0.73584,0.141209 0.81674,0.67374 0.92591,6.094232 0.0808,4.013995 -0.0404,6.132375 -0.37413,6.534449 -0.60508,0.729073 -0.924611,0.745223 -1.589491,0.08034 z m 9.025807,0.163414 c -1.5352,-0.464106 -3.483356,-2.571496 -3.759056,-4.066278 -0.13915,-0.754515 -0.19429,-3.012144 -0.12253,-5.016961 0.1277,-3.567442 0.15333,-3.645121 1.202576,-3.645121 1.0644,0 1.07363,0.03332 1.28651,4.646024 0.23409,5.072366 0.63779,5.860502 3.00186,5.860502 2.36407,0 2.76777,-0.788136 3.00187,-5.860502 0.21288,-4.612691 0.22211,-4.646024 1.28651,-4.646024 1.06205,0 1.07325,0.03928 1.19495,4.190603 0.13392,4.568207 -0.37794,6.345032 -2.21161,7.677153 -1.17396,0.852855 -3.53165,1.268549 -4.88108,0.860604 z m 13.50555,-0.26175 c -2.06582,-0.737163 -2.89059,-1.433781 -2.89059,-2.441429 0,-0.963351 1.05493,-1.029735 2.57302,-0.161912 2.07137,1.184103 5.5749,0.498018 5.5749,-1.091714 0,-0.550091 -2.10881,-1.569782 -3.96763,-1.918496 -5.50089,-1.031972 -4.59313,-7.501107 1.05167,-7.494713 1.84337,0.0021 4.20247,1.442044 4.20247,2.565119 0,1.04919 -0.77643,1.093348 -2.74215,0.15596 -1.25763,-0.599721 -1.68622,-0.62456 -2.802,-0.162393 -0.78093,0.323473 -1.31726,0.860112 -1.31726,1.318021 0,0.746808 1.00995,1.227519 3.9337,1.872361 1.83179,0.404004 3.78538,2.294981 3.78538,3.664046 0,1.655026 -1.45702,3.338292 -3.343,3.862092 -1.9645,0.54561 -2.07432,0.54109 -4.05851,-0.166942 z M 82.193573,59.282768 76.948753,56.060172 V 49.46187 42.863567 l 5.36047,3.261891 5.36047,3.261892 0.033,4.986598 c 0.0182,2.742629 0.0664,5.632178 0.10729,6.421222 0.0409,0.789044 -0.026,1.496627 -0.14865,1.572407 -0.12262,0.07578 -2.58311,-1.312384 -5.46777,-3.08481 z m 6.76264,-3.072041 c 0,-5.534434 0.098,-6.449308 0.75046,-7.003004 0.60333,-0.512028 7.594421,-4.84191 9.863271,-6.108742 0.41894,-0.233922 0.534936,1.181708 0.530956,6.480197 l -0.005,6.779504 -2.460726,1.413802 c -1.3534,0.777591 -3.715081,2.172897 -5.248171,3.100679 -1.5331,0.927783 -2.93218,1.690655 -3.10908,1.695272 -0.17689,0.0046 -0.32162,-2.856351 -0.32162,-6.357707 z m -1.92977,-8.783609 c -0.47173,-0.330951 -2.78745,-1.707308 -5.14606,-3.058572 -2.35861,-1.351266 -4.44551,-2.605426 -4.63757,-2.787024 -0.49247,-0.465655 10.85365,-6.939771 11.68122,-6.665326 1.26438,0.419297 10.469351,6.002455 10.606381,6.433162 0.13597,0.427358 -9.379671,6.103372 -10.865011,6.480905 -0.42971,0.10922 -1.16724,-0.0722 -1.63896,-0.403145 z"
       id="path3737"
       inkscape:connector-curvature="0" />
    <path
       style="fill:#9e9f9f;stroke-width:0.42883781"
       d="m 58.042824,85.766444 c -2.949203,-0.929348 -5.116144,-3.713475 -5.101935,-6.555066 0.01649,-3.298803 3.636581,-6.771279 7.059116,-6.771279 1.860384,0 4.267773,1.393229 4.442548,2.571045 0.1292,0.87066 0.0156,0.943224 -1.07209,0.684476 -0.669139,-0.159189 -2.1244,-0.401571 -3.233914,-0.538633 -1.836372,-0.22685 -2.134445,-0.132052 -3.323493,1.056995 -1.038625,1.038624 -1.306195,1.673017 -1.306195,3.096899 0,3.063348 3.219559,5.155909 6.183075,4.018699 0.40225,-0.154355 0.67833,-0.765235 0.67833,-1.500932 0,-1.155829 -0.114115,-1.240632 -1.66947,-1.240632 -1.162795,0 -1.752737,-0.216987 -1.943829,-0.714967 -0.440097,-1.146871 0.316563,-1.48452 3.01475,-1.345277 l 2.528319,0.130474 0.126327,2.873758 c 0.12197,2.774559 0.08445,2.89541 -1.086913,3.501147 -1.626247,0.840964 -3.937234,1.161027 -5.294626,0.733293 z m 11.021489,0.04702 c -0.44069,-0.713059 -0.42608,-12.095782 0.0161,-12.537956 0.25665,-0.256646 1.96207,-0.390508 4.04868,-0.317791 3.27748,0.114217 3.60525,0.203617 3.60525,0.983317 0,0.760446 -0.32816,0.872051 -2.89466,0.984478 l -2.89465,0.126803 v 1.674359 1.674354 l 2.46582,0.128613 c 2.13705,0.111459 2.46581,0.242963 2.46581,0.986284 0,0.743321 -0.32876,0.874824 -2.46581,0.986284 l -2.46582,0.128612 v 1.479529 1.479534 h 2.52052 c 2.82878,0 4.02742,0.75731 3.05437,1.92977 -0.39124,0.471413 -1.42956,0.643256 -3.88674,0.643256 -1.84409,0 -3.45007,-0.15725 -3.56886,-0.349446 z m 10.93856,-0.198667 c -0.68332,-0.68332 -0.65356,-11.544181 0.0335,-12.231253 0.28303,-0.283032 0.63304,-0.514604 0.77779,-0.514604 0.14475,0 1.60173,1.858776 3.23773,4.130612 l 2.97453,4.130608 0.12594,-3.573192 c 0.12935,-3.669844 0.55024,-4.81304 1.62077,-4.402238 0.49047,0.188209 0.6119,1.450633 0.6119,6.361195 0,8.450881 -0.1436,8.473251 -5.58093,0.869464 l -2.13814,-2.990076 v 4.123499 c 0,3.107688 -0.14559,4.179367 -0.591,4.350289 -0.32505,0.124732 -0.80749,0.01029 -1.07209,-0.254304 z m 14.34709,-0.12312 c -0.59036,-0.590362 -0.68202,-1.582568 -0.58148,-6.29421 0.1028,-4.817431 0.22516,-5.65923 0.88204,-6.068157 1.281521,-0.797797 1.582341,0.421336 1.589361,6.441315 0.005,4.297014 -0.13494,5.74703 -0.59125,6.125737 -0.46197,0.383403 -0.757091,0.336887 -1.298671,-0.204689 z m 8.359537,-0.06241 c -2.63422,-1.37455 -3.228676,-2.664735 -3.391546,-7.360782 -0.11836,-3.412657 -0.0205,-4.277611 0.53605,-4.739529 0.544876,-0.452213 0.809266,-0.458437 1.324076,-0.03118 0.49188,0.408224 0.64326,1.524969 0.64326,4.745407 0,3.86596 0.0782,4.266333 0.95309,4.879128 1.25911,0.881914 3.02582,0.846535 4.13953,-0.08289 0.78514,-0.655221 0.91363,-1.288958 1.01239,-4.993336 0.094,-3.525231 0.24214,-4.323097 0.87581,-4.717216 1.19215,-0.74146 1.58206,0.352458 1.5887,4.457289 0.004,2.633068 -0.20228,4.053383 -0.7439,5.115572 -1.4773,2.897155 -4.40585,4.048547 -6.93746,2.727541 z m 14.6013,0.228772 c -1.91633,-0.537107 -3.482,-1.591692 -3.482,-2.345353 0,-1.041304 1.0992,-1.093181 2.9311,-0.138339 2.04523,1.066027 4.09564,0.851513 4.8213,-0.504408 0.62476,-1.167364 -0.11333,-1.963634 -2.33468,-2.51871 -3.10055,-0.774781 -4.51813,-1.605504 -4.82481,-2.827408 -0.95003,-3.78521 4.0663,-6.198574 7.79961,-3.752413 1.12006,0.733887 1.42484,2.299393 0.44767,2.299393 -0.32683,0 -1.14698,-0.288276 -1.82256,-0.640614 -2.08629,-1.088074 -4.44461,-0.54022 -4.44461,1.032512 0,0.829999 1.04968,1.378143 4.15818,2.171407 3.87702,0.989385 4.78361,4.944059 1.51121,6.592086 -1.77677,0.894809 -3.16486,1.079046 -4.76041,0.631847 z M 89.385043,55.989284 v -6.535531 l 5.15021,-3.087312 c 2.832611,-1.698021 5.244821,-3.087312 5.360471,-3.087312 0.115646,0 0.208596,2.846411 0.206566,6.325358 l -0.004,6.325357 -5.356767,3.297486 -5.35662,3.297486 z m -6.58528,-11.255796 c -3.03226,-1.787625 -5.34798,-3.408046 -5.14606,-3.600938 0.66673,-0.636896 10.22073,-6.108456 10.6977,-6.126554 0.87211,-0.03309 11.396211,6.230141 11.038231,6.569211 -0.30863,0.292335 -10.850921,6.43172 -11.015261,6.414822 -0.0338,-0.0035 -2.54236,-1.468917 -5.57461,-3.256541 z"
       id="path3735"
       inkscape:connector-curvature="0" />
    <path
       style="fill:#5792ca;stroke-width:0.42883781"
       d="m 57.007793,85.234791 c -4.507638,-2.486945 -5.197146,-7.474599 -1.49561,-10.818715 1.533236,-1.385184 1.961498,-1.547139 4.091169,-1.547139 2.544566,0 4.909101,0.922613 4.909101,1.915473 0,1.025196 -0.757462,1.154427 -2.767198,0.472103 -1.900049,-0.645084 -2.534538,-0.603748 -4.39643,0.286416 -1.313818,0.628136 -2.396857,3.066079 -2.054514,4.624759 0.151583,0.69015 0.866453,1.751986 1.588602,2.359632 1.070265,0.900573 1.678846,1.081092 3.291965,0.976481 1.879342,-0.121876 1.985631,-0.197124 2.111307,-1.494675 0.125959,-1.30049 0.05362,-1.372826 -1.500933,-1.500933 -1.302513,-0.107338 -1.63327,-0.308283 -1.63327,-0.99227 0,-0.76238 0.285892,-0.857676 2.573027,-0.857676 h 2.573027 l 0.125491,2.837118 0.125496,2.837118 -1.476819,0.700794 c -1.683541,0.79889 -4.794301,0.902262 -6.064411,0.201514 z m 11.88878,-5.826078 0.11868,-6.325357 3.36414,-0.12598 c 3.45464,-0.129367 4.72319,0.298218 4.28357,1.443846 -0.16949,0.441685 -0.99746,0.611903 -2.97638,0.611903 h -2.74156 v 1.715351 1.715351 h 2.3333 c 1.28331,0 2.45779,0.201431 2.60994,0.447621 0.56545,0.914917 -0.74833,1.696569 -2.85156,1.696569 h -2.09168 v 1.715351 1.715352 h 2.78744 c 2.50156,0 2.78745,0.08797 2.78745,0.857675 0,0.794331 -0.28589,0.857675 -3.871,0.857675 h -3.87101 z m 10.82488,5.798325 c -0.12461,-0.324729 -0.17227,-3.088915 -0.10591,-6.142634 0.11293,-5.196815 0.17472,-5.55221 0.96525,-5.55221 0.57326,0 1.77871,1.290896 3.75233,4.018317 l 2.90773,4.018317 0.007,-3.589479 c 0.007,-3.859746 0.35775,-4.942656 1.46325,-4.518438 0.60716,0.232989 0.68306,1.04109 0.57933,6.1681 -0.15359,7.591186 -0.42752,7.714596 -4.46581,2.011904 l -2.9438,-4.15711 -0.21442,4.02351 c -0.1808,3.392583 -0.33231,4.045982 -0.96618,4.166825 -0.41347,0.07882 -0.85372,-0.12237 -0.97833,-0.447102 z m 14.47656,-5.798325 c 0.0991,-5.283903 0.22458,-6.325357 0.76193,-6.325357 0.537341,0 0.662791,1.041454 0.761921,6.325357 0.11507,6.132891 0.0919,6.325357 -0.761921,6.325357 -0.85381,0 -0.877,-0.192466 -0.76193,-6.325357 z m 8.218607,5.928378 c -0.49812,-0.21408 -1.32427,-0.921419 -1.83591,-1.571859 -0.847206,-1.077046 -0.919486,-1.606631 -0.809696,-5.932249 0.0986,-3.882419 0.238006,-4.749627 0.763816,-4.749627 0.51587,0 0.68571,0.868482 0.85767,4.385651 0.24392,4.988918 0.94218,6.263818 3.4307,6.263818 2.48853,0 3.18679,-1.2749 3.43071,-6.263818 0.17196,-3.517169 0.3418,-4.385651 0.85767,-4.385651 0.52628,0 0.66527,0.873264 0.76431,4.802172 0.11961,4.74558 0.10668,4.818249 -1.09757,6.166035 -0.99819,1.117171 -1.60184,1.391978 -3.33733,1.519312 -1.1653,0.0855 -2.52627,-0.01968 -3.02437,-0.233784 z m 13.28153,-0.427543 c -1.63642,-0.997832 -2.10585,-1.683544 -1.53994,-2.249451 0.2824,-0.282398 1.01649,-0.125088 2.17551,0.466201 2.18071,1.112517 3.54331,1.129842 4.84502,0.06161 1.46747,-1.204263 0.6754,-2.193171 -2.61862,-3.269417 -4.31024,-1.408265 -5.51567,-3.808297 -2.98307,-5.939342 0.9891,-0.832272 1.79963,-1.110215 3.23758,-1.110215 2.14646,0 4.4486,0.991254 4.4486,1.915474 0,0.997107 -0.75445,1.161798 -2.1103,0.460661 -1.75531,-0.907703 -3.60691,-0.830504 -4.52941,0.188848 -1.07146,1.183956 -0.38058,1.874304 2.75671,2.754587 3.3205,0.931685 4.45478,1.870291 4.45478,3.686307 0,1.055032 -0.35108,1.734138 -1.36475,2.639853 -1.68745,1.507737 -4.66256,1.68122 -6.77211,0.394884 z M 89.385043,55.800873 v -6.347121 l 5.15021,-3.087311 c 2.832611,-1.698021 5.244821,-3.087312 5.360471,-3.087312 0.115646,0 0.210146,2.846411 0.210006,6.325358 l -2.6e-4,6.325357 -5.085177,3.109074 c -2.79685,1.709991 -5.20894,3.109074 -5.36021,3.109074 -0.15127,0 -0.27504,-2.856204 -0.27504,-6.347119 z m -6.58528,-11.067385 c -3.03226,-1.787625 -5.34798,-3.408046 -5.14606,-3.600938 0.66673,-0.636896 10.22073,-6.108456 10.6977,-6.126554 0.87211,-0.03309 11.396211,6.230141 11.038231,6.569211 -0.30863,0.292335 -10.850921,6.43172 -11.015261,6.414822 -0.0338,-0.0035 -2.54236,-1.468917 -5.57461,-3.256541 z"
       id="path3733"
       inkscape:connector-curvature="0" />
    <path
       style="fill:#628fba;stroke-width:0.42883781"
       d="m 57.007793,85.234791 c -4.507638,-2.486945 -5.197146,-7.474599 -1.49561,-10.818715 1.533236,-1.385184 1.961498,-1.547139 4.091169,-1.547139 2.544566,0 4.909101,0.922613 4.909101,1.915473 0,1.025196 -0.757462,1.154427 -2.767198,0.472103 -1.900049,-0.645084 -2.534538,-0.603748 -4.39643,0.286416 -1.313818,0.628136 -2.396857,3.066079 -2.054514,4.624759 0.151583,0.69015 0.866453,1.751986 1.588602,2.359632 1.070265,0.900573 1.678846,1.081092 3.291965,0.976481 1.879342,-0.121876 1.985631,-0.197124 2.111307,-1.494675 0.125959,-1.30049 0.05362,-1.372826 -1.500933,-1.500933 -1.302513,-0.107338 -1.63327,-0.308283 -1.63327,-0.99227 0,-0.76238 0.285892,-0.857676 2.573027,-0.857676 h 2.573027 l 0.125491,2.837118 0.125496,2.837118 -1.476819,0.700794 c -1.683541,0.79889 -4.794301,0.902262 -6.064411,0.201514 z m 11.88878,-5.826078 0.11868,-6.325357 3.36414,-0.12598 c 3.45464,-0.129367 4.72319,0.298218 4.28357,1.443846 -0.16949,0.441685 -0.99746,0.611903 -2.97638,0.611903 h -2.74156 v 1.715351 1.715351 h 2.3333 c 1.28331,0 2.45779,0.201431 2.60994,0.447621 0.56545,0.914917 -0.74833,1.696569 -2.85156,1.696569 h -2.09168 v 1.715351 1.715352 h 2.78744 c 2.50156,0 2.78745,0.08797 2.78745,0.857675 0,0.794331 -0.28589,0.857675 -3.871,0.857675 h -3.87101 z m 10.82488,5.798325 c -0.12461,-0.324729 -0.17227,-3.088915 -0.10591,-6.142634 0.11293,-5.196815 0.17472,-5.55221 0.96525,-5.55221 0.57326,0 1.77871,1.290896 3.75233,4.018317 l 2.90773,4.018317 0.007,-3.589479 c 0.007,-3.859746 0.35775,-4.942656 1.46325,-4.518438 0.60716,0.232989 0.68306,1.04109 0.57933,6.1681 -0.15359,7.591186 -0.42752,7.714596 -4.46581,2.011904 l -2.9438,-4.15711 -0.21442,4.02351 c -0.1808,3.392583 -0.33231,4.045982 -0.96618,4.166825 -0.41347,0.07882 -0.85372,-0.12237 -0.97833,-0.447102 z m 14.47656,-5.798325 c 0.0991,-5.283903 0.22458,-6.325357 0.76193,-6.325357 0.537341,0 0.662791,1.041454 0.761921,6.325357 0.11507,6.132891 0.0919,6.325357 -0.761921,6.325357 -0.85381,0 -0.877,-0.192466 -0.76193,-6.325357 z m 8.218607,5.928378 c -0.49812,-0.21408 -1.32427,-0.921419 -1.83591,-1.571859 -0.847206,-1.077046 -0.919486,-1.606631 -0.809696,-5.932249 0.0986,-3.882419 0.238006,-4.749627 0.763816,-4.749627 0.51587,0 0.68571,0.868482 0.85767,4.385651 0.24392,4.988918 0.94218,6.263818 3.4307,6.263818 2.48853,0 3.18679,-1.2749 3.43071,-6.263818 0.17196,-3.517169 0.3418,-4.385651 0.85767,-4.385651 0.52628,0 0.66527,0.873264 0.76431,4.802172 0.11961,4.74558 0.10668,4.818249 -1.09757,6.166035 -0.99819,1.117171 -1.60184,1.391978 -3.33733,1.519312 -1.1653,0.0855 -2.52627,-0.01968 -3.02437,-0.233784 z m 13.28153,-0.427543 c -1.63642,-0.997832 -2.10585,-1.683544 -1.53994,-2.249451 0.2824,-0.282398 1.01649,-0.125088 2.17551,0.466201 2.18071,1.112517 3.54331,1.129842 4.84502,0.06161 1.46747,-1.204263 0.6754,-2.193171 -2.61862,-3.269417 -4.31024,-1.408265 -5.51567,-3.808297 -2.98307,-5.939342 0.9891,-0.832272 1.79963,-1.110215 3.23758,-1.110215 2.14646,0 4.4486,0.991254 4.4486,1.915474 0,0.997107 -0.75445,1.161798 -2.1103,0.460661 -1.75531,-0.907703 -3.60691,-0.830504 -4.52941,0.188848 -1.07146,1.183956 -0.38058,1.874304 2.75671,2.754587 3.3205,0.931685 4.45478,1.870291 4.45478,3.686307 0,1.055032 -0.35108,1.734138 -1.36475,2.639853 -1.68745,1.507737 -4.66256,1.68122 -6.77211,0.394884 z M 89.385043,55.818581 c 0,-6.100894 0.0348,-6.350986 0.96489,-6.92695 0.53069,-0.328646 1.39908,-0.879703 1.92977,-1.224571 0.53069,-0.344867 0.96488,-0.511087 0.96488,-0.369377 0,0.14171 -0.7719,0.76848 -1.71535,1.392821 l -1.71535,1.135166 v 5.975942 5.975945 l 1.37731,-0.994087 c 0.75751,-0.546747 1.97073,-1.283551 2.69602,-1.637342 0.7253,-0.353793 2.221211,-1.222189 3.324261,-1.929772 1.88235,-1.207499 2.00823,-1.405034 2.04949,-3.216283 0.0242,-1.061374 0.10223,-3.714807 0.17345,-5.89652 0.0732,-2.243399 -0.0432,-3.966749 -0.26803,-3.966749 -0.21864,0 -0.27826,-0.192977 -0.13249,-0.428838 0.81042,-1.311281 1.072076,0.128174 1.071836,5.89652 l -2.6e-4,6.325357 -5.085177,3.109074 c -2.79685,1.709991 -5.20894,3.109075 -5.36021,3.109075 -0.15127,0 -0.27504,-2.848236 -0.27504,-6.329411 z m -1.98399,-8.444441 c -0.48858,-0.342212 -2.02709,-1.242824 -3.41892,-2.001358 -1.39182,-0.758536 -3.48205,-2.015054 -4.64494,-2.792265 -1.81963,-1.216129 -1.99896,-1.455846 -1.28652,-1.719692 0.45532,-0.16862 0.92434,-0.421075 1.04227,-0.56101 0.11793,-0.139935 0.69686,-0.492934 1.28651,-0.784443 0.58965,-0.291508 1.844,-1.01533 2.78745,-1.608494 0.94344,-0.593164 2.00481,-1.202284 2.3586,-1.3536 0.35379,-0.151316 1.14639,-0.623189 1.76132,-1.048606 1.10138,-0.761941 1.14801,-0.754498 3.12397,0.49862 1.10325,0.699659 2.09229,1.272107 2.19788,1.272107 0.10558,0 1.40148,0.736183 2.879761,1.635963 1.47828,0.89978 3.05982,1.775292 3.51453,1.945582 0.73701,0.276013 0.65803,0.424269 -0.72771,1.365902 -0.85495,0.580955 -1.64146,1.056282 -1.7478,1.056282 -0.10634,0 -1.46393,0.771908 -3.016871,1.715351 -1.55294,0.943443 -2.99636,1.715352 -3.2076,1.715352 -0.21125,0 -0.62432,0.289465 -0.91794,0.643256 -0.6619,0.797541 -0.87221,0.799773 -1.98399,0.02105 z m 6.92742,-0.812966 c 2.045841,-1.396715 3.204491,-2.079153 3.204491,-1.88742 0,0.272112 -3.319431,2.464914 -3.731351,2.464914 -0.17546,0 0.0616,-0.259872 0.52686,-0.577494 z"
       id="path3731"
       inkscape:connector-curvature="0" />
    <path
       style="fill:#065db2;stroke-width:0.42883781"
       d="m 57.007793,85.234791 c -4.507638,-2.486945 -5.197146,-7.474599 -1.49561,-10.818715 1.533236,-1.385184 1.961498,-1.547139 4.091169,-1.547139 2.544566,0 4.909101,0.922613 4.909101,1.915473 0,1.025196 -0.757462,1.154427 -2.767198,0.472103 -1.900049,-0.645084 -2.534538,-0.603748 -4.39643,0.286416 -1.313818,0.628136 -2.396857,3.066079 -2.054514,4.624759 0.151583,0.69015 0.866453,1.751986 1.588602,2.359632 1.070265,0.900573 1.678846,1.081092 3.291965,0.976481 1.879342,-0.121876 1.985631,-0.197124 2.111307,-1.494675 0.125959,-1.30049 0.05362,-1.372826 -1.500933,-1.500933 -1.302513,-0.107338 -1.63327,-0.308283 -1.63327,-0.99227 0,-0.76238 0.285892,-0.857676 2.573027,-0.857676 h 2.573027 l 0.125491,2.837118 0.125496,2.837118 -1.476819,0.700794 c -1.683541,0.79889 -4.794301,0.902262 -6.064411,0.201514 z m 11.88878,-5.826078 0.11868,-6.325357 3.36414,-0.12598 c 3.45464,-0.129367 4.72319,0.298218 4.28357,1.443846 -0.16949,0.441685 -0.99746,0.611903 -2.97638,0.611903 h -2.74156 v 1.715351 1.715351 h 2.3333 c 1.28331,0 2.45779,0.201431 2.60994,0.447621 0.56545,0.914917 -0.74833,1.696569 -2.85156,1.696569 h -2.09168 v 1.715351 1.715352 h 2.78744 c 2.50156,0 2.78745,0.08797 2.78745,0.857675 0,0.794331 -0.28589,0.857675 -3.871,0.857675 h -3.87101 z m 10.82488,5.798325 c -0.12461,-0.324729 -0.17227,-3.088915 -0.10591,-6.142634 0.11293,-5.196815 0.17472,-5.55221 0.96525,-5.55221 0.57326,0 1.77871,1.290896 3.75233,4.018317 l 2.90773,4.018317 0.007,-3.589479 c 0.007,-3.859746 0.35775,-4.942656 1.46325,-4.518438 0.60716,0.232989 0.68306,1.04109 0.57933,6.1681 -0.15359,7.591186 -0.42752,7.714596 -4.46581,2.011904 l -2.9438,-4.15711 -0.21442,4.02351 c -0.1808,3.392583 -0.33231,4.045982 -0.96618,4.166825 -0.41347,0.07882 -0.85372,-0.12237 -0.97833,-0.447102 z m 14.47656,-5.798325 c 0.0991,-5.283903 0.22458,-6.325357 0.76193,-6.325357 0.537341,0 0.662791,1.041454 0.761921,6.325357 0.11507,6.132891 0.0919,6.325357 -0.761921,6.325357 -0.85381,0 -0.877,-0.192466 -0.76193,-6.325357 z m 8.218607,5.928378 c -0.49812,-0.21408 -1.32427,-0.921419 -1.83591,-1.571859 -0.847206,-1.077046 -0.919486,-1.606631 -0.809696,-5.932249 0.0986,-3.882419 0.238006,-4.749627 0.763816,-4.749627 0.51587,0 0.68571,0.868482 0.85767,4.385651 0.24392,4.988918 0.94218,6.263818 3.4307,6.263818 2.48853,0 3.18679,-1.2749 3.43071,-6.263818 0.17196,-3.517169 0.3418,-4.385651 0.85767,-4.385651 0.52628,0 0.66527,0.873264 0.76431,4.802172 0.11961,4.74558 0.10668,4.818249 -1.09757,6.166035 -0.99819,1.117171 -1.60184,1.391978 -3.33733,1.519312 -1.1653,0.0855 -2.52627,-0.01968 -3.02437,-0.233784 z m 13.28153,-0.427543 c -1.63642,-0.997832 -2.10585,-1.683544 -1.53994,-2.249451 0.2824,-0.282398 1.01649,-0.125088 2.17551,0.466201 2.18071,1.112517 3.54331,1.129842 4.84502,0.06161 1.46747,-1.204263 0.6754,-2.193171 -2.61862,-3.269417 -4.31024,-1.408265 -5.51567,-3.808297 -2.98307,-5.939342 0.9891,-0.832272 1.79963,-1.110215 3.23758,-1.110215 2.14646,0 4.4486,0.991254 4.4486,1.915474 0,0.997107 -0.75445,1.161798 -2.1103,0.460661 -1.75531,-0.907703 -3.60691,-0.830504 -4.52941,0.188848 -1.07146,1.183956 -0.38058,1.874304 2.75671,2.754587 3.3205,0.931685 4.45478,1.870291 4.45478,3.686307 0,1.055032 -0.35108,1.734138 -1.36475,2.639853 -1.68745,1.507737 -4.66256,1.68122 -6.77211,0.394884 z m -33.046027,-40.431592 -5.23198,-3.07252 3.30221,-1.982414 c 1.81622,-1.090327 4.32499,-2.537943 5.57504,-3.216923 l 2.27281,-1.234509 1.37231,0.815468 c 0.75477,0.448508 3.1091,1.816642 5.231841,3.040299 2.12275,1.223657 3.85954,2.372258 3.85954,2.552446 0,0.404565 -9.982751,6.190979 -10.660361,6.179188 -0.26918,-0.0047 -2.84381,-1.39115 -5.72141,-3.081035 z"
       id="path3729"
       inkscape:connector-curvature="0" />
  </g>
  <rect
     style="fill:none;stroke:#000000;stroke-opacity:0"
     id="rect4646"
     width="56"
     height="56"
     x="0.5"
     y="15.5" />
</svg>
