<?xml version="1.0" encoding="utf-8"?>
<!-- Generator: Adobe Illustrator 16.0.0, SVG Export Plug-In . SVG Version: 6.00 Build 0)  -->
<!DOCTYPE svg PUBLIC "-//W3C//DTD SVG 1.1//EN" "http://www.w3.org/Graphics/SVG/1.1/DTD/svg11.dtd">
<svg version="1.1" id="Layer_1" xmlns="http://www.w3.org/2000/svg" xmlns:xlink="http://www.w3.org/1999/xlink" x="0px" y="0px"
	 width="1000px" height="1000px" viewBox="0 0 1000 1000" enable-background="new 0 0 1000 1000" xml:space="preserve">
<g>
	<g>
		<g>
			<path opacity="0.4" fill="#99D8E9" d="M839.337,339.115l-1.521,2.657c-0.514-0.884-1.039-1.756-1.562-2.636L839.337,339.115
				c-31.711-159.002-172.03-278.83-340.354-278.83c-170.12,0-311.633,122.396-341.332,283.924l3.259-0.023
				c-0.54,0.938-1.062,1.888-1.589,2.831l-1.67-2.808C91.667,407.393,50.576,496.355,50.576,594.921
				c0,191.688,155.396,347.083,347.083,347.083c36.608,0,71.879-5.695,105.012-16.203c0.602-0.004,1.2-0.014,1.802-0.021
				c31.077,9.131,63.953,14.067,97.985,14.067c191.69,0,347.083-155.395,347.083-347.083
				C949.541,492.653,907.141,402.46,839.337,339.115z"/>
			<g>
				<path fill="#65CAE3" d="M272.378,679.467l-14.689-13.724c-35.054-32.748-62.651-71.486-82.025-115.14
					c-20.06-45.199-30.231-93.391-30.231-143.236c0-21.555,1.971-43.198,5.858-64.328l0.378-2.056l1.509-1.446
					c66.108-63.303,152.933-98.166,244.481-98.166c34.229,0,68.123,4.908,100.74,14.588l20.104,5.967l-19.973,6.393
					c-33.936,10.861-65.863,26.968-94.895,47.873c-28.671,20.645-53.882,45.502-74.933,73.881
					c-43.738,58.963-66.857,129.053-66.857,202.69c0,22.489,2.221,45.027,6.601,66.988L272.378,679.467z M163.639,347.438
					c-3.499,19.706-5.272,39.857-5.272,59.929c0,48.026,9.797,94.452,29.12,137.989c15.977,35.998,37.758,68.527,64.884,96.941
					c-2.299-16.384-3.46-32.971-3.46-49.533c0-76.434,23.999-149.188,69.403-210.397c21.846-29.451,48.009-55.247,77.763-76.671
					c24.375-17.551,50.719-31.845,78.542-42.636c-25.154-5.814-50.955-8.754-76.96-8.754
					C310.16,254.307,227.136,287.367,163.639,347.438z"/>
				<path fill="#65CAE3" d="M503.632,932.293l-1.912-0.567c-61.27-18.183-116.602-52.842-160.015-100.231
					c-43.651-47.648-73.37-106.161-85.943-169.212l-3.932-19.715l14.689,13.725c63.285,59.127,145.842,91.689,232.463,91.689
					c88.198,0,171.846-33.587,235.535-94.573l14.452-13.839l-3.619,19.68c-11.571,62.935-40.205,121.654-82.803,169.811
					c-42.278,47.793-96.574,83.28-157.017,102.625L503.632,932.293z M272.923,679.188c13.948,53.3,40.788,102.601,78.319,143.569
					c41.377,45.167,93.984,78.33,152.245,95.995c57.467-18.767,109.079-52.713,149.372-98.263
					c36.626-41.404,62.534-90.906,75.606-144.166c-63.978,54.698-144.702,84.594-229.483,84.594
					C415.87,760.917,336.358,732.031,272.923,679.188z"/>
				<path fill="#65CAE3" d="M729.008,676.592l3.622-19.683c3.745-20.355,5.644-41.212,5.644-61.988
					c0-74.905-23.848-145.966-68.965-205.5c-21.707-28.643-47.657-53.58-77.13-74.118c-29.885-20.825-62.675-36.619-97.46-46.942
					l-20.104-5.966l19.972-6.394c34.792-11.138,71.086-16.785,107.872-16.785c89.912,0,175.605,33.8,241.294,95.173l1.521,1.42
					l0.407,2.041c4.545,22.793,6.851,46.182,6.851,69.517c0,49.08-9.869,96.59-29.332,141.21
					c-18.798,43.098-45.625,81.511-79.735,114.173L729.008,676.592z M518.511,262.593c28.674,10.424,55.866,24.539,81.063,42.098
					c30.586,21.314,57.517,47.193,80.043,76.917c46.836,61.801,71.592,135.562,71.592,213.312c0,14.819-0.932,29.68-2.776,44.383
					c26.318-28.247,47.438-60.427,62.91-95.897c18.747-42.98,28.252-88.75,28.252-136.039c0-21.79-2.085-43.629-6.199-64.944
					c-63.084-58.233-145.009-90.273-230.938-90.273C573.998,252.15,545.85,255.657,518.511,262.593z"/>
			</g>
			<g>
				<path fill="#FFFFFF" d="M560.491,569.97c0,32.495-26.348,58.834-58.84,58.834c-32.5,0-58.84-26.339-58.84-58.834
					c0-32.497,26.34-58.844,58.84-58.844C534.144,511.126,560.491,537.473,560.491,569.97z"/>
				<path fill="#6659A4" d="M532.001,572.511c0-15.489-12.553-28.051-28.043-28.051c-15.502,0-28.054,12.562-28.054,28.051
					c0,15.495,12.551,28.059,28.054,28.059C519.448,600.569,532.001,588.006,532.001,572.511"/>
				<path fill="#2E2D74" d="M458.62,572.511c0-24.989,20.342-45.326,45.338-45.326c24.994,0,45.325,20.337,45.325,45.326
					c0,24.993-20.331,45.332-45.325,45.332C478.962,617.843,458.62,597.504,458.62,572.511L458.62,572.511z M539.125,662.551
					l-2.834-3.304l8.924-32.787c16.223-12.432,26.727-31.935,26.727-53.949c0-37.55-30.442-67.989-67.983-67.989
					c-37.554,0-67.996,30.439-67.996,67.989c0,21.429,9.927,40.507,25.416,52.969l4.492,33.768l-2.825,3.304
					c0,0-23.25,8.029-23.25,14.166c0,6.141,14.749,7.903,27.489,7.903c12.755,0,20.033-6.958,20.033-6.958l7.951-37.781
					c2.846,0.366,5.737,0.619,8.691,0.619c1.021,0,2.026-0.1,3.043-0.153l7.857,37.315c0,0,7.271,6.958,20.018,6.958
					c12.737,0,27.491-1.763,27.491-7.903C562.367,670.58,539.125,662.551,539.125,662.551"/>
				<g>
					<path fill="#2E2D74" d="M580.674,476.203l-150.161,29.57c-12.208,2.413-24.171-5.617-26.571-17.832L386.65,400.18
						c-2.403-12.217,5.619-24.181,17.835-26.587l150.152-29.569c12.211-2.408,24.171,5.615,26.581,17.836l17.282,87.76
						C600.905,461.839,592.885,473.797,580.674,476.203"/>
					<path fill="#FFFFFF" d="M565.142,456.155l-127.856,25.181c-6.123,1.201-12.108-2.821-13.307-8.932l-12.896-65.461
						c-1.206-6.114,2.812-12.097,8.933-13.303l127.855-25.187c6.112-1.207,12.104,2.816,13.304,8.93l12.896,65.461
						C575.271,448.957,571.262,454.946,565.142,456.155"/>
					<path fill="#2E2D74" d="M472.57,430.102c0,8.276-6.703,14.981-14.974,14.981c-8.267,0-14.968-6.705-14.968-14.981
						c0-8.263,6.701-14.973,14.968-14.973C465.867,415.129,472.57,421.839,472.57,430.102z"/>
					<path fill="#2E2D74" d="M541.174,416.767c0,8.266-6.707,14.969-14.976,14.969c-8.271,0-14.97-6.703-14.97-14.969
						c0-8.267,6.699-14.977,14.97-14.977C534.467,401.791,541.174,408.5,541.174,416.767z"/>
				</g>
			</g>
			<path fill="#99D8E9" d="M498.982,762.819c-90.396,0-176.55-33.982-242.593-95.686c-1.279-1.195-2.151-2.762-2.494-4.479
				c-4.57-22.914-6.888-46.429-6.888-69.89c0-76.845,24.129-149.991,69.778-211.53c21.963-29.608,48.267-55.542,78.18-77.082
				c30.298-21.816,63.62-38.626,99.042-49.963c1.601-0.513,3.32-0.531,4.933-0.052c36.31,10.775,70.534,27.259,101.723,48.993
				c30.75,21.429,57.824,47.446,80.472,77.329c47.088,62.134,71.978,136.294,71.978,214.462c0,21.675-1.981,43.434-5.89,64.673
				c-0.317,1.729-1.173,3.314-2.442,4.53C678.315,727.769,591.022,762.819,498.982,762.819z M269.795,656.734
				c62.669,57.637,143.949,89.345,229.187,89.345c86.801,0,169.172-32.716,232.255-92.18c3.407-19.396,5.134-39.223,5.134-58.979
				c0-74.487-23.714-145.15-68.579-204.351c-21.586-28.484-47.393-53.282-76.701-73.707c-29.008-20.215-60.768-35.661-94.439-45.935
				c-32.83,10.785-63.736,26.525-91.904,46.808c-28.512,20.53-53.583,45.249-74.517,73.47
				c-43.493,58.633-66.482,128.331-66.482,201.557C263.748,614.227,265.782,635.733,269.795,656.734z"/>
			<g>
				<path fill="#40B0CA" d="M397.659,950.374c-47.982,0-94.533-9.399-138.36-27.937c-42.328-17.903-80.34-43.532-112.982-76.174
					s-58.27-70.654-76.173-112.981c-18.538-43.828-27.937-90.379-27.937-138.361c0-49.342,9.922-97.108,29.492-141.971
					c18.9-43.329,45.871-81.949,80.165-114.786c3.338-3.197,8.637-3.082,11.834,0.257c3.197,3.338,3.082,8.637-0.257,11.834
					c-32.685,31.297-58.389,68.101-76.398,109.388c-18.643,42.739-28.095,88.252-28.095,135.278
					c0,90.474,35.232,175.531,99.207,239.506s149.032,99.207,239.505,99.207c35.25,0,70.021-5.41,103.349-16.08
					c4.397-1.408,9.113,1.017,10.523,5.42c1.409,4.402-1.018,9.113-5.42,10.523C471.132,944.695,434.643,950.374,397.659,950.374z"
					/>
				<path fill="#40B0CA" d="M157.661,352.581c-0.502,0-1.012-0.045-1.523-0.14c-4.546-0.836-7.554-5.199-6.718-9.746
					c14.83-80.66,57.749-154.325,120.851-207.426c31.352-26.383,66.635-46.967,104.87-61.182
					c39.576-14.713,81.242-22.173,123.843-22.173c42.153,0,83.409,7.308,122.62,21.722c37.888,13.926,72.922,34.111,104.131,59.995
					c62.707,52.008,105.968,124.402,121.812,203.846c0.904,4.534-2.038,8.941-6.571,9.846c-4.531,0.901-8.94-2.038-9.845-6.571
					c-15.096-75.69-56.321-144.671-116.083-194.235c-29.74-24.666-63.122-43.9-99.219-57.168
					c-37.355-13.731-76.668-20.693-116.845-20.693c-40.603,0-80.307,7.107-118.009,21.124
					c-36.429,13.543-70.048,33.158-99.925,58.299c-60.136,50.605-101.036,120.797-115.165,197.645
					C165.141,349.758,161.621,352.581,157.661,352.581z"/>
				<path fill="#40B0CA" d="M602.458,948.218c-34.407,0-68.483-4.936-101.279-14.668c-4.432-1.315-6.958-5.975-5.643-10.405
					c1.315-4.434,5.978-6.955,10.405-5.644c31.25,9.274,63.724,13.977,96.518,13.977c90.475,0,175.532-35.232,239.507-99.207
					c63.975-63.974,99.206-149.032,99.206-239.506c0-47.759-9.742-93.925-28.956-137.217
					c-18.561-41.82-45.003-78.937-78.592-110.317c-3.378-3.156-3.558-8.452-0.402-11.83c3.156-3.379,8.453-3.559,11.83-0.402
					c35.242,32.925,62.986,71.872,82.465,115.759c20.169,45.443,30.396,93.895,30.396,144.007c0,47.982-9.399,94.533-27.937,138.36
					c-17.903,42.328-43.531,80.342-76.173,112.982c-32.642,32.642-70.654,58.271-112.982,76.174
					C696.992,938.818,650.44,948.218,602.458,948.218z"/>
			</g>
			<g>
				<g>
					<path fill="#35C2E0" d="M225.039,467.788c-0.312,0-0.627-0.021-0.945-0.063c-3.851-0.517-6.554-4.058-6.037-7.909
						c11.259-83.869,66.858-156.341,145.102-189.134c3.585-1.504,7.707,0.186,9.208,3.769c1.502,3.584-0.186,7.707-3.769,9.208
						C294.94,314.53,242.6,382.747,232.003,461.688C231.529,465.221,228.508,467.788,225.039,467.788z"/>
					<g>
						<polygon fill="#35C2E0" points="198.062,450.893 223.142,501.104 254.093,454.283 						"/>
					</g>
				</g>
				<g>
					<path fill="#35C2E0" d="M791.767,514.844c-0.138,0-0.275-0.004-0.414-0.012c-3.88-0.226-6.842-3.553-6.617-7.432
						c0.264-4.544,0.397-8.991,0.397-13.218c0-74.323-36.599-143.899-97.901-186.117c-3.2-2.204-4.009-6.585-1.805-9.785
						c2.206-3.2,6.586-4.006,9.785-1.804c65.117,44.844,103.993,118.752,103.993,197.706c0,4.498-0.142,9.219-0.421,14.033
						C798.566,511.955,795.465,514.844,791.767,514.844z"/>
					<g>
						<polygon fill="#35C2E0" points="712.217,282.691 656.092,282.332 683.836,331.121 						"/>
					</g>
				</g>
				<g>
					<path fill="#35C2E0" d="M495.755,835.451c-45.369,0-89.246-12.703-127.848-37.159c-3.282-2.079-4.257-6.427-2.178-9.709
						c2.08-3.281,6.426-4.257,9.709-2.178c40.979,25.962,88.279,37.854,136.789,34.385c32.131-2.296,62.687-11.136,90.818-26.272
						c3.421-1.843,7.688-0.562,9.529,2.861c1.842,3.422,0.561,7.688-2.861,9.529c-29.895,16.086-62.355,25.479-96.483,27.917
						C507.387,835.243,501.558,835.451,495.755,835.451z"/>
					<g>
						<polygon fill="#35C2E0" points="614.214,828.323 640.152,778.551 584.078,780.967 						"/>
					</g>
				</g>
			</g>
			<g>
				<g>
					<path fill="#6659A5" d="M784.995,704.944c0-2.263-2.216-4.101-4.48-4.101c-2.269,0-4.481,1.838-4.481,4.101v32.526h-5.415
						l9.819,17.006l9.816-17.006h-5.259V704.944z"/>
					<path fill="#6659A5" d="M846.872,741.054l-27.679,16.216l-2.887-4.934l-9.71,17.07l19.639-0.123l-2.891-4.936l27.674-16.218
						c1.954-1.142,2.613-3.659,1.471-5.615C851.342,740.561,848.825,739.905,846.872,741.054z"/>
					<path fill="#6659A5" d="M808.779,690.686l27.691,16.19l-2.885,4.935l19.635,0.108l-9.726-17.061l-2.884,4.937l-27.69-16.189
						c-1.952-1.147-4.467-0.486-5.61,1.467C806.17,687.029,806.824,689.538,808.779,690.686z"/>
				</g>
				<g>
					<path fill="#2E2D74" d="M806.597,670.043c0-9.514-5.481-18.545-13.837-23.056c-8.604-4.651-19.377-3.873-27.371,1.701
						c-8.355,5.817-12.466,16.274-10.618,26.253c1.826,9.85,9.39,17.795,19.042,20.354c7.841,2.077,16.336,0.377,22.708-4.658
						C802.753,685.707,806.597,678.008,806.597,670.043C806.597,659.055,806.597,681.495,806.597,670.043z M780.33,687.484
						c-9.213-0.057-17.132-7.889-17.314-17.1c-0.19-9.279,7.493-17.296,16.727-17.742c9.535-0.463,17.838,7.48,18.122,16.97
						c0.285,9.411-7.418,17.216-16.659,17.831c-0.465,0.026-0.927,0.041-1.389,0.037c1.389,0.015,2.779,0.018,4.168,0.023
						c-1.835-0.009-3.698-0.124-5.535-0.034c1.633-0.081,3.295,0.015,4.927,0.029C782.361,687.49,781.345,687.49,780.33,687.484
						C770.398,687.424,789.949,687.54,780.33,687.484z"/>
					<path fill="#2E2D74" d="M790.855,656.063c-0.101-0.074-0.222-0.16-0.328-0.237
						C790.626,655.896,790.758,655.994,790.855,656.063z"/>
				</g>
				<g>
					<path fill="#2E2D74" d="M905.535,726.976c0-9.518-5.484-18.554-13.843-23.063c-8.601-4.647-19.374-3.868-27.365,1.701
						c-8.355,5.822-12.465,16.28-10.612,26.254c1.82,9.854,9.387,17.799,19.039,20.357c8.887,2.35,18.476-0.194,24.988-6.694
						c3.145-3.137,5.49-7.06,6.748-11.324c0.899-3.063,1.05-6.229,1.05-9.342c0,1.069,0,2.171,0,3.229
						C905.535,727.725,905.535,727.346,905.535,726.976C905.535,715.981,905.535,731.517,905.535,726.976z M879.272,744.411
						c-9.217-0.056-17.139-7.891-17.318-17.095c-0.185-9.281,7.487-17.299,16.722-17.75c9.54-0.458,17.836,7.482,18.124,16.976
						c0.285,9.442-7.575,17.471-16.925,17.856c-0.372,0.022-0.749,0.022-1.122,0.013c1.393,0.031,2.775,0.016,4.173,0.025
						c-1.85-0.016-3.692-0.04-5.538-0.036c1.64-0.004,3.285,0.021,4.925,0.028C881.298,744.427,880.282,744.421,879.272,744.411
						C869.341,744.352,888.891,744.469,879.272,744.411z"/>
					<path fill="#2E2D74" d="M889.795,712.996c-0.105-0.079-0.229-0.167-0.33-0.241
						C889.575,712.829,889.683,712.917,889.795,712.996z"/>
				</g>
				<g>
					<path fill="#2E2D74" d="M806.582,783.138c0,8.966-4.739,17.474-12.353,22.21c-7.717,4.804-17.673,5.207-25.756,1.036
						c-7.919-4.085-13.329-12.139-14.084-21.02c-0.758-8.989,3.273-17.899,10.526-23.262c7.312-5.404,17.184-6.597,25.575-3.1
						c8.193,3.41,14.234,10.981,15.717,19.731C806.457,780.188,806.582,781.663,806.582,783.138
						C806.582,797.573,806.582,768.7,806.582,783.138z"/>
					<path fill="#FFFFFF" d="M797.63,783.138c0,9.155-7.481,16.893-16.636,17.181c-9.142,0.291-17.131-6.931-17.709-16.072
						c-0.583-9.13,6.377-17.351,15.501-18.217c9.11-0.873,17.542,5.82,18.707,14.907C797.59,781.668,797.63,782.404,797.63,783.138
						C797.63,792.629,797.63,773.643,797.63,783.138z"/>
					<path fill="#6659A5" d="M791.05,783.138c0,4.477-2.922,8.575-7.156,10.032c-4.278,1.473-9.146-0.009-11.89-3.603
						c-2.75-3.602-2.873-8.711-0.304-12.444c2.563-3.723,7.341-5.434,11.689-4.181C787.877,774.239,791.05,778.466,791.05,783.138
						C791.05,788.996,791.05,777.273,791.05,783.138z"/>
				</g>
			</g>
			<g>
				<g>
					<g>
						<path fill="#2E2D74" d="M519.957,97.328c0-9.476-5.471-18.477-13.786-22.971c-8.573-4.628-19.298-3.853-27.259,1.695
							c-8.314,5.798-12.408,16.211-10.575,26.151c1.822,9.815,9.349,17.729,18.966,20.275c7.803,2.072,16.267,0.375,22.613-4.644
							C516.123,112.929,519.957,105.26,519.957,97.328C519.957,86.376,519.957,108.734,519.957,97.328z M493.792,114.701
							c-9.171-0.057-17.058-7.863-17.243-17.031c-0.189-9.251,7.465-17.23,16.657-17.677c9.493-0.458,17.764,7.453,18.049,16.906
							c0.279,9.373-7.39,17.144-16.593,17.756c-0.454,0.032-0.922,0.046-1.388,0.039c1.388,0.015,2.774,0.02,4.158,0.026
							c-1.83-0.011-3.688-0.123-5.515-0.033c1.626-0.085,3.283,0.014,4.907,0.028C495.81,114.706,494.798,114.703,493.792,114.701
							C483.904,114.642,503.377,114.755,493.792,114.701z"/>
						<path fill="#2E2D74" d="M504.272,83.401c-0.101-0.076-0.221-0.159-0.326-0.236C504.047,83.235,504.175,83.331,504.272,83.401z
							"/>
					</g>
					<g>
						<path fill="#2E2D74" d="M519.104,223.01c0,8.642-4.557,16.837-11.89,21.395c-7.436,4.633-17.024,5.021-24.812,1
							c-7.628-3.931-12.838-11.693-13.562-20.242c-0.729-8.666,3.148-17.248,10.141-22.413c7.03-5.208,16.548-6.362,24.624-2.992
							c7.895,3.293,13.716,10.584,15.145,19.013C518.987,220.17,519.104,221.596,519.104,223.01
							C519.104,236.918,519.104,209.104,519.104,223.01z"/>
						<path fill="#FFFFFF" d="M510.486,223.01c0,8.818-7.21,16.273-16.021,16.552c-8.814,0.283-16.501-6.676-17.061-15.482
							c-0.562-8.802,6.141-16.716,14.93-17.554c8.77-0.836,16.9,5.608,18.017,14.371
							C510.441,221.596,510.486,222.303,510.486,223.01C510.486,232.158,510.486,213.864,510.486,223.01z"/>
						<path fill="#6659A5" d="M504.147,223.01c0,4.311-2.81,8.265-6.896,9.667c-4.124,1.421-8.804-0.008-11.449-3.467
							c-2.647-3.471-2.771-8.396-0.294-11.993c2.473-3.583,7.074-5.236,11.261-4.028
							C501.087,214.438,504.147,218.514,504.147,223.01C504.147,228.65,504.147,217.365,504.147,223.01z"/>
					</g>
					<g>
						<path fill="#6659A5" d="M451.1,227.701c-0.818,0-1.646-0.233-2.378-0.72c-22.692-15.081-36.239-40.333-36.239-67.548
							c0-30.516,16.865-58.148,44.013-72.114c2.112-1.089,4.707-0.256,5.794,1.858c1.087,2.113,0.255,4.708-1.858,5.794
							c-24.268,12.485-39.343,37.185-39.343,64.462c0,24.326,12.111,46.898,32.396,60.381c1.979,1.315,2.517,3.986,1.202,5.965
							C453.859,227.026,452.493,227.701,451.1,227.701z"/>
						<g>
							<polygon fill="#6659A5" points="453.434,213.639 463.045,229.888 444.167,230.09 							"/>
						</g>
					</g>
					<g>
						<path fill="#6659A5" d="M529.806,218.615c-1.437,0-2.847-0.695-3.704-1.98c-1.362-2.043-0.811-4.805,1.233-6.167
							c17.044-11.365,27.22-30.363,27.22-50.82c0-17.574-7.584-34.305-20.807-45.903c-1.847-1.62-2.03-4.429-0.411-6.276
							c1.62-1.847,4.429-2.03,6.276-0.411c15.148,13.286,23.836,32.455,23.836,52.589c0,23.438-11.656,45.203-31.181,58.221
							C531.511,218.374,530.653,218.615,529.806,218.615z"/>
						<g>
							<polygon fill="#6659A5" points="533.088,120.168 525.196,102.322 544.597,104.409 							"/>
						</g>
					</g>
					<g>
						<path fill="#6659A5" d="M453.172,198.48c-1.198,0-2.389-0.503-3.23-1.484c-8.905-10.386-13.81-23.65-13.81-37.349
							c0-16.455,7.078-32.143,19.418-43.04c1.76-1.554,4.448-1.388,6.001,0.373c1.555,1.76,1.388,4.447-0.373,6.001
							c-10.513,9.284-16.543,22.648-16.543,36.666c0,11.669,4.177,22.968,11.762,31.813c1.528,1.783,1.322,4.467-0.46,5.996
							C455.136,198.144,454.152,198.48,453.172,198.48z"/>
						<g>
							<polygon fill="#6659A5" points="457.758,185.376 463.122,203.244 444.966,198.958 							"/>
						</g>
					</g>
				</g>
			</g>
			<g>
				<g>
					<path fill="#6659A5" d="M165.985,707.298c-1.003,0-2.007-0.376-2.782-1.131l-6.083-5.924c-1.578-1.537-1.611-4.062-0.074-5.64
						c1.536-1.578,4.061-1.611,5.64-0.075l6.083,5.924c1.578,1.537,1.611,4.062,0.074,5.64
						C168.061,706.895,167.023,707.298,165.985,707.298z"/>
					<path fill="#6659A5" d="M212.496,753.807c-1.003,0-2.007-0.376-2.783-1.132l-6.081-5.925c-1.578-1.537-1.61-4.062-0.073-5.64
						c1.538-1.579,4.062-1.611,5.64-0.073l6.081,5.925c1.578,1.537,1.61,4.062,0.073,5.64
						C214.571,753.404,213.534,753.807,212.496,753.807z"/>
					<path fill="#6659A5" d="M206.283,707.27c-1.003,0-2.007-0.376-2.782-1.132c-1.578-1.536-1.611-4.062-0.074-5.64l5.921-6.078
						c1.537-1.577,4.062-1.611,5.64-0.073c1.578,1.536,1.611,4.062,0.074,5.64l-5.921,6.078
						C208.359,706.866,207.321,707.27,206.283,707.27z"/>
					<path fill="#6659A5" d="M160.032,753.521c-1.003,0-2.006-0.376-2.782-1.131c-1.578-1.536-1.612-4.062-0.075-5.64l5.928-6.088
						c1.537-1.578,4.062-1.612,5.64-0.075c1.578,1.536,1.612,4.062,0.075,5.64l-5.928,6.088
						C162.108,753.118,161.07,753.521,160.032,753.521z"/>
					<g>
						<path fill="#2E2D74" d="M162.281,770.843c0,7.744-4.09,15.095-10.666,19.185c-6.669,4.153-15.269,4.497-22.253,0.896
							c-6.835-3.521-11.513-10.488-12.165-18.154c-0.651-7.767,2.827-15.468,9.097-20.099c6.308-4.668,14.845-5.705,22.088-2.68
							c7.077,2.949,12.3,9.488,13.581,17.048C162.174,768.297,162.281,769.57,162.281,770.843
							C162.281,783.319,162.281,758.367,162.281,770.843z"/>
						<path fill="#FFFFFF" d="M154.554,770.843c0,7.906-6.469,14.593-14.371,14.839c-7.905,0.256-14.801-5.984-15.302-13.878
							c-0.503-7.894,5.506-14.993,13.391-15.746c7.868-0.75,15.158,5.032,16.158,12.887
							C154.513,769.574,154.554,770.206,154.554,770.843C154.554,779.044,154.554,762.641,154.554,770.843z"/>
						<path fill="#6659A5" d="M148.867,770.843c0,3.87-2.523,7.408-6.182,8.667c-3.7,1.271-7.903-0.006-10.273-3.11
							c-2.372-3.109-2.486-7.526-0.264-10.749c2.215-3.217,6.344-4.695,10.101-3.612
							C146.126,763.155,148.867,766.809,148.867,770.843C148.867,775.898,148.867,765.778,148.867,770.843z"/>
					</g>
					<g>
						<path fill="#2E2D74" d="M255.515,770.843c0,7.744-4.09,15.095-10.667,19.185c-6.67,4.153-15.273,4.497-22.254,0.896
							c-6.838-3.521-11.514-10.488-12.162-18.154c-0.656-7.767,2.824-15.468,9.096-20.099c6.308-4.668,14.843-5.705,22.091-2.68
							c7.076,2.949,12.297,9.488,13.576,17.048C255.405,768.297,255.515,769.57,255.515,770.843
							C255.515,783.319,255.515,758.367,255.515,770.843z"/>
						<path fill="#FFFFFF" d="M247.783,770.843c0,7.906-6.465,14.593-14.37,14.839c-7.903,0.256-14.804-5.984-15.299-13.878
							c-0.505-7.894,5.504-14.993,13.389-15.746c7.87-0.75,15.158,5.032,16.16,12.887
							C247.744,769.574,247.783,770.206,247.783,770.843C247.783,779.044,247.783,762.641,247.783,770.843z"/>
						<path fill="#6659A5" d="M242.099,770.843c0,3.87-2.522,7.408-6.184,8.667c-3.697,1.271-7.897-0.006-10.271-3.11
							c-2.373-3.109-2.483-7.526-0.265-10.749c2.22-3.217,6.348-4.695,10.099-3.612
							C239.355,763.155,242.099,766.809,242.099,770.843C242.099,775.898,242.099,765.778,242.099,770.843z"/>
					</g>
					<g>
						<path fill="#2E2D74" d="M162.281,677.188c0,7.75-4.09,15.097-10.666,19.187c-6.669,4.153-15.269,4.5-22.253,0.896
							c-6.835-3.526-11.513-10.483-12.165-18.155c-0.651-7.766,2.827-15.464,9.097-20.1c6.308-4.665,14.845-5.7,22.088-2.679
							c7.077,2.948,12.3,9.491,13.581,17.05C162.174,674.645,162.281,675.916,162.281,677.188
							C162.281,689.662,162.281,664.718,162.281,677.188z"/>
						<path fill="#FFFFFF" d="M154.554,677.188c0,7.908-6.469,14.597-14.371,14.847c-7.905,0.25-14.801-5.993-15.302-13.888
							c-0.503-7.892,5.506-14.988,13.391-15.741c7.868-0.746,15.158,5.03,16.158,12.889
							C154.513,675.919,154.554,676.554,154.554,677.188C154.554,685.392,154.554,668.986,154.554,677.188z"/>
						<path fill="#6659A5" d="M148.867,677.188c0,3.872-2.523,7.408-6.182,8.667c-3.7,1.276-7.903-0.005-10.273-3.108
							c-2.372-3.111-2.486-7.529-0.264-10.746c2.215-3.219,6.344-4.701,10.101-3.616
							C146.126,669.502,148.867,673.159,148.867,677.188C148.867,682.25,148.867,672.13,148.867,677.188z"/>
					</g>
					<g>
						<path fill="#2E2D74" d="M208.764,723.417c0,7.751-4.088,15.095-10.667,19.188c-6.667,4.153-15.271,4.498-22.252,0.897
							c-6.841-3.529-11.517-10.489-12.164-18.153c-0.655-7.771,2.827-15.469,9.095-20.104c6.309-4.667,14.845-5.701,22.091-2.677
							c7.077,2.946,12.298,9.491,13.576,17.051C208.658,720.875,208.764,722.147,208.764,723.417
							C208.764,735.892,208.764,710.945,208.764,723.417z"/>
						<path fill="#FFFFFF" d="M201.035,723.417c0,7.909-6.468,14.597-14.368,14.846c-7.905,0.249-14.808-5.989-15.303-13.889
							c-0.502-7.887,5.507-14.984,13.39-15.735c7.87-0.755,15.158,5.03,16.161,12.883
							C200.992,722.147,201.035,722.787,201.035,723.417C201.035,731.62,201.035,715.217,201.035,723.417z"/>
						<path fill="#6659A5" d="M195.349,723.417c0,3.87-2.521,7.409-6.184,8.667c-3.699,1.275-7.9-0.002-10.269-3.108
							c-2.375-3.109-2.485-7.526-0.265-10.752c2.221-3.21,6.349-4.69,10.098-3.61C192.608,715.729,195.349,719.387,195.349,723.417
							C195.349,728.479,195.349,718.355,195.349,723.417z"/>
					</g>
					<g>
						<path fill="#2E2D74" d="M255.515,677.188c0,7.75-4.09,15.097-10.667,19.187c-6.67,4.153-15.273,4.5-22.254,0.896
							c-6.838-3.526-11.514-10.483-12.162-18.155c-0.656-7.766,2.824-15.464,9.096-20.1c6.308-4.665,14.843-5.7,22.091-2.679
							c7.076,2.948,12.297,9.491,13.576,17.05C255.405,674.645,255.515,675.916,255.515,677.188
							C255.515,689.662,255.515,664.718,255.515,677.188z"/>
						<path fill="#FFFFFF" d="M247.783,677.188c0,7.908-6.465,14.597-14.37,14.847c-7.903,0.25-14.804-5.993-15.299-13.888
							c-0.505-7.892,5.504-14.988,13.389-15.741c7.87-0.746,15.158,5.03,16.16,12.889
							C247.744,675.919,247.783,676.554,247.783,677.188C247.783,685.392,247.783,668.986,247.783,677.188z"/>
						<path fill="#6659A5" d="M242.099,677.188c0,3.872-2.522,7.408-6.184,8.667c-3.697,1.276-7.897-0.005-10.271-3.108
							c-2.373-3.111-2.483-7.529-0.265-10.746c2.22-3.219,6.348-4.701,10.099-3.616
							C239.355,669.502,242.099,673.159,242.099,677.188C242.099,682.25,242.099,672.13,242.099,677.188z"/>
					</g>
					<path fill="#6659A5" d="M139.584,745.741c-2.203,0-3.988-1.785-3.988-3.988v-36.068c0-2.203,1.786-3.988,3.988-3.988
						s3.988,1.785,3.988,3.988v36.068C143.573,743.956,141.787,745.741,139.584,745.741z"/>
					<path fill="#6659A5" d="M232.812,745.741L232.812,745.741c-2.203,0-3.988-1.786-3.988-3.988l0.002-36.068
						c0-2.203,1.786-3.988,3.988-3.988l0,0c2.203,0,3.988,1.786,3.988,3.988l-0.002,36.068
						C236.8,743.956,235.015,745.741,232.812,745.741z"/>
					<path fill="#6659A5" d="M204.219,774.323C204.219,774.323,204.219,774.323,204.219,774.323l-36.069-0.003
						c-2.203,0-3.988-1.786-3.988-3.988c0-2.203,1.786-3.988,3.988-3.988c0,0,0,0,0,0l36.068,0.003c2.203,0,3.988,1.786,3.988,3.988
						C208.207,772.538,206.421,774.323,204.219,774.323z"/>
					<path fill="#6659A5" d="M204.219,681.092L204.219,681.092l-36.068-0.001c-2.203,0-3.988-1.786-3.988-3.988
						s1.786-3.988,3.988-3.988l0,0l36.068,0.001c2.203,0,3.988,1.786,3.988,3.988C208.207,679.307,206.421,681.092,204.219,681.092z
						"/>
				</g>
				<g>
					<path fill="#2E2D74" d="M162.281,770.843c0,7.744-4.09,15.095-10.666,19.185c-6.669,4.153-15.269,4.497-22.253,0.896
						c-6.835-3.521-11.513-10.488-12.165-18.154c-0.651-7.767,2.827-15.468,9.097-20.099c6.308-4.668,14.845-5.705,22.088-2.68
						c7.077,2.949,12.3,9.488,13.581,17.048C162.174,768.297,162.281,769.57,162.281,770.843
						C162.281,783.319,162.281,758.367,162.281,770.843z"/>
					<path fill="#FFFFFF" d="M154.554,770.843c0,7.906-6.469,14.593-14.371,14.839c-7.905,0.256-14.801-5.984-15.302-13.878
						c-0.503-7.894,5.506-14.993,13.391-15.746c7.868-0.75,15.158,5.032,16.158,12.887
						C154.513,769.574,154.554,770.206,154.554,770.843C154.554,779.044,154.554,762.641,154.554,770.843z"/>
					<path fill="#6659A5" d="M148.867,770.843c0,3.87-2.523,7.408-6.182,8.667c-3.7,1.271-7.903-0.006-10.273-3.11
						c-2.372-3.109-2.486-7.526-0.264-10.749c2.215-3.217,6.344-4.695,10.101-3.612
						C146.126,763.155,148.867,766.809,148.867,770.843C148.867,775.898,148.867,765.778,148.867,770.843z"/>
				</g>
				<g>
					<path fill="#2E2D74" d="M255.515,770.843c0,7.744-4.09,15.095-10.667,19.185c-6.67,4.153-15.273,4.497-22.254,0.896
						c-6.838-3.521-11.514-10.488-12.162-18.154c-0.656-7.767,2.824-15.468,9.096-20.099c6.308-4.668,14.843-5.705,22.091-2.68
						c7.076,2.949,12.297,9.488,13.576,17.048C255.405,768.297,255.515,769.57,255.515,770.843
						C255.515,783.319,255.515,758.367,255.515,770.843z"/>
					<path fill="#FFFFFF" d="M247.783,770.843c0,7.906-6.465,14.593-14.37,14.839c-7.903,0.256-14.804-5.984-15.299-13.878
						c-0.505-7.894,5.504-14.993,13.389-15.746c7.87-0.75,15.158,5.032,16.16,12.887
						C247.744,769.574,247.783,770.206,247.783,770.843C247.783,779.044,247.783,762.641,247.783,770.843z"/>
					<path fill="#6659A5" d="M242.099,770.843c0,3.87-2.522,7.408-6.184,8.667c-3.697,1.271-7.897-0.006-10.271-3.11
						c-2.373-3.109-2.483-7.526-0.265-10.749c2.22-3.217,6.348-4.695,10.099-3.612C239.355,763.155,242.099,766.809,242.099,770.843
						C242.099,775.898,242.099,765.778,242.099,770.843z"/>
				</g>
				<g>
					<path fill="#2E2D74" d="M162.281,677.188c0,7.75-4.09,15.097-10.666,19.187c-6.669,4.153-15.269,4.5-22.253,0.896
						c-6.835-3.526-11.513-10.483-12.165-18.155c-0.651-7.766,2.827-15.464,9.097-20.1c6.308-4.665,14.845-5.7,22.088-2.679
						c7.077,2.948,12.3,9.491,13.581,17.05C162.174,674.645,162.281,675.916,162.281,677.188
						C162.281,689.662,162.281,664.718,162.281,677.188z"/>
					<path fill="#FFFFFF" d="M154.554,677.188c0,7.908-6.469,14.597-14.371,14.847c-7.905,0.25-14.801-5.993-15.302-13.888
						c-0.503-7.892,5.506-14.988,13.391-15.741c7.868-0.746,15.158,5.03,16.158,12.889
						C154.513,675.919,154.554,676.554,154.554,677.188C154.554,685.392,154.554,668.986,154.554,677.188z"/>
					<path fill="#6659A5" d="M148.867,677.188c0,3.872-2.523,7.408-6.182,8.667c-3.7,1.276-7.903-0.005-10.273-3.108
						c-2.372-3.111-2.486-7.529-0.264-10.746c2.215-3.219,6.344-4.701,10.101-3.616
						C146.126,669.502,148.867,673.159,148.867,677.188C148.867,682.25,148.867,672.13,148.867,677.188z"/>
				</g>
				<g>
					<path fill="#2E2D74" d="M208.764,723.417c0,7.751-4.088,15.095-10.667,19.188c-6.667,4.153-15.271,4.498-22.252,0.897
						c-6.841-3.529-11.517-10.489-12.164-18.153c-0.655-7.771,2.827-15.469,9.095-20.104c6.309-4.667,14.845-5.701,22.091-2.677
						c7.077,2.946,12.298,9.491,13.576,17.051C208.658,720.875,208.764,722.147,208.764,723.417
						C208.764,735.892,208.764,710.945,208.764,723.417z"/>
					<path fill="#FFFFFF" d="M201.035,723.417c0,7.909-6.468,14.597-14.368,14.846c-7.905,0.249-14.808-5.989-15.303-13.889
						c-0.502-7.887,5.507-14.984,13.39-15.735c7.87-0.755,15.158,5.03,16.161,12.883
						C200.992,722.147,201.035,722.787,201.035,723.417C201.035,731.62,201.035,715.217,201.035,723.417z"/>
					<path fill="#6659A5" d="M195.349,723.417c0,3.87-2.521,7.409-6.184,8.667c-3.699,1.275-7.9-0.002-10.269-3.108
						c-2.375-3.109-2.485-7.526-0.265-10.752c2.221-3.21,6.349-4.69,10.098-3.61C192.608,715.729,195.349,719.387,195.349,723.417
						C195.349,728.479,195.349,718.355,195.349,723.417z"/>
				</g>
				<g>
					<path fill="#2E2D74" d="M255.515,677.188c0,7.75-4.09,15.097-10.667,19.187c-6.67,4.153-15.273,4.5-22.254,0.896
						c-6.838-3.526-11.514-10.483-12.162-18.155c-0.656-7.766,2.824-15.464,9.096-20.1c6.308-4.665,14.843-5.7,22.091-2.679
						c7.076,2.948,12.297,9.491,13.576,17.05C255.405,674.645,255.515,675.916,255.515,677.188
						C255.515,689.662,255.515,664.718,255.515,677.188z"/>
					<path fill="#FFFFFF" d="M247.783,677.188c0,7.908-6.465,14.597-14.37,14.847c-7.903,0.25-14.804-5.993-15.299-13.888
						c-0.505-7.892,5.504-14.988,13.389-15.741c7.87-0.746,15.158,5.03,16.16,12.889
						C247.744,675.919,247.783,676.554,247.783,677.188C247.783,685.392,247.783,668.986,247.783,677.188z"/>
					<path fill="#6659A5" d="M242.099,677.188c0,3.872-2.522,7.408-6.184,8.667c-3.697,1.276-7.897-0.005-10.271-3.108
						c-2.373-3.111-2.483-7.529-0.265-10.746c2.22-3.219,6.348-4.701,10.099-3.616C239.355,669.502,242.099,673.159,242.099,677.188
						C242.099,682.25,242.099,672.13,242.099,677.188z"/>
				</g>
			</g>
		</g>
	</g>
</g>
</svg>
