<?xml version="1.0" encoding="iso-8859-1"?>
<!-- Generator: Adobe Illustrator 19.0.0, SVG Export Plug-In . SVG Version: 6.00 Build 0)  -->
<svg version="1.1" id="Capa_1" xmlns="http://www.w3.org/2000/svg" xmlns:xlink="http://www.w3.org/1999/xlink" x="0px" y="0px"
	 viewBox="0 0 498.585 498.585" style="enable-background:new 0 0 498.585 498.585;" xml:space="preserve">
<path id="SVGCleanerId_0" style="fill:#F15E75;" d="M136.652,489.808V374.242c0-35.109,27.794-62.903,62.903-62.903h96.549
	c35.109,0,62.903,27.794,62.903,62.903v115.566H136.652z"/>
<g>
	<path id="SVGCleanerId_0_1_" style="fill:#F15E75;" d="M136.652,489.808V374.242c0-35.109,27.794-62.903,62.903-62.903h96.549
		c35.109,0,62.903,27.794,62.903,62.903v115.566H136.652z"/>
</g>
<path style="fill:#EF3956;" d="M357.544,374.242v8.777c-21.943-14.629-48.274-23.406-76.069-23.406
	c-73.143,0-133.12,58.514-134.583,131.657h-10.24V374.242c0-35.109,27.794-62.903,62.903-62.903h96.549
	C329.75,311.339,357.544,340.596,357.544,374.242z"/>
<g>
	<path style="fill:#030303;" d="M357.544,498.585h-59.977c-8.777,0-14.629-7.314-14.629-14.629v-51.2
		c0-8.777,7.314-14.629,14.629-14.629c7.314,0,14.629,7.314,14.629,14.629v36.571h30.72v-95.086
		c0-26.331-21.943-48.274-48.274-48.274h-96.549c-26.331,0-48.274,21.943-48.274,48.274v95.086h30.72v-36.571
		c0-8.777,7.314-14.629,14.629-14.629s14.629,7.314,14.629,14.629v51.2c0,8.777-7.314,14.629-14.629,14.629h-58.514
		c-8.777,0-14.629-7.314-14.629-14.629V374.242c0-42.423,35.109-77.531,77.531-77.531h96.549c42.423,0,77.531,35.109,77.531,77.531
		v109.714C372.172,491.271,366.321,498.585,357.544,498.585z"/>
	<path style="fill:#030303;" d="M117.635,276.231c-36.571-36.571-7.314-119.954,65.829-193.097
		c70.217-70.217,155.063-103.863,193.097-65.829c45.349,45.349-13.166,138.971-65.829,193.097
		C239.052,280.619,155.67,312.802,117.635,276.231z M203.944,103.614c-61.44,61.44-86.309,130.194-65.829,150.674
		c20.48,20.48,89.234-4.389,150.674-65.829c64.366-64.366,84.846-131.657,65.829-150.674S266.847,42.174,203.944,103.614z"/>
	<path style="fill:#030303;" d="M334.138,290.859c0,0-64.366,4.389-150.674-81.92c-33.646-33.646-58.514-70.217-71.68-105.326
		c-14.629-38.034-13.166-68.754,5.851-87.771c43.886-43.886,138.971,11.703,193.097,65.829
		c73.143,73.143,102.4,156.526,65.829,193.097C366.321,286.471,351.692,290.859,334.138,290.859z M138.115,37.785
		c-8.777,10.24-8.777,30.72,1.463,57.051c11.703,30.72,35.109,64.366,65.829,93.623c62.903,62.903,130.194,86.309,150.674,65.829
		c20.48-20.48-4.389-89.234-65.829-150.674C227.35,42.174,158.595,17.305,138.115,37.785z"/>
</g>
<circle style="fill:#F6E272;" cx="246.367" cy="219.179" r="71.68"/>
<path style="fill:#FFCA19;" d="M304.881,176.756c-5.851-1.463-13.166-2.926-19.017-2.926c-39.497,0-71.68,32.183-71.68,71.68
	c0,16.091,4.389,30.72,13.166,42.423c-30.72-8.777-52.663-36.571-52.663-68.754c0-39.497,32.183-71.68,71.68-71.68
	C271.235,146.036,291.715,157.739,304.881,176.756z"/>
<path style="fill:#030303;" d="M246.367,305.488c-48.274,0-86.309-39.497-86.309-86.309s39.497-86.309,86.309-86.309
	s86.309,39.497,86.309,86.309S294.641,305.488,246.367,305.488z M246.367,162.128c-32.183,0-57.051,26.331-57.051,57.051
	s26.331,57.051,57.051,57.051s57.051-26.331,57.051-57.051S278.55,162.128,246.367,162.128z"/>
<circle style="fill:#77C587;" cx="376.561" cy="53.876" r="38.034"/>
<path style="fill:#030303;" d="M376.561,106.539c-29.257,0-52.663-23.406-52.663-52.663s23.406-52.663,52.663-52.663
	s52.663,23.406,52.663,52.663C429.224,83.134,405.818,106.539,376.561,106.539z M376.561,31.934
	c-13.166,0-23.406,10.24-23.406,23.406s10.24,23.406,23.406,23.406s23.406-10.24,23.406-23.406S389.727,31.934,376.561,31.934z"/>
<circle style="fill:#FFCA19;" cx="122.024" cy="91.911" r="38.034"/>
<path style="fill:#030303;" d="M122.024,144.574c-29.257,0-52.663-23.406-52.663-52.663s23.406-52.663,52.663-52.663
	s52.663,23.406,52.663,52.663S151.281,144.574,122.024,144.574z M122.024,68.505c-13.166,0-23.406,10.24-23.406,23.406
	s10.24,23.406,23.406,23.406c13.166,0,23.406-10.24,23.406-23.406S133.727,68.505,122.024,68.505z"/>
<g>
</g>
<g>
</g>
<g>
</g>
<g>
</g>
<g>
</g>
<g>
</g>
<g>
</g>
<g>
</g>
<g>
</g>
<g>
</g>
<g>
</g>
<g>
</g>
<g>
</g>
<g>
</g>
<g>
</g>
</svg>
