<svg xmlns="http://www.w3.org/2000/svg" xmlns:xlink="http://www.w3.org/1999/xlink" version="1.1" width="100" height="100" enable-background="new 0 0 100 100" xml:space="preserve"><rect id="backgroundrect" width="100%" height="100%" x="0" y="0" fill="none" stroke="none"/>

<g class="currentLayer" style=""><title>Layer 1</title><g id="svg_1" class="selected">
	<path fill="#ff0000" d="M48.291210934872865,3.4106051300915446e-13 c-20.280063629505296,0 -36.72096324852175,16.44048837548258 -36.72096324852175,36.72096324852175 c0,8.688753383708233 2.821953129449352,15.89230074482738 7.046246709412007,23.36644635123619 c9.883210227847792,17.48648630389331 29.719130840768223,39.831814960518194 29.719130840768223,39.831814960518194 c13.245537360808722,-14.26830002955552 30.23051217514163,-42.421415493328254 30.23051217514163,-42.421415493328254 s6.446448015255511,-13.063356475302156 6.446448015255511,-20.776845818426132 C85.01217418339462,16.440488375482964 68.57148018614508,3.4106051300915446e-13 48.291210934872865,3.4106051300915446e-13 zM48.291210934872865,58.474306838134154 c-13.575354674976365,0 -24.581259750302554,-11.005493831792311 -24.581259750302554,-24.581259750302554 S34.7158562598965,9.311787337529077 48.291210934872865,9.311787337529077 s24.581259750302554,11.005288210025371 24.581259750302554,24.581259750302554 S61.866565609849204,58.474306838134154 48.291210934872865,58.474306838134154 z" id="svg_2"/>
	<circle fill="#b30000" cx="48.29121017456055" cy="33.89304733276367" r="14.826767921447754" id="svg_3"/>
</g></g></svg>
